<?xml version="1.0" encoding="UTF-8"?>
<svg xmlns="http://www.w3.org/2000/svg" viewBox="692.0 22.3 267.5 254.1">
  <path id="Aveiro" d="M 876.8,113.2 L 876.5,113.6 L 876.5,114.0 L 876.1,114.5 L 875.3,114.5 L 875.0,114.6 L 874.7,114.9 L 874.5,115.3 L 873.7,116.4 L 873.5,116.8 L 873.2,117.1 L 872.9,117.3 L 870.8,117.1 L 870.6,116.8 L 870.5,116.5 L 870.5,116.1 L 870.6,115.6 L 870.9,114.9 L 871.1,114.6 L 871.3,114.4 L 871.4,114.3 L 871.6,114.1 L 871.7,114.0 L 871.8,113.3 L 871.9,113.0 L 871.8,112.7 L 871.4,111.9 L 871.2,110.9 L 870.8,111.0 L 870.2,111.2 L 869.6,111.6 L 869.3,111.8 L 869.0,111.7 L 868.8,111.3 L 868.6,110.5 L 868.6,110.0 L 868.8,108.9 L 867.4,107.9 L 866.7,109.1 L 866.5,109.9 L 866.2,110.4 L 865.0,110.2 L 861.0,106.1 L 861.0,106.0 L 861.1,105.4 L 861.8,103.2 L 862.2,100.4 L 862.3,100.3 L 862.5,100.1 L 862.5,101.1 L 862.5,101.4 L 863.2,100.2 L 863.8,99.8 L 864.3,100.1 L 864.5,100.1 L 864.5,99.8 L 864.4,99.7 L 864.3,99.4 L 864.2,99.1 L 864.3,98.8 L 864.6,98.6 L 864.8,98.8 L 865.0,99.0 L 865.2,99.2 L 865.5,99.0 L 865.8,98.7 L 866.3,97.9 L 865.7,97.5 L 865.4,96.9 L 865.5,96.4 L 866.1,96.2 L 867.0,96.1 L 867.6,95.9 L 868.2,95.5 L 868.8,94.9 L 868.1,95.0 L 867.2,95.4 L 866.5,95.6 L 866.3,95.7 L 866.1,95.7 L 865.3,95.3 L 865.0,94.9 L 864.7,93.6 L 866.1,91.7 L 865.8,90.6 L 865.7,91.4 L 865.5,92.1 L 865.2,92.3 L 865.0,91.6 L 864.5,92.6 L 864.1,93.8 L 863.9,95.2 L 863.8,96.4 L 863.6,97.1 L 863.2,98.3 L 862.7,99.3 L 862.3,99.8 L 865.8,83.5 L 865.8,82.4 L 866.1,82.3 L 867.7,82.1 L 868.3,82.5 L 869.4,82.1 L 870.0,81.7 L 870.4,81.7 L 870.8,81.8 L 871.1,82.1 L 871.6,82.4 L 872.0,82.4 L 872.2,82.2 L 872.5,81.5 L 872.6,81.3 L 873.3,80.5 L 874.0,81.3 L 874.2,81.6 L 874.4,82.1 L 875.1,82.6 L 875.4,82.6 L 875.5,82.4 L 875.5,82.1 L 875.3,81.8 L 875.3,81.5 L 875.3,81.3 L 876.2,80.8 L 877.0,81.1 L 878.7,79.9 L 878.8,79.7 L 879.0,79.2 L 881.2,80.6 L 881.3,80.9 L 881.4,81.4 L 881.4,81.7 L 881.4,82.8 L 884.1,84.1 L 884.5,84.1 L 885.0,84.0 L 885.3,83.4 L 885.4,83.2 L 885.5,83.1 L 886.0,82.7 L 886.2,82.7 L 886.3,82.9 L 886.4,83.1 L 886.4,83.2 L 886.3,83.3 L 886.3,83.5 L 885.1,85.2 L 885.0,85.7 L 884.8,86.3 L 884.9,86.6 L 885.0,87.2 L 885.2,88.5 L 885.5,89.3 L 885.5,89.9 L 885.3,90.2 L 885.0,90.3 L 884.7,90.3 L 884.4,90.2 L 884.1,89.9 L 883.8,89.8 L 883.4,89.8 L 882.7,90.2 L 882.3,90.2 L 881.9,90.2 L 881.6,90.0 L 880.5,90.1 L 880.9,91.6 L 880.8,91.9 L 880.5,92.4 L 879.8,94.0 L 878.9,95.0 L 878.1,95.7 L 877.7,96.3 L 877.7,96.5 L 877.7,96.7 L 877.8,97.0 L 877.9,97.3 L 878.4,97.9 L 878.7,98.3 L 878.8,98.6 L 878.8,99.9 L 879.1,100.6 L 879.2,100.7 L 879.9,101.0 L 880.5,101.5 L 879.0,102.0 L 878.8,102.3 L 878.6,102.6 L 878.6,103.0 L 879.0,104.0 L 879.2,104.9 L 879.4,105.2 L 879.7,105.4 L 879.9,105.7 L 880.3,106.4 L 878.3,107.2 L 877.5,107.9 L 877.4,108.1 L 877.5,108.5 L 877.9,109.1 L 877.9,109.7 L 877.7,110.1 L 876.7,111.8 L 876.8,113.2 Z"/>
  <path id="Azores" d="M 769.41,161.18 L 769.63,161.33 L 769.82,161.58 L 769.97,161.89 L 770.00,162.19 L 769.85,162.38 L 769.48,162.35 L 768.83,162.13 L 768.46,162.23 L 768.24,162.23 L 768.18,162.10 L 768.09,161.92 L 767.97,161.76 L 767.91,161.61 L 768.03,161.46 L 768.24,161.27 L 768.64,161.15 L 769.11,161.15 L 769.41,161.18 Z M 767.94,149.32 L 768.37,149.51 L 768.64,149.91 L 768.68,150.43 L 768.40,150.86 L 767.97,151.08 L 766.49,151.26 L 766.00,151.38 L 765.44,151.45 L 764.95,151.42 L 764.70,151.45 L 764.49,151.54 L 764.21,151.35 L 763.90,151.23 L 763.29,151.08 L 762.27,151.02 L 760.95,150.03 L 760.55,149.48 L 760.76,148.74 L 761.62,148.64 L 761.90,148.74 L 762.27,149.08 L 762.36,149.20 L 762.36,149.35 L 762.39,149.48 L 762.45,149.60 L 762.55,149.63 L 763.96,149.81 L 764.12,149.78 L 764.43,149.57 L 764.58,149.51 L 764.67,149.57 L 764.92,149.75 L 765.04,149.81 L 765.23,149.72 L 766.37,149.35 L 767.94,149.32 Z M 735.45,141.07 L 735.94,141.10 L 736.12,141.25 L 736.22,141.59 L 736.06,141.75 L 735.72,141.75 L 734.83,141.62 L 734.58,141.62 L 734.37,141.71 L 733.97,142.05 L 733.81,141.96 L 733.72,141.81 L 733.60,141.65 L 733.35,141.56 L 731.75,141.53 L 731.54,141.65 L 730.80,140.94 L 730.52,140.51 L 730.52,139.90 L 730.86,139.59 L 731.23,139.47 L 732.03,139.50 L 732.49,139.59 L 733.60,140.27 L 734.00,140.45 L 734.00,140.48 L 734.12,140.51 L 734.37,140.70 L 734.46,140.76 L 734.71,140.79 L 735.45,141.07 Z M 729.84,138.91 L 730.00,139.56 L 729.93,139.56 L 729.56,139.71 L 729.47,139.81 L 729.53,139.87 L 729.56,139.93 L 729.60,139.96 L 729.69,139.99 L 729.56,140.08 L 729.41,140.08 L 729.16,139.99 L 729.01,139.99 L 728.67,140.08 L 728.55,140.08 L 728.30,139.96 L 727.99,139.53 L 727.78,139.31 L 727.25,139.00 L 727.25,138.88 L 727.62,138.82 L 727.96,138.79 L 728.12,138.76 L 728.24,138.70 L 728.33,138.60 L 728.52,138.33 L 728.61,138.23 L 729.60,138.67 L 729.84,138.91 Z M 737.88,138.82 L 738.71,139.13 L 739.11,139.34 L 739.33,139.59 L 739.14,139.68 L 738.93,139.71 L 738.50,139.68 L 738.31,139.62 L 737.94,139.44 L 737.60,139.37 L 737.42,139.28 L 737.23,139.19 L 737.08,139.07 L 736.92,138.97 L 736.62,139.04 L 736.43,138.91 L 736.28,139.00 L 736.15,138.94 L 735.97,138.70 L 735.82,138.60 L 734.68,138.23 L 734.46,138.08 L 734.25,137.68 L 734.15,137.65 L 734.09,137.65 L 734.03,137.68 L 734.00,137.68 L 733.91,137.65 L 733.88,137.59 L 733.88,137.53 L 733.88,137.46 L 733.78,137.43 L 733.69,137.40 L 733.17,136.94 L 733.14,136.85 L 733.14,136.66 L 733.32,136.73 L 733.69,137.00 L 733.88,137.03 L 734.06,137.06 L 736.28,137.93 L 737.88,138.82 Z M 747.58,137.53 L 747.52,137.59 L 747.27,137.68 L 747.21,137.74 L 747.18,137.83 L 747.24,138.08 L 747.21,138.23 L 747.15,138.27 L 746.81,138.42 L 746.53,138.33 L 745.79,138.30 L 745.55,138.11 L 745.39,138.27 L 745.27,138.30 L 744.99,138.11 L 744.72,138.05 L 744.41,138.02 L 744.16,137.93 L 743.88,137.65 L 743.64,137.34 L 743.55,137.03 L 743.45,136.60 L 743.70,136.26 L 744.13,136.05 L 744.50,135.96 L 746.19,136.08 L 746.53,136.20 L 747.00,136.48 L 747.33,136.82 L 747.40,137.10 L 747.36,137.22 L 747.46,137.31 L 747.58,137.40 L 747.58,137.53 Z M 736.83,132.91 L 736.62,132.91 L 736.37,132.88 L 736.15,132.78 L 735.97,132.63 L 735.85,132.38 L 735.85,132.17 L 736.03,131.74 L 736.15,131.64 L 736.28,131.64 L 736.40,131.64 L 736.49,131.74 L 736.59,131.64 L 736.74,131.89 L 737.11,132.20 L 737.29,132.38 L 737.39,132.63 L 737.23,132.78 L 737.05,132.88 L 736.83,132.91 Z M 700.83,125.79 L 700.95,125.89 L 701.08,125.98 L 701.23,126.01 L 701.39,125.92 L 701.60,126.19 L 701.69,126.44 L 701.69,127.06 L 701.60,127.36 L 701.42,127.76 L 701.20,128.01 L 701.02,127.89 L 700.80,127.98 L 700.55,128.01 L 700.31,127.98 L 700.15,127.89 L 700.06,127.70 L 700.00,127.39 L 700.00,127.15 L 700.09,126.99 L 700.03,126.75 L 700.09,126.56 L 700.18,126.35 L 700.25,126.04 L 700.31,125.82 L 700.49,125.67 L 700.71,125.61 L 700.92,125.61 L 700.83,125.79 Z M 701.85,122.62 L 702.25,122.71 L 702.28,123.14 L 702.06,123.54 L 701.69,123.64 L 701.69,123.54 L 701.51,123.08 L 701.45,123.02 L 701.51,122.87 L 701.60,122.74 L 701.72,122.65 L 701.85,122.62 Z"/>
  <path id="Beja" d="M 883.6,209.5 L 883.8,209.1 L 886.5,209.2 L 887.3,209.1 L 887.8,209.2 L 888.0,209.2 L 888.4,209.7 L 888.8,210.0 L 889.1,210.1 L 889.4,210.1 L 890.2,209.7 L 890.6,209.7 L 890.9,209.8 L 892.0,210.2 L 892.8,211.2 L 895.9,212.6 L 897.7,212.8 L 898.7,213.2 L 901.0,214.5 L 901.5,214.6 L 903.9,214.7 L 904.6,214.8 L 905.4,215.1 L 907.0,215.1 L 907.4,215.0 L 907.5,214.7 L 908.0,214.0 L 908.6,213.3 L 909.6,212.8 L 909.7,212.6 L 910.2,212.3 L 910.4,212.1 L 910.7,211.8 L 911.0,211.4 L 911.2,211.0 L 911.2,210.7 L 911.2,210.4 L 912.4,210.0 L 913.6,209.4 L 913.9,209.3 L 914.1,209.3 L 915.0,208.9 L 915.3,208.9 L 915.6,208.9 L 915.7,209.1 L 915.7,209.2 L 915.8,209.5 L 915.8,209.6 L 916.0,209.8 L 916.2,210.1 L 916.3,210.4 L 916.4,210.8 L 916.5,211.1 L 916.6,211.4 L 917.4,212.2 L 918.3,212.6 L 918.5,212.8 L 918.6,213.1 L 918.7,213.5 L 919.1,214.4 L 919.2,214.7 L 919.5,215.4 L 919.8,215.7 L 920.2,216.0 L 920.8,216.1 L 921.1,216.0 L 921.4,215.8 L 921.5,215.7 L 922.0,216.2 L 922.6,216.2 L 923.5,216.0 L 924.4,215.6 L 924.8,215.0 L 925.0,215.0 L 925.1,215.1 L 926.0,214.8 L 927.1,214.7 L 927.6,215.0 L 927.7,215.1 L 927.3,216.4 L 927.0,217.1 L 926.5,218.7 L 925.8,220.0 L 925.5,221.4 L 925.2,222.0 L 924.9,223.1 L 924.0,223.2 L 921.9,222.4 L 921.3,222.3 L 921.0,222.7 L 920.6,223.6 L 920.2,224.1 L 920.0,224.3 L 919.5,224.5 L 919.0,224.7 L 918.6,224.6 L 918.1,224.5 L 917.7,224.5 L 917.3,224.7 L 916.1,225.0 L 915.9,225.2 L 915.9,225.6 L 916.0,226.0 L 916.0,226.5 L 915.8,227.3 L 915.0,229.5 L 914.6,231.0 L 913.6,232.8 L 910.3,235.6 L 909.7,236.6 L 909.2,237.9 L 908.9,240.1 L 908.7,240.8 L 908.4,241.2 L 907.5,242.2 L 907.1,242.5 L 907.2,242.7 L 907.2,243.0 L 907.1,243.2 L 907.1,243.4 L 906.7,243.8 L 906.6,244.0 L 906.6,244.5 L 906.6,244.6 L 906.8,244.6 L 907.0,245.2 L 907.0,245.5 L 907.1,245.8 L 906.2,246.0 L 905.2,246.0 L 904.4,246.4 L 903.7,247.1 L 903.3,247.3 L 903.0,247.4 L 902.8,247.3 L 902.2,247.2 L 902.0,247.1 L 900.1,247.1 L 897.3,248.3 L 896.6,248.7 L 896.4,248.9 L 896.2,249.0 L 896.0,249.0 L 895.3,249.4 L 895.0,249.5 L 894.8,249.6 L 894.7,249.9 L 894.2,250.0 L 893.6,250.4 L 893.5,250.7 L 893.3,251.0 L 892.8,251.2 L 891.8,251.4 L 891.3,251.4 L 890.2,251.6 L 889.7,251.9 L 889.5,252.2 L 889.5,252.5 L 889.6,252.7 L 889.8,253.1 L 889.8,253.3 L 889.6,253.4 L 888.3,254.1 L 887.5,254.8 L 887.0,255.0 L 886.6,255.0 L 885.2,254.9 L 884.5,254.9 L 883.3,254.5 L 880.8,252.6 L 880.2,252.3 L 879.8,251.8 L 879.7,251.6 L 879.6,250.9 L 879.3,250.4 L 878.4,250.1 L 877.8,250.2 L 877.5,250.4 L 877.1,250.3 L 876.7,250.4 L 875.9,250.5 L 874.5,251.0 L 874.4,251.2 L 874.1,251.5 L 874.1,251.8 L 873.9,252.2 L 873.3,252.5 L 872.6,252.8 L 871.1,252.5 L 870.5,252.3 L 869.1,251.5 L 868.7,251.4 L 867.3,251.6 L 867.0,251.8 L 866.8,252.0 L 866.6,252.2 L 866.4,252.4 L 866.1,252.3 L 865.9,252.2 L 864.9,251.7 L 863.4,251.6 L 863.2,251.5 L 862.8,251.2 L 862.5,250.8 L 861.9,250.3 L 861.4,250.2 L 860.7,249.7 L 860.2,249.4 L 860.4,248.8 L 860.6,247.6 L 860.7,245.5 L 860.5,244.4 L 860.1,243.7 L 859.6,243.1 L 859.6,242.5 L 860.0,240.5 L 860.2,239.2 L 860.5,238.1 L 861.0,237.8 L 862.0,237.6 L 862.2,236.5 L 862.2,236.4 L 861.9,236.7 L 861.1,236.9 L 860.2,236.9 L 859.9,236.1 L 860.2,233.8 L 860.5,232.1 L 860.8,232.5 L 861.0,232.8 L 861.2,232.9 L 861.5,232.9 L 861.7,232.8 L 862.0,232.6 L 862.3,232.5 L 862.9,232.7 L 863.2,233.1 L 863.3,233.3 L 864.2,234.5 L 864.6,235.1 L 864.7,235.3 L 864.9,235.3 L 865.1,235.1 L 865.2,234.8 L 865.4,234.7 L 865.7,234.8 L 866.0,234.9 L 866.3,235.2 L 866.9,235.4 L 867.3,235.5 L 867.9,235.2 L 868.1,234.9 L 868.2,234.6 L 868.2,234.2 L 868.6,233.2 L 868.7,232.9 L 869.4,232.2 L 869.5,231.9 L 869.6,231.5 L 870.0,231.2 L 870.6,230.9 L 873.8,230.3 L 875.4,230.6 L 876.4,230.6 L 876.5,230.6 L 877.6,231.2 L 878.1,229.9 L 878.3,229.6 L 878.7,228.4 L 878.9,226.3 L 878.9,225.0 L 878.5,224.0 L 878.3,223.6 L 877.8,223.2 L 877.3,223.2 L 876.9,223.1 L 876.5,222.8 L 875.9,222.2 L 875.2,221.6 L 875.1,221.2 L 875.0,220.9 L 875.0,220.7 L 875.1,220.4 L 875.1,220.1 L 875.2,219.8 L 875.3,219.5 L 875.5,219.1 L 875.8,219.1 L 876.0,219.2 L 876.2,219.2 L 876.4,219.2 L 876.5,219.0 L 876.6,218.9 L 876.7,218.4 L 876.8,218.2 L 876.8,218.0 L 876.8,217.8 L 876.9,217.6 L 877.2,217.5 L 877.4,217.3 L 877.6,217.2 L 878.0,217.4 L 878.3,217.6 L 878.5,217.7 L 878.8,217.5 L 879.0,216.7 L 879.1,216.3 L 879.2,216.1 L 879.5,215.9 L 880.8,215.9 L 881.0,215.5 L 881.1,215.0 L 881.4,214.9 L 882.7,214.6 L 883.3,214.3 L 884.6,213.9 L 884.8,213.4 L 884.8,213.1 L 884.8,212.6 L 884.5,211.5 L 883.6,209.5 Z"/>
  <path id="Braga" d="M 859.8,53.4 L 860.0,53.4 L 860.7,53.5 L 861.0,53.5 L 863.7,52.5 L 865.5,52.4 L 865.9,52.4 L 866.1,52.1 L 866.3,51.9 L 866.4,51.8 L 866.7,52.0 L 867.8,52.4 L 868.5,52.5 L 868.9,52.7 L 869.3,52.8 L 869.5,52.9 L 870.1,51.7 L 870.0,51.2 L 870.1,50.9 L 870.2,50.6 L 870.6,50.2 L 870.7,49.9 L 870.7,49.6 L 870.8,48.8 L 870.9,48.4 L 871.0,48.1 L 871.3,47.8 L 871.5,47.6 L 871.8,47.6 L 872.1,47.6 L 872.3,47.7 L 873.0,47.4 L 873.6,46.9 L 873.9,46.7 L 874.4,46.5 L 874.9,46.3 L 878.1,46.2 L 879.0,45.9 L 882.4,44.0 L 882.9,44.0 L 883.0,43.9 L 883.0,44.0 L 886.1,44.2 L 887.7,43.8 L 887.8,43.9 L 887.8,44.1 L 887.7,44.4 L 887.5,44.7 L 887.4,45.0 L 887.1,46.4 L 886.8,47.0 L 886.4,48.1 L 886.2,48.5 L 886.1,48.8 L 885.2,49.8 L 885.7,49.8 L 886.2,49.7 L 886.4,49.6 L 886.7,49.6 L 887.0,49.6 L 887.3,49.6 L 887.6,49.6 L 888.2,49.3 L 888.5,49.3 L 888.7,49.4 L 889.7,50.0 L 889.8,50.2 L 889.9,50.5 L 889.8,51.1 L 889.7,51.5 L 889.6,53.7 L 890.3,54.0 L 890.7,54.1 L 891.1,54.3 L 891.4,54.4 L 892.8,54.7 L 893.3,54.8 L 894.4,54.4 L 895.1,53.6 L 895.5,53.8 L 895.7,54.0 L 896.3,55.1 L 896.2,55.7 L 894.7,57.9 L 894.3,58.3 L 893.6,58.7 L 893.5,58.8 L 893.3,59.4 L 892.9,59.7 L 892.6,59.7 L 892.5,59.7 L 892.3,59.8 L 891.9,60.3 L 891.6,61.4 L 891.8,61.8 L 891.7,62.0 L 891.6,62.4 L 891.1,63.2 L 891.0,63.6 L 890.8,63.7 L 890.7,63.8 L 890.6,63.9 L 890.7,64.3 L 890.7,64.5 L 890.4,65.4 L 890.3,65.9 L 890.2,66.1 L 890.1,66.3 L 889.9,66.5 L 889.7,66.6 L 889.5,66.8 L 889.3,67.0 L 889.1,67.2 L 888.8,67.4 L 888.6,67.5 L 888.2,67.6 L 887.8,67.2 L 887.0,66.8 L 886.6,66.9 L 885.5,66.4 L 884.2,65.4 L 884.2,64.9 L 884.1,64.7 L 883.4,63.9 L 881.6,63.2 L 881.0,64.1 L 880.3,64.6 L 879.2,65.1 L 878.9,65.2 L 878.1,65.5 L 877.8,65.5 L 877.3,65.2 L 877.0,65.1 L 875.6,65.3 L 874.4,65.6 L 873.5,65.4 L 873.3,65.2 L 873.0,65.1 L 872.6,65.1 L 871.9,65.3 L 871.3,65.7 L 871.0,65.9 L 870.7,66.1 L 870.4,66.2 L 870.1,66.3 L 868.1,66.3 L 867.7,66.4 L 867.6,66.4 L 867.3,66.2 L 867.1,65.9 L 867.0,65.2 L 866.9,64.9 L 867.2,64.5 L 867.6,64.4 L 867.8,64.3 L 867.9,64.0 L 867.8,63.7 L 867.4,63.4 L 867.0,63.3 L 866.5,63.0 L 865.9,62.3 L 865.6,62.1 L 865.3,61.8 L 865.0,61.7 L 864.1,61.6 L 863.1,61.2 L 862.3,60.7 L 861.4,60.7 L 861.4,60.6 L 861.0,59.5 L 860.9,58.5 L 860.8,57.8 L 860.7,57.0 L 860.2,55.6 L 860.0,54.5 L 859.8,53.7 L 859.8,53.4 Z"/>
  <path id="Bragança" d="M 928.4,80.9 L 927.8,80.7 L 926.2,80.7 L 923.0,79.0 L 922.6,78.5 L 922.4,77.9 L 922.2,77.2 L 922.2,76.8 L 922.4,76.4 L 922.4,76.0 L 922.1,75.9 L 921.8,75.8 L 921.6,75.7 L 921.3,75.5 L 921.2,75.3 L 921.4,75.0 L 921.7,74.0 L 921.3,74.1 L 919.9,75.1 L 919.6,75.6 L 918.9,75.6 L 917.7,75.3 L 914.9,75.5 L 913.9,75.6 L 912.7,75.2 L 912.3,74.8 L 911.2,73.2 L 910.6,72.8 L 910.1,72.8 L 910.3,72.2 L 910.4,71.9 L 910.5,71.7 L 910.9,71.5 L 911.4,71.4 L 911.5,71.3 L 911.5,71.1 L 911.4,70.8 L 911.5,70.4 L 911.6,69.7 L 911.9,69.3 L 912.3,68.9 L 912.4,68.7 L 912.3,68.4 L 912.4,67.9 L 913.0,67.2 L 914.3,66.8 L 913.4,66.3 L 913.1,65.9 L 912.8,65.3 L 912.6,64.3 L 912.6,61.9 L 913.8,61.0 L 914.1,60.9 L 914.5,60.7 L 914.8,60.3 L 915.0,59.5 L 915.5,58.7 L 915.8,58.3 L 916.2,58.1 L 916.5,58.1 L 916.8,58.0 L 917.1,57.9 L 917.2,57.6 L 917.1,57.3 L 917.0,57.0 L 916.8,56.7 L 916.6,56.4 L 916.5,56.0 L 916.5,55.3 L 916.6,54.0 L 917.8,50.0 L 918.7,48.1 L 919.0,47.8 L 919.2,47.7 L 919.4,47.4 L 919.5,47.1 L 919.5,46.4 L 919.5,46.0 L 918.8,45.1 L 918.5,44.2 L 918.4,43.8 L 918.3,42.9 L 918.4,41.9 L 918.5,41.4 L 918.2,40.5 L 918.2,40.2 L 918.6,39.6 L 918.7,38.8 L 918.4,37.3 L 918.5,36.6 L 918.8,36.3 L 919.3,35.9 L 920.0,35.5 L 920.5,35.4 L 921.7,36.1 L 922.8,37.1 L 923.9,37.6 L 925.2,37.1 L 926.0,36.4 L 926.4,36.6 L 926.9,36.9 L 927.8,37.6 L 928.8,37.8 L 931.0,37.6 L 931.9,37.0 L 932.1,35.6 L 933.2,35.8 L 934.5,37.8 L 935.6,38.2 L 938.2,38.1 L 939.4,37.7 L 939.9,36.6 L 940.8,37.0 L 941.3,37.6 L 941.4,38.4 L 941.1,40.5 L 941.4,40.9 L 942.1,40.9 L 943.0,41.3 L 942.6,42.2 L 941.7,46.2 L 941.6,46.6 L 941.3,47.0 L 941.1,47.5 L 941.2,47.9 L 941.4,48.3 L 941.6,48.8 L 941.7,49.7 L 941.9,50.6 L 942.4,51.4 L 943.4,51.8 L 943.8,51.7 L 944.3,51.4 L 944.8,51.1 L 945.1,50.8 L 945.3,50.5 L 945.8,50.6 L 948.7,51.2 L 950.5,51.8 L 952.1,52.9 L 953.7,54.5 L 954.2,55.2 L 954.5,55.7 L 952.8,58.2 L 951.9,59.2 L 951.6,59.7 L 951.7,60.1 L 951.8,60.4 L 951.8,60.8 L 950.4,63.0 L 950.4,63.4 L 949.2,63.5 L 948.7,63.7 L 948.3,64.1 L 948.4,64.1 L 948.4,64.4 L 948.4,64.8 L 948.3,65.0 L 948.1,65.1 L 947.7,65.0 L 947.5,65.0 L 946.4,66.9 L 945.2,68.1 L 944.5,68.6 L 944.0,69.0 L 941.9,69.9 L 941.6,70.2 L 939.2,70.2 L 938.6,70.3 L 938.2,70.8 L 936.9,72.7 L 936.6,73.5 L 936.4,73.9 L 935.1,75.0 L 934.6,75.6 L 934.5,75.9 L 934.6,77.1 L 934.3,78.0 L 932.9,80.1 L 932.4,80.6 L 931.4,80.7 L 929.1,80.5 L 928.4,80.9 Z"/>
  <path id="Castelo Branco" d="M 905.6,146.1 L 905.2,146.0 L 904.5,146.2 L 903.9,146.7 L 903.4,147.1 L 902.6,147.8 L 902.0,147.7 L 901.4,147.3 L 900.6,147.3 L 900.0,147.7 L 899.5,148.5 L 899.2,149.2 L 898.9,149.5 L 898.2,149.8 L 897.6,150.5 L 897.1,151.2 L 896.6,151.8 L 896.3,151.3 L 896.0,150.5 L 895.8,150.1 L 895.1,148.9 L 894.3,148.1 L 893.7,147.6 L 893.1,147.2 L 892.4,146.9 L 892.0,146.9 L 891.6,146.8 L 891.3,146.6 L 891.2,146.2 L 891.3,145.5 L 891.2,144.8 L 891.2,144.5 L 891.2,144.1 L 891.1,143.8 L 891.0,143.5 L 890.8,143.3 L 889.9,143.2 L 888.7,142.8 L 888.0,143.0 L 887.8,143.3 L 887.4,145.7 L 887.1,146.2 L 886.9,146.8 L 887.0,147.3 L 887.2,148.1 L 887.3,148.4 L 887.3,148.6 L 886.5,148.9 L 885.2,149.0 L 884.5,149.0 L 883.5,148.4 L 881.5,147.6 L 881.2,147.0 L 881.1,145.3 L 881.1,144.4 L 881.3,143.9 L 881.2,143.1 L 881.3,142.9 L 881.3,142.6 L 881.2,142.4 L 881.1,142.1 L 880.9,141.9 L 880.5,141.7 L 880.0,141.5 L 879.6,141.3 L 879.4,140.6 L 879.2,140.0 L 879.2,139.8 L 879.5,139.4 L 879.7,139.2 L 879.7,138.9 L 879.7,138.7 L 879.9,138.4 L 880.1,138.2 L 881.7,137.7 L 882.1,137.8 L 882.3,137.6 L 882.6,137.2 L 882.9,136.8 L 883.2,136.6 L 883.5,136.6 L 883.9,136.3 L 884.2,136.0 L 884.9,134.6 L 885.5,134.0 L 885.6,133.7 L 885.9,133.5 L 886.0,133.5 L 886.5,133.4 L 886.9,132.9 L 887.7,132.7 L 888.3,132.7 L 888.5,132.5 L 888.5,132.3 L 888.6,132.0 L 888.8,132.0 L 889.3,131.9 L 889.5,131.7 L 889.7,131.6 L 890.0,131.5 L 890.2,131.6 L 890.5,131.7 L 890.6,131.7 L 890.8,131.6 L 891.3,130.9 L 891.5,130.7 L 891.8,130.7 L 892.5,130.7 L 892.9,130.4 L 892.9,130.2 L 892.8,129.5 L 892.9,129.1 L 893.3,128.7 L 894.2,128.2 L 894.7,128.1 L 895.1,128.1 L 895.5,128.2 L 895.8,128.4 L 896.5,128.9 L 896.6,128.0 L 896.5,127.2 L 896.7,126.9 L 896.9,126.8 L 897.1,126.9 L 897.1,127.0 L 897.3,127.2 L 897.5,127.3 L 897.9,127.2 L 898.6,126.7 L 898.9,126.4 L 899.1,126.1 L 899.1,125.9 L 899.1,125.6 L 899.0,125.3 L 898.9,124.8 L 897.9,124.1 L 897.3,123.3 L 896.9,123.0 L 896.7,122.7 L 896.5,122.1 L 896.6,121.7 L 897.4,119.9 L 898.1,119.6 L 898.7,119.5 L 899.2,119.3 L 900.5,118.3 L 901.5,117.9 L 902.4,117.3 L 903.2,116.4 L 903.9,115.4 L 904.8,115.7 L 906.1,115.5 L 906.4,115.2 L 906.7,114.9 L 906.9,114.2 L 907.0,113.9 L 907.5,113.0 L 909.3,111.3 L 910.7,112.4 L 911.6,112.7 L 912.0,112.7 L 913.2,112.3 L 913.9,111.4 L 914.2,111.4 L 914.6,111.3 L 915.2,111.2 L 915.5,111.2 L 915.9,111.4 L 915.6,114.2 L 915.2,115.5 L 914.9,115.9 L 914.6,116.2 L 914.2,116.7 L 914.1,117.1 L 914.2,117.3 L 914.3,117.5 L 914.5,117.6 L 914.8,117.7 L 915.1,117.8 L 915.9,118.0 L 916.8,118.2 L 918.5,117.6 L 920.2,117.6 L 920.7,117.4 L 920.9,117.2 L 921.0,116.8 L 921.2,116.4 L 921.4,116.1 L 921.8,115.7 L 922.0,115.8 L 922.2,116.0 L 922.4,116.4 L 922.7,117.0 L 923.0,117.3 L 923.9,117.5 L 924.7,117.4 L 925.3,117.3 L 925.6,117.3 L 925.9,117.3 L 926.8,117.8 L 927.3,118.2 L 927.7,118.6 L 927.8,118.8 L 927.9,118.8 L 927.4,118.9 L 925.8,119.9 L 925.2,120.2 L 924.9,120.6 L 924.5,121.7 L 924.2,122.3 L 924.5,123.0 L 924.8,124.6 L 925.2,125.2 L 925.6,125.4 L 926.6,125.5 L 927.0,125.7 L 927.4,126.0 L 927.9,126.8 L 928.7,127.8 L 930.1,130.4 L 929.5,131.5 L 929.3,132.0 L 929.4,132.5 L 929.3,132.9 L 929.0,134.1 L 928.9,134.3 L 928.6,134.5 L 928.5,134.8 L 928.5,135.0 L 928.6,135.5 L 928.6,135.7 L 928.5,136.2 L 928.5,136.9 L 928.4,137.4 L 927.5,138.8 L 927.1,139.0 L 926.3,139.3 L 926.0,139.6 L 925.8,140.2 L 925.8,140.7 L 926.0,141.1 L 926.0,141.5 L 925.9,142.0 L 925.4,142.8 L 925.3,143.2 L 925.3,143.6 L 925.4,144.0 L 925.4,144.3 L 925.0,145.3 L 924.5,145.5 L 919.1,146.2 L 918.0,146.2 L 917.2,145.7 L 916.6,145.9 L 915.1,145.8 L 914.5,146.0 L 913.9,146.2 L 913.4,146.4 L 905.6,146.0 L 905.6,146.1 Z"/>
  <path id="Coimbra" d="M 897.4,119.9 L 896.6,121.7 L 896.5,122.1 L 896.7,122.7 L 896.9,123.0 L 897.3,123.3 L 897.9,124.1 L 898.9,124.8 L 899.0,125.3 L 899.1,125.6 L 899.1,125.9 L 899.1,126.1 L 898.9,126.4 L 898.6,126.7 L 897.9,127.2 L 897.5,127.3 L 897.3,127.2 L 897.1,127.0 L 897.1,126.9 L 896.9,126.8 L 896.7,126.9 L 896.5,127.2 L 896.6,128.0 L 896.5,128.9 L 895.8,128.4 L 895.5,128.2 L 895.1,128.1 L 894.7,128.1 L 894.2,128.2 L 893.3,128.7 L 892.9,129.1 L 892.8,129.5 L 892.9,130.2 L 892.9,130.4 L 892.5,130.7 L 891.8,130.7 L 891.5,130.7 L 891.3,130.9 L 890.8,131.6 L 890.6,131.7 L 890.5,131.7 L 890.2,131.6 L 890.0,131.5 L 889.7,131.6 L 889.5,131.7 L 889.3,131.9 L 888.8,132.0 L 888.6,132.0 L 888.5,132.3 L 888.5,132.5 L 888.3,132.7 L 887.7,132.7 L 886.9,132.9 L 886.5,133.4 L 886.0,133.5 L 885.9,133.5 L 885.6,133.7 L 885.5,134.0 L 884.9,134.6 L 885.1,134.0 L 885.0,134.0 L 885.0,133.8 L 884.9,133.5 L 885.0,133.0 L 885.2,132.8 L 885.6,132.5 L 884.1,130.1 L 884.0,129.3 L 884.2,127.9 L 884.1,127.6 L 883.9,127.3 L 883.7,127.1 L 883.2,126.8 L 882.1,128.3 L 881.0,127.8 L 879.4,129.2 L 878.9,130.1 L 878.9,130.4 L 879.0,130.8 L 879.1,130.9 L 879.5,131.3 L 879.7,131.6 L 879.6,132.0 L 879.4,132.2 L 879.1,132.3 L 878.5,132.0 L 878.1,132.1 L 876.9,133.5 L 875.4,134.1 L 875.1,134.1 L 874.8,134.0 L 875.0,133.8 L 875.3,133.6 L 875.5,133.3 L 875.5,132.9 L 875.4,132.3 L 875.0,131.4 L 874.6,130.4 L 874.3,130.2 L 874.0,130.1 L 873.9,130.4 L 873.2,130.3 L 872.0,131.3 L 871.0,131.9 L 870.4,132.7 L 870.1,133.0 L 869.9,132.8 L 869.8,132.5 L 869.7,132.2 L 869.7,131.4 L 869.7,131.0 L 869.4,129.9 L 869.2,129.7 L 868.9,129.5 L 868.7,129.5 L 868.5,129.6 L 868.2,129.7 L 867.9,129.9 L 867.4,130.8 L 867.3,130.9 L 867.1,131.0 L 866.7,131.0 L 866.5,131.0 L 866.4,130.9 L 866.0,130.4 L 865.4,129.8 L 865.0,129.5 L 864.2,129.3 L 863.5,129.3 L 861.6,129.1 L 860.7,129.5 L 860.3,129.8 L 860.0,129.9 L 858.8,129.6 L 858.3,129.4 L 857.9,129.2 L 857.0,128.7 L 856.8,128.6 L 858.0,125.0 L 858.6,124.3 L 859.0,124.9 L 859.6,125.2 L 861.1,125.3 L 861.1,124.9 L 860.5,124.3 L 859.9,123.9 L 859.3,123.7 L 857.6,123.5 L 857.0,123.1 L 856.6,122.4 L 856.6,121.4 L 857.0,120.0 L 858.1,117.8 L 860.6,108.3 L 861.0,106.0 L 861.0,106.1 L 865.0,110.2 L 866.2,110.4 L 866.5,109.9 L 866.7,109.1 L 867.4,107.9 L 868.8,108.9 L 868.6,110.0 L 868.6,110.5 L 868.8,111.3 L 869.0,111.7 L 869.3,111.8 L 869.6,111.6 L 870.2,111.2 L 870.8,111.0 L 871.2,110.9 L 871.4,111.9 L 871.8,112.7 L 871.9,113.0 L 871.8,113.3 L 871.7,114.0 L 871.6,114.1 L 871.4,114.3 L 871.3,114.4 L 871.1,114.6 L 870.9,114.9 L 870.6,115.6 L 870.5,116.1 L 870.5,116.5 L 870.6,116.8 L 870.8,117.1 L 872.9,117.3 L 873.2,117.1 L 873.5,116.8 L 873.7,116.4 L 874.5,115.3 L 874.7,114.9 L 875.0,114.6 L 875.3,114.5 L 876.1,114.5 L 876.5,114.0 L 876.5,113.6 L 876.8,113.2 L 877.2,113.4 L 877.6,113.7 L 878.7,114.0 L 879.5,114.6 L 880.1,115.1 L 880.7,115.4 L 881.0,115.7 L 881.2,115.7 L 881.3,115.5 L 881.4,115.3 L 881.4,115.1 L 881.5,114.9 L 881.7,114.8 L 883.2,114.5 L 885.3,114.8 L 888.0,112.8 L 890.0,111.9 L 891.6,110.8 L 892.2,110.5 L 893.1,109.1 L 894.3,108.2 L 894.7,107.7 L 895.1,107.4 L 895.9,107.2 L 896.2,108.3 L 896.5,108.5 L 896.7,108.8 L 896.7,109.2 L 896.6,109.6 L 896.4,109.9 L 896.1,110.1 L 895.8,110.2 L 895.5,110.4 L 895.4,110.8 L 895.7,111.2 L 896.0,111.4 L 896.6,111.6 L 896.8,111.8 L 896.8,112.2 L 897.1,113.9 L 897.3,114.3 L 897.8,114.8 L 897.9,115.0 L 897.9,115.4 L 897.0,115.9 L 896.7,116.3 L 896.5,116.8 L 896.3,117.5 L 895.9,118.5 L 896.9,119.0 L 897.4,119.9 Z"/>
  <path id="Faro" d="M 907.1,245.8 L 907.4,246.3 L 907.7,246.6 L 908.3,247.1 L 908.5,247.4 L 908.8,248.2 L 909.0,249.3 L 909.1,250.3 L 909.0,250.8 L 909.6,252.3 L 909.9,255.9 L 910.3,257.4 L 910.0,258.1 L 910.2,259.1 L 910.7,261.1 L 910.8,261.3 L 910.9,261.5 L 911.0,261.7 L 911.3,261.8 L 911.3,262.0 L 911.0,262.4 L 910.4,261.9 L 909.6,261.7 L 908.8,261.7 L 908.0,261.8 L 907.2,262.1 L 905.7,263.1 L 905.1,263.3 L 903.0,264.7 L 902.7,265.1 L 897.2,268.8 L 896.1,269.9 L 895.5,269.9 L 895.0,269.7 L 894.2,269.5 L 892.0,269.5 L 891.3,269.2 L 891.0,269.7 L 890.6,269.7 L 890.2,269.4 L 889.8,269.2 L 890.2,269.8 L 890.3,270.1 L 890.4,270.5 L 889.5,269.3 L 888.2,268.2 L 885.6,266.7 L 884.2,266.4 L 883.0,265.9 L 881.8,265.9 L 878.9,266.3 L 877.6,265.9 L 876.3,265.4 L 875.2,265.9 L 873.6,266.1 L 872.0,265.5 L 872.0,265.6 L 870.0,264.5 L 868.5,264.2 L 866.8,264.4 L 866.3,264.5 L 865.8,264.9 L 864.6,266.1 L 862.4,266.1 L 862.0,266.2 L 861.0,266.8 L 860.6,267.0 L 860.0,267.1 L 859.2,267.3 L 858.4,268.0 L 857.7,267.7 L 857.0,268.4 L 856.7,268.6 L 856.3,268.8 L 855.6,269.4 L 855.2,269.5 L 854.7,269.3 L 854.3,268.9 L 853.9,268.7 L 853.3,268.9 L 853.6,267.6 L 853.8,267.0 L 854.0,266.7 L 855.4,264.5 L 855.9,263.2 L 856.4,262.1 L 856.1,260.8 L 856.7,260.2 L 857.6,259.3 L 858.1,257.3 L 857.8,256.5 L 857.5,255.8 L 858.1,254.6 L 859.1,253.5 L 859.3,252.4 L 859.9,250.8 L 860.2,249.4 L 860.7,249.7 L 861.4,250.2 L 861.9,250.3 L 862.5,250.8 L 862.8,251.2 L 863.2,251.5 L 863.4,251.6 L 864.9,251.7 L 865.9,252.2 L 866.1,252.3 L 866.4,252.4 L 866.6,252.2 L 866.8,252.0 L 867.0,251.8 L 867.3,251.6 L 868.7,251.4 L 869.1,251.5 L 870.5,252.3 L 871.1,252.5 L 872.6,252.8 L 873.3,252.5 L 873.9,252.2 L 874.1,251.8 L 874.1,251.5 L 874.4,251.2 L 874.5,251.0 L 875.9,250.5 L 876.7,250.4 L 877.1,250.3 L 877.5,250.4 L 877.8,250.2 L 878.4,250.1 L 879.3,250.4 L 879.6,250.9 L 879.7,251.6 L 879.8,251.8 L 880.2,252.3 L 880.8,252.6 L 883.3,254.5 L 884.5,254.9 L 885.2,254.9 L 886.6,255.0 L 887.0,255.0 L 887.5,254.8 L 888.3,254.1 L 889.6,253.4 L 889.8,253.3 L 889.8,253.1 L 889.6,252.7 L 889.5,252.5 L 889.5,252.2 L 889.7,251.9 L 890.2,251.6 L 891.3,251.4 L 891.8,251.4 L 892.8,251.2 L 893.3,251.0 L 893.5,250.7 L 893.6,250.4 L 894.2,250.0 L 894.7,249.9 L 894.8,249.6 L 895.0,249.5 L 895.3,249.4 L 896.0,249.0 L 896.2,249.0 L 896.4,248.9 L 896.6,248.7 L 897.3,248.3 L 900.1,247.1 L 902.0,247.1 L 902.2,247.2 L 902.8,247.3 L 903.0,247.4 L 903.3,247.3 L 903.7,247.1 L 904.4,246.4 L 905.2,246.0 L 906.2,246.0 L 907.1,245.8 Z M 891.1,270.8 L 893.0,271.0 L 893.7,270.7 L 894.6,269.8 L 894.7,270.0 L 894.7,270.1 L 894.8,270.5 L 894.6,270.6 L 894.6,270.8 L 893.9,271.2 L 893.0,271.4 L 892.0,271.4 L 891.1,271.1 L 891.1,270.8 Z"/>
  <path id="Guarda" d="M 927.9,118.8 L 927.8,118.8 L 927.7,118.6 L 927.3,118.2 L 926.8,117.8 L 925.9,117.3 L 925.6,117.3 L 925.3,117.3 L 924.7,117.4 L 923.9,117.5 L 923.0,117.3 L 922.7,117.0 L 922.4,116.4 L 922.2,116.0 L 922.0,115.8 L 921.8,115.7 L 921.4,116.1 L 921.2,116.4 L 921.0,116.8 L 920.9,117.2 L 920.7,117.4 L 920.2,117.6 L 918.5,117.6 L 916.8,118.2 L 915.9,118.0 L 915.1,117.8 L 914.8,117.7 L 914.5,117.6 L 914.3,117.5 L 914.2,117.3 L 914.1,117.1 L 914.2,116.7 L 914.6,116.2 L 914.9,115.9 L 915.2,115.5 L 915.6,114.2 L 915.9,111.4 L 915.5,111.2 L 915.2,111.2 L 914.6,111.3 L 914.2,111.4 L 913.9,111.4 L 913.2,112.3 L 912.0,112.7 L 911.6,112.7 L 910.7,112.4 L 909.3,111.3 L 907.5,113.0 L 907.0,113.9 L 906.9,114.2 L 906.7,114.9 L 906.4,115.2 L 906.1,115.5 L 904.8,115.7 L 903.9,115.4 L 903.2,116.4 L 902.4,117.3 L 901.5,117.9 L 900.5,118.3 L 899.2,119.3 L 898.7,119.5 L 898.1,119.6 L 897.4,119.9 L 896.9,119.0 L 895.9,118.5 L 896.3,117.5 L 896.5,116.8 L 896.7,116.3 L 897.0,115.9 L 897.9,115.4 L 897.9,115.0 L 897.8,114.8 L 897.3,114.3 L 897.1,113.9 L 896.8,112.2 L 896.8,111.8 L 896.6,111.6 L 896.0,111.4 L 895.7,111.2 L 895.4,110.8 L 895.5,110.4 L 895.8,110.2 L 896.1,110.1 L 896.4,109.9 L 896.6,109.6 L 896.7,109.2 L 896.7,108.8 L 896.5,108.5 L 896.2,108.3 L 895.9,107.2 L 896.2,106.9 L 897.3,106.7 L 897.7,106.6 L 898.7,105.9 L 899.7,105.5 L 900.9,104.7 L 902.4,104.1 L 904.8,103.7 L 904.7,102.7 L 905.5,100.1 L 906.0,99.5 L 906.2,98.3 L 905.6,97.4 L 904.8,96.9 L 904.4,96.2 L 904.8,95.7 L 904.9,95.4 L 904.9,95.1 L 904.8,94.8 L 904.6,94.5 L 903.7,93.7 L 903.4,93.4 L 903.3,93.0 L 903.5,92.7 L 903.9,92.1 L 904.3,91.4 L 904.7,90.1 L 904.8,89.9 L 905.1,89.6 L 905.5,89.4 L 906.4,89.4 L 906.8,89.6 L 907.3,90.0 L 908.6,91.3 L 908.8,91.5 L 909.0,91.8 L 909.6,91.9 L 910.0,91.3 L 910.8,89.4 L 910.8,88.9 L 910.7,88.4 L 910.6,88.1 L 910.4,87.2 L 910.9,86.9 L 912.2,87.3 L 913.4,86.2 L 913.7,85.4 L 913.7,84.8 L 913.7,84.5 L 913.5,84.2 L 913.2,84.1 L 912.8,83.8 L 912.5,83.6 L 912.3,83.0 L 912.2,82.7 L 912.3,82.5 L 913.2,82.6 L 913.7,82.3 L 913.5,81.0 L 913.6,80.1 L 913.9,78.7 L 914.9,75.5 L 917.7,75.3 L 918.9,75.6 L 919.6,75.6 L 919.9,75.1 L 921.3,74.1 L 921.7,74.0 L 921.4,75.0 L 921.2,75.3 L 921.3,75.5 L 921.6,75.7 L 921.8,75.8 L 922.1,75.9 L 922.4,76.0 L 922.4,76.4 L 922.2,76.8 L 922.2,77.2 L 922.4,77.9 L 922.6,78.5 L 923.0,79.0 L 926.2,80.7 L 927.8,80.7 L 928.4,80.9 L 928.2,81.8 L 927.8,82.4 L 927.9,83.0 L 928.3,83.6 L 929.4,84.8 L 929.9,85.7 L 930.7,87.6 L 931.0,88.6 L 931.3,89.0 L 931.8,89.2 L 932.2,89.4 L 932.4,90.1 L 932.3,90.7 L 931.7,90.9 L 931.6,92.1 L 931.7,92.4 L 931.8,92.9 L 931.8,93.2 L 931.7,93.4 L 931.6,93.9 L 931.6,94.8 L 931.7,95.5 L 932.1,97.1 L 932.4,98.7 L 932.5,99.5 L 932.5,100.1 L 932.2,100.9 L 931.4,102.5 L 931.2,103.2 L 931.3,104.0 L 931.6,104.5 L 932.0,105.0 L 932.4,105.6 L 932.6,106.4 L 932.5,107.0 L 931.6,108.2 L 930.9,109.9 L 931.2,111.4 L 932.0,112.8 L 933.2,114.0 L 932.6,115.1 L 932.3,115.4 L 930.7,116.6 L 930.5,116.9 L 930.3,117.2 L 930.3,117.6 L 930.3,118.0 L 930.2,118.3 L 929.5,118.8 L 928.8,118.8 L 928.1,118.7 L 927.9,118.8 Z"/>
  <path id="Leiria" d="M 884.9,134.6 L 884.2,136.0 L 883.9,136.3 L 883.5,136.6 L 883.2,136.6 L 882.9,136.8 L 882.6,137.2 L 882.3,137.6 L 882.1,137.8 L 881.7,137.7 L 880.1,138.2 L 879.9,138.4 L 879.7,138.7 L 879.7,138.9 L 879.7,139.2 L 879.5,139.4 L 879.2,139.8 L 879.2,140.0 L 879.4,140.6 L 877.9,140.4 L 877.6,140.3 L 877.6,140.5 L 877.6,140.9 L 877.8,141.8 L 877.6,141.9 L 876.9,141.8 L 876.1,142.2 L 875.6,142.3 L 874.1,142.8 L 873.5,143.0 L 873.4,142.8 L 873.3,142.6 L 873.3,142.2 L 873.0,141.1 L 872.9,140.5 L 872.4,138.6 L 871.9,138.7 L 871.4,139.1 L 871.1,139.1 L 870.6,139.3 L 868.8,140.6 L 868.1,140.9 L 867.7,141.0 L 867.0,140.8 L 865.4,141.6 L 865.2,141.9 L 865.0,142.3 L 865.0,142.7 L 865.1,143.5 L 865.1,144.1 L 865.2,144.4 L 865.4,144.7 L 865.7,144.9 L 866.0,145.3 L 866.2,146.0 L 866.0,146.5 L 865.7,146.7 L 865.5,147.0 L 865.1,147.2 L 864.3,147.8 L 864.7,149.3 L 864.7,150.1 L 865.1,151.4 L 864.9,151.8 L 864.0,153.0 L 863.7,153.1 L 863.3,153.1 L 863.0,152.9 L 862.8,152.9 L 862.6,153.1 L 862.6,153.5 L 862.6,153.8 L 862.9,154.3 L 862.9,154.4 L 862.9,154.5 L 862.9,154.7 L 862.8,155.0 L 862.3,155.4 L 860.5,155.2 L 858.2,155.4 L 857.1,155.8 L 856.6,156.3 L 855.4,158.8 L 855.1,159.2 L 854.8,159.4 L 854.1,159.6 L 853.3,161.0 L 853.2,161.5 L 853.4,162.4 L 853.5,163.9 L 852.5,163.6 L 851.8,163.3 L 851.3,163.2 L 850.8,163.3 L 850.6,163.4 L 850.2,163.6 L 849.5,164.6 L 848.6,166.0 L 847.9,166.9 L 847.1,167.5 L 846.5,167.0 L 845.7,164.1 L 845.4,163.6 L 845.1,163.2 L 844.9,163.1 L 844.7,163.1 L 844.2,163.0 L 843.9,163.2 L 842.4,164.2 L 841.0,164.2 L 840.7,164.2 L 840.4,163.1 L 840.0,162.1 L 838.7,160.8 L 838.4,160.3 L 838.8,160.2 L 840.5,160.6 L 843.1,158.9 L 843.8,158.3 L 844.6,158.2 L 845.0,158.7 L 845.4,158.9 L 845.8,158.4 L 845.5,157.8 L 844.9,157.2 L 845.5,156.3 L 846.3,155.3 L 846.6,154.8 L 847.3,154.4 L 848.3,153.7 L 848.9,152.8 L 849.2,152.1 L 850.0,150.7 L 850.1,149.9 L 850.0,149.0 L 850.4,147.7 L 850.7,146.0 L 853.5,138.3 L 856.8,128.6 L 857.0,128.7 L 857.9,129.2 L 858.3,129.4 L 858.8,129.6 L 860.0,129.9 L 860.3,129.8 L 860.7,129.5 L 861.6,129.1 L 863.5,129.3 L 864.2,129.3 L 865.0,129.5 L 865.4,129.8 L 866.0,130.4 L 866.4,130.9 L 866.5,131.0 L 866.7,131.0 L 867.1,131.0 L 867.3,130.9 L 867.4,130.8 L 867.9,129.9 L 868.2,129.7 L 868.5,129.6 L 868.7,129.5 L 868.9,129.5 L 869.2,129.7 L 869.4,129.9 L 869.7,131.0 L 869.7,131.4 L 869.7,132.2 L 869.8,132.5 L 869.9,132.8 L 870.1,133.0 L 870.4,132.7 L 871.0,131.9 L 872.0,131.3 L 873.2,130.3 L 873.9,130.4 L 874.0,130.1 L 874.3,130.2 L 874.6,130.4 L 875.0,131.4 L 875.4,132.3 L 875.5,132.9 L 875.5,133.3 L 875.3,133.6 L 875.0,133.8 L 874.8,134.0 L 875.1,134.1 L 875.4,134.1 L 876.9,133.5 L 878.1,132.1 L 878.5,132.0 L 879.1,132.3 L 879.4,132.2 L 879.6,132.0 L 879.7,131.6 L 879.5,131.3 L 879.1,130.9 L 879.0,130.8 L 878.9,130.4 L 878.9,130.1 L 879.4,129.2 L 881.0,127.8 L 882.1,128.3 L 883.2,126.8 L 883.7,127.1 L 883.9,127.3 L 884.1,127.6 L 884.2,127.9 L 884.0,129.3 L 884.1,130.1 L 885.6,132.5 L 885.2,132.8 L 885.0,133.0 L 884.9,133.5 L 885.0,133.8 L 885.0,134.0 L 885.1,134.0 L 884.9,134.6 Z"/>
  <path id="Lisboa" d="M 856.1,188.2 L 855.7,188.2 L 855.3,188.3 L 855.3,188.0 L 855.0,187.4 L 854.6,186.5 L 854.3,185.5 L 854.6,184.8 L 853.8,184.9 L 853.4,184.1 L 853.2,183.0 L 852.8,181.9 L 854.4,178.6 L 855.3,177.1 L 856.6,176.2 L 857.3,176.0 L 858.9,175.9 L 859.6,175.6 L 860.9,174.6 L 860.9,174.8 L 860.8,175.0 L 860.6,175.1 L 859.9,176.0 L 858.5,176.4 L 858.7,176.8 L 859.0,177.1 L 858.3,178.2 L 858.2,178.6 L 857.8,179.1 L 857.4,179.9 L 856.2,183.3 L 855.7,184.3 L 855.4,184.7 L 854.9,185.3 L 854.9,185.8 L 855.5,186.6 L 855.6,186.8 L 855.8,187.1 L 856.1,188.2 Z M 860.8,174.0 L 859.2,175.2 L 856.1,175.6 L 855.6,176.0 L 854.9,177.3 L 853.1,179.8 L 851.1,183.8 L 850.0,185.1 L 849.6,185.8 L 849.4,186.5 L 849.5,187.4 L 849.6,189.0 L 849.7,190.1 L 849.2,191.2 L 847.3,191.7 L 845.3,192.1 L 842.9,191.9 L 842.3,192.4 L 841.6,193.2 L 840.2,192.3 L 838.6,191.6 L 837.7,191.5 L 836.2,191.7 L 835.4,191.5 L 835.5,190.5 L 835.7,189.7 L 835.2,187.7 L 835.2,186.7 L 835.4,186.3 L 835.9,185.7 L 836.8,184.8 L 837.9,181.1 L 837.8,178.2 L 837.4,176.5 L 837.8,175.4 L 837.9,174.2 L 839.4,171.6 L 839.8,170.3 L 840.5,168.6 L 840.7,166.9 L 840.9,165.4 L 840.7,164.2 L 841.0,164.2 L 842.4,164.2 L 843.9,163.2 L 844.2,163.0 L 844.7,163.1 L 844.9,163.1 L 845.1,163.2 L 845.4,163.6 L 845.7,164.1 L 846.5,167.0 L 847.1,167.5 L 847.9,166.9 L 848.6,166.0 L 849.5,164.6 L 850.2,163.6 L 850.6,163.4 L 850.8,163.3 L 851.3,163.2 L 851.8,163.3 L 852.5,163.6 L 853.5,163.9 L 853.9,165.0 L 853.8,165.7 L 856.3,166.4 L 857.8,166.0 L 858.1,166.7 L 859.9,168.5 L 859.4,168.9 L 858.8,169.1 L 857.8,169.0 L 857.3,169.2 L 856.8,169.6 L 856.8,169.8 L 857.0,170.1 L 857.3,170.2 L 857.5,170.4 L 857.8,171.0 L 857.9,171.3 L 859.0,172.3 L 859.2,172.5 L 860.0,172.8 L 860.2,173.0 L 860.4,173.1 L 860.5,173.4 L 860.8,174.0 Z M 851.8,184.0 L 852.0,183.9 L 852.0,184.2 L 851.8,184.9 L 851.3,185.6 L 850.6,186.3 L 850.4,186.2 L 850.7,185.4 L 851.0,184.7 L 851.4,184.3 L 851.7,184.1 L 851.8,184.0 Z"/>
  <path id="Madeira" d="M 741.03,206.20 L 740.48,205.32 L 740.36,205.15 L 740.27,204.98 L 740.19,204.82 L 740.19,204.57 L 740.44,204.82 L 740.73,205.24 L 740.94,205.74 L 741.03,206.20 Z M 736.41,202.68 L 736.16,203.22 L 735.53,203.43 L 734.78,203.47 L 733.56,203.39 L 731.04,202.34 L 730.46,201.96 L 729.95,201.50 L 729.53,201.00 L 729.41,200.66 L 729.36,200.37 L 729.45,200.08 L 729.70,199.99 L 729.78,199.91 L 730.16,199.36 L 730.29,199.28 L 730.41,199.28 L 730.50,199.28 L 730.67,199.36 L 730.83,199.49 L 731.21,199.91 L 731.38,199.99 L 731.46,199.99 L 731.80,200.12 L 732.18,200.37 L 732.60,200.41 L 733.01,200.29 L 733.31,200.12 L 733.52,199.99 L 733.85,199.95 L 734.44,199.87 L 734.69,199.95 L 735.15,200.29 L 735.32,200.37 L 736.12,200.96 L 736.29,201.08 L 736.45,201.13 L 737.04,201.13 L 737.34,201.21 L 737.59,201.38 L 737.71,201.25 L 737.88,201.21 L 738.05,201.25 L 738.18,201.38 L 737.92,201.42 L 737.38,201.67 L 737.21,201.71 L 737.00,201.88 L 736.54,202.51 L 736.41,202.68 Z M 743.25,195.96 L 743.04,196.22 L 742.87,196.38 L 742.66,196.43 L 742.37,196.26 L 742.37,196.13 L 742.54,196.13 L 742.62,196.05 L 742.75,195.92 L 742.92,195.34 L 743.21,195.08 L 743.59,195.00 L 743.92,195.17 L 744.01,195.00 L 744.01,195.55 L 744.09,195.76 L 744.22,195.88 L 743.71,195.80 L 743.46,195.80 L 743.25,195.96 Z M 747.99,249.92 L 748.08,249.96 L 748.08,250.00 L 747.99,250.00 L 747.99,249.92 Z M 750.47,247.82 L 750.64,247.94 L 750.64,248.07 L 750.55,248.15 L 750.51,248.15 L 750.38,248.11 L 750.34,248.07 L 750.34,248.03 L 750.34,247.99 L 750.47,247.82 Z"/>
  <path id="Portalegre" d="M 917.6,188.7 L 917.3,188.4 L 917.3,188.0 L 917.4,187.7 L 917.9,186.9 L 918.0,186.6 L 918.0,186.0 L 917.8,185.6 L 917.4,185.4 L 917.0,185.2 L 916.3,185.2 L 915.2,185.5 L 914.5,186.2 L 913.7,187.0 L 913.2,187.2 L 913.0,187.1 L 912.4,187.1 L 911.8,186.8 L 911.5,186.5 L 911.0,185.6 L 910.8,185.2 L 911.0,184.5 L 910.5,183.8 L 910.4,183.1 L 910.1,182.2 L 909.3,181.5 L 909.3,181.0 L 909.2,180.7 L 909.1,179.9 L 908.9,179.5 L 908.3,178.9 L 906.8,178.3 L 906.7,177.8 L 906.6,177.8 L 906.5,177.9 L 906.3,177.8 L 905.9,178.2 L 906.1,178.6 L 906.2,178.8 L 906.2,179.1 L 906.1,179.4 L 905.7,179.7 L 905.2,179.9 L 904.4,180.1 L 903.9,180.2 L 903.4,180.7 L 903.2,181.0 L 903.0,181.4 L 902.8,181.5 L 902.6,181.6 L 902.3,181.7 L 901.5,181.4 L 901.2,181.3 L 900.8,181.3 L 900.5,181.5 L 900.2,181.4 L 899.6,181.1 L 899.3,181.0 L 898.7,181.8 L 898.4,182.1 L 897.2,182.6 L 896.5,182.5 L 896.2,182.6 L 895.7,182.6 L 895.4,182.5 L 894.3,181.8 L 892.7,179.6 L 892.3,179.2 L 891.5,179.4 L 890.9,179.8 L 890.7,180.1 L 890.5,180.3 L 890.2,180.4 L 889.9,180.5 L 889.0,180.4 L 888.8,180.3 L 888.9,179.8 L 888.8,179.1 L 888.7,178.7 L 887.9,177.8 L 887.7,177.7 L 887.4,177.6 L 886.8,177.7 L 886.4,177.8 L 886.4,177.9 L 886.3,178.0 L 886.3,178.2 L 886.3,178.5 L 886.2,178.8 L 886.0,178.9 L 885.7,178.6 L 885.6,178.0 L 885.7,177.4 L 885.8,177.1 L 885.8,176.8 L 885.2,176.6 L 884.2,176.7 L 884.0,176.7 L 883.7,176.9 L 883.1,177.2 L 882.4,177.8 L 880.8,177.3 L 880.3,176.9 L 880.2,176.5 L 880.1,176.2 L 879.8,175.7 L 879.4,175.3 L 879.2,175.0 L 879.1,174.6 L 879.0,174.1 L 878.6,173.8 L 878.3,173.5 L 877.4,173.2 L 877.4,172.4 L 878.5,170.7 L 879.0,170.2 L 881.0,168.8 L 883.1,166.8 L 884.0,166.1 L 884.4,165.1 L 884.8,164.6 L 885.2,164.5 L 885.9,164.7 L 886.4,164.5 L 886.7,164.3 L 886.8,164.1 L 887.0,163.8 L 887.8,162.8 L 888.4,162.0 L 888.5,161.7 L 888.6,161.0 L 888.9,160.8 L 890.6,159.6 L 891.4,158.4 L 891.3,158.2 L 891.1,157.8 L 890.6,157.4 L 889.1,155.9 L 889.9,153.9 L 890.7,152.7 L 891.3,152.1 L 891.8,151.9 L 892.5,152.1 L 894.0,152.9 L 894.5,153.4 L 894.5,153.5 L 894.7,153.4 L 894.9,153.3 L 895.6,152.4 L 895.8,152.2 L 896.6,151.8 L 897.1,151.2 L 897.6,150.5 L 898.2,149.8 L 898.9,149.5 L 899.2,149.2 L 899.5,148.5 L 900.0,147.7 L 900.6,147.3 L 901.4,147.3 L 902.0,147.7 L 902.6,147.8 L 903.4,147.1 L 903.9,146.7 L 904.5,146.2 L 905.2,146.0 L 905.6,146.1 L 905.9,146.8 L 907.1,150.0 L 907.7,150.6 L 908.8,152.1 L 909.4,152.7 L 910.6,153.3 L 910.9,153.7 L 911.3,154.7 L 911.8,155.2 L 912.6,155.6 L 914.1,156.0 L 914.4,156.4 L 914.4,157.5 L 914.2,158.5 L 913.9,159.2 L 913.7,159.9 L 913.7,160.9 L 913.9,161.9 L 914.2,162.4 L 914.9,163.0 L 916.7,165.2 L 916.2,166.1 L 916.1,167.0 L 916.4,168.0 L 916.9,168.7 L 917.8,169.2 L 918.8,169.5 L 919.7,169.9 L 920.1,170.8 L 920.0,171.3 L 919.6,172.2 L 919.7,172.6 L 920.1,172.9 L 920.6,173.2 L 921.1,173.3 L 921.6,173.1 L 922.5,172.6 L 923.4,172.5 L 924.4,172.8 L 925.2,173.3 L 925.8,173.9 L 926.3,174.7 L 926.5,175.7 L 926.3,176.5 L 926.7,176.8 L 926.7,177.2 L 926.5,177.7 L 926.2,178.1 L 925.0,180.5 L 924.1,181.6 L 923.4,182.3 L 923.9,183.2 L 923.7,183.9 L 923.7,184.6 L 923.4,184.8 L 923.0,185.2 L 922.5,185.6 L 922.0,185.9 L 920.3,186.3 L 919.9,186.6 L 919.7,187.0 L 919.2,187.6 L 918.6,188.1 L 918.1,188.3 L 917.6,188.7 Z"/>
  <path id="Porto" d="M 890.4,65.4 L 891.0,66.1 L 891.0,66.6 L 891.0,67.0 L 891.3,67.4 L 891.8,67.7 L 892.8,68.4 L 892.6,69.1 L 892.8,69.8 L 893.4,70.9 L 893.9,71.2 L 894.0,71.3 L 893.5,73.3 L 893.5,74.4 L 893.3,75.6 L 891.7,76.6 L 887.3,78.1 L 886.2,78.2 L 882.6,78.0 L 881.4,78.2 L 879.0,79.2 L 878.8,79.7 L 878.7,79.9 L 877.0,81.1 L 876.2,80.8 L 875.3,81.3 L 875.3,81.5 L 875.3,81.8 L 875.5,82.1 L 875.5,82.4 L 875.4,82.6 L 875.1,82.6 L 874.4,82.1 L 874.2,81.6 L 874.0,81.3 L 873.3,80.5 L 872.6,81.3 L 872.5,81.5 L 872.2,82.2 L 872.0,82.4 L 871.6,82.4 L 871.1,82.1 L 870.8,81.8 L 870.4,81.7 L 870.0,81.7 L 869.4,82.1 L 868.3,82.5 L 867.7,82.1 L 866.1,82.3 L 865.8,82.4 L 865.8,81.7 L 865.3,78.5 L 865.4,76.8 L 866.0,76.2 L 866.0,75.9 L 864.7,75.5 L 864.0,74.2 L 863.5,72.5 L 862.8,71.2 L 863.0,70.5 L 862.9,70.0 L 862.7,69.5 L 862.5,68.9 L 862.5,67.4 L 862.4,66.9 L 862.1,66.8 L 862.0,66.3 L 861.8,65.8 L 861.3,64.9 L 861.1,64.2 L 861.1,63.6 L 861.0,62.2 L 861.4,60.7 L 862.3,60.7 L 863.1,61.2 L 864.1,61.6 L 865.0,61.7 L 865.3,61.8 L 865.6,62.1 L 865.9,62.3 L 866.5,63.0 L 867.0,63.3 L 867.4,63.4 L 867.8,63.7 L 867.9,64.0 L 867.8,64.3 L 867.6,64.4 L 867.2,64.5 L 866.9,64.9 L 867.0,65.2 L 867.1,65.9 L 867.3,66.2 L 867.6,66.4 L 867.7,66.4 L 868.1,66.3 L 870.1,66.3 L 870.4,66.2 L 870.7,66.1 L 871.0,65.9 L 871.3,65.7 L 871.9,65.3 L 872.6,65.1 L 873.0,65.1 L 873.3,65.2 L 873.5,65.4 L 874.4,65.6 L 875.6,65.3 L 877.0,65.1 L 877.3,65.2 L 877.8,65.5 L 878.1,65.5 L 878.9,65.2 L 879.2,65.1 L 880.3,64.6 L 881.0,64.1 L 881.6,63.2 L 883.4,63.9 L 884.1,64.7 L 884.2,64.9 L 884.2,65.4 L 885.5,66.4 L 886.6,66.9 L 887.0,66.8 L 887.8,67.2 L 888.2,67.6 L 888.6,67.5 L 888.8,67.4 L 889.1,67.2 L 889.3,67.0 L 889.5,66.8 L 889.7,66.6 L 889.9,66.5 L 890.1,66.3 L 890.2,66.1 L 890.3,65.9 L 890.4,65.4 Z"/>
  <path id="Santarém" d="M 882.4,177.8 L 882.1,178.4 L 881.8,178.6 L 881.3,178.6 L 881.2,178.6 L 881.0,178.9 L 880.9,179.4 L 880.9,180.1 L 880.8,180.6 L 880.6,181.0 L 880.4,181.3 L 880.2,181.6 L 880.1,181.9 L 880.2,182.2 L 880.4,182.5 L 880.7,182.7 L 882.6,183.5 L 883.0,183.6 L 883.2,183.7 L 883.4,184.1 L 883.2,184.9 L 883.1,185.2 L 883.4,185.6 L 884.0,186.3 L 884.2,186.3 L 884.6,186.4 L 884.8,186.7 L 884.8,187.1 L 884.6,187.8 L 884.0,188.4 L 883.4,188.0 L 883.3,187.8 L 883.1,187.2 L 882.9,187.1 L 882.7,187.2 L 882.5,187.1 L 882.4,186.9 L 882.3,186.7 L 882.2,186.4 L 882.0,186.1 L 881.6,186.0 L 880.4,185.8 L 880.1,185.5 L 879.2,184.5 L 878.9,184.3 L 878.7,184.3 L 878.5,184.5 L 878.4,184.7 L 878.2,184.9 L 878.0,184.8 L 877.7,184.8 L 877.3,185.0 L 876.8,184.9 L 876.2,184.7 L 875.9,184.7 L 875.8,184.9 L 875.8,185.2 L 875.6,185.5 L 875.4,185.6 L 875.2,185.7 L 875.0,185.8 L 874.5,185.8 L 874.2,185.9 L 873.4,186.6 L 873.0,186.9 L 871.4,187.2 L 869.7,188.7 L 868.8,188.5 L 868.4,188.6 L 868.0,188.5 L 867.6,187.9 L 867.5,187.5 L 867.6,187.1 L 867.6,186.8 L 867.6,186.4 L 867.7,186.1 L 867.7,185.9 L 867.5,185.8 L 866.9,186.0 L 866.2,186.5 L 865.2,186.1 L 864.7,185.8 L 864.5,185.6 L 864.3,185.5 L 864.0,185.6 L 863.0,187.7 L 862.5,189.0 L 862.4,189.3 L 861.9,190.0 L 861.3,190.2 L 861.0,190.2 L 860.0,189.9 L 859.7,189.4 L 859.4,189.3 L 859.0,189.2 L 858.4,189.4 L 858.0,189.6 L 857.3,189.9 L 856.8,189.9 L 856.5,189.8 L 856.2,189.5 L 856.0,188.8 L 856.1,188.2 L 855.8,187.1 L 855.6,186.8 L 855.5,186.6 L 854.9,185.8 L 854.9,185.3 L 855.4,184.7 L 855.7,184.3 L 856.2,183.3 L 857.4,179.9 L 857.8,179.1 L 858.2,178.6 L 858.3,178.2 L 859.0,177.1 L 858.7,176.8 L 858.5,176.4 L 859.9,176.0 L 860.6,175.1 L 860.8,175.0 L 860.9,174.8 L 860.9,174.6 L 861.4,174.0 L 861.8,173.3 L 860.8,174.0 L 860.5,173.4 L 860.4,173.1 L 860.2,173.0 L 860.0,172.8 L 859.2,172.5 L 859.0,172.3 L 857.9,171.3 L 857.8,171.0 L 857.5,170.4 L 857.3,170.2 L 857.0,170.1 L 856.8,169.8 L 856.8,169.6 L 857.3,169.2 L 857.8,169.0 L 858.8,169.1 L 859.4,168.9 L 859.9,168.5 L 858.1,166.7 L 857.8,166.0 L 856.3,166.4 L 853.8,165.7 L 853.9,165.0 L 853.5,163.9 L 853.4,162.4 L 853.2,161.5 L 853.3,161.0 L 854.1,159.6 L 854.8,159.4 L 855.1,159.2 L 855.4,158.8 L 856.6,156.3 L 857.1,155.8 L 858.2,155.4 L 860.5,155.2 L 862.3,155.4 L 862.8,155.0 L 862.9,154.7 L 862.9,154.5 L 862.9,154.4 L 862.9,154.3 L 862.6,153.8 L 862.6,153.5 L 862.6,153.1 L 862.8,152.9 L 863.0,152.9 L 863.3,153.1 L 863.7,153.1 L 864.0,153.0 L 864.9,151.8 L 865.1,151.4 L 864.7,150.1 L 864.7,149.3 L 864.3,147.8 L 865.1,147.2 L 865.5,147.0 L 865.7,146.7 L 866.0,146.5 L 866.2,146.0 L 866.0,145.3 L 865.7,144.9 L 865.4,144.7 L 865.2,144.4 L 865.1,144.1 L 865.1,143.5 L 865.0,142.7 L 865.0,142.3 L 865.2,141.9 L 865.4,141.6 L 867.0,140.8 L 867.7,141.0 L 868.1,140.9 L 868.8,140.6 L 870.6,139.3 L 871.1,139.1 L 871.4,139.1 L 871.9,138.7 L 872.4,138.6 L 872.9,140.5 L 873.0,141.1 L 873.3,142.2 L 873.3,142.6 L 873.4,142.8 L 873.5,143.0 L 874.1,142.8 L 875.6,142.3 L 876.1,142.2 L 876.9,141.8 L 877.6,141.9 L 877.8,141.8 L 877.6,140.9 L 877.6,140.5 L 877.6,140.3 L 877.9,140.4 L 879.4,140.6 L 879.6,141.3 L 880.0,141.5 L 880.5,141.7 L 880.9,141.9 L 881.1,142.1 L 881.2,142.4 L 881.3,142.6 L 881.3,142.9 L 881.2,143.1 L 881.3,143.9 L 881.1,144.4 L 881.1,145.3 L 881.2,147.0 L 881.5,147.6 L 883.5,148.4 L 884.5,149.0 L 885.2,149.0 L 886.5,148.9 L 887.3,148.6 L 887.3,148.4 L 887.2,148.1 L 887.0,147.3 L 886.9,146.8 L 887.1,146.2 L 887.4,145.7 L 887.8,143.3 L 888.0,143.0 L 888.7,142.8 L 889.9,143.2 L 890.8,143.3 L 891.0,143.5 L 891.1,143.8 L 891.2,144.1 L 891.2,144.5 L 891.2,144.8 L 891.3,145.5 L 891.2,146.2 L 891.3,146.6 L 891.6,146.8 L 892.0,146.9 L 892.4,146.9 L 893.1,147.2 L 893.7,147.6 L 894.3,148.1 L 895.1,148.9 L 895.8,150.1 L 896.0,150.5 L 896.3,151.3 L 896.6,151.8 L 895.8,152.2 L 895.6,152.4 L 894.9,153.3 L 894.7,153.4 L 894.5,153.5 L 894.5,153.4 L 894.0,152.9 L 892.5,152.1 L 891.8,151.9 L 891.3,152.1 L 890.7,152.7 L 889.9,153.9 L 889.1,155.9 L 890.6,157.4 L 891.1,157.8 L 891.3,158.2 L 891.4,158.4 L 890.6,159.6 L 888.9,160.8 L 888.6,161.0 L 888.5,161.7 L 888.4,162.0 L 887.8,162.8 L 887.0,163.8 L 886.8,164.1 L 886.7,164.3 L 886.4,164.5 L 885.9,164.7 L 885.2,164.5 L 884.8,164.6 L 884.4,165.1 L 884.0,166.1 L 883.1,166.8 L 881.0,168.8 L 879.0,170.2 L 878.5,170.7 L 877.4,172.4 L 877.4,173.2 L 878.3,173.5 L 878.6,173.8 L 879.0,174.1 L 879.1,174.6 L 879.2,175.0 L 879.4,175.3 L 879.8,175.7 L 880.1,176.2 L 880.2,176.5 L 880.3,176.9 L 880.8,177.3 L 882.4,177.8 Z"/>
  <path id="Setúbal" d="M 869.7,188.7 L 871.2,189.0 L 871.4,189.1 L 871.5,189.6 L 871.1,190.3 L 871.2,190.6 L 871.1,191.2 L 870.8,191.7 L 870.2,192.4 L 867.2,194.5 L 865.9,196.2 L 865.9,196.5 L 865.9,197.0 L 866.1,197.3 L 866.2,197.6 L 866.4,198.8 L 867.5,198.9 L 868.9,199.8 L 869.9,199.9 L 870.8,200.2 L 871.0,200.1 L 871.1,199.8 L 871.0,199.5 L 870.9,199.3 L 871.1,199.1 L 871.4,199.2 L 871.7,199.3 L 871.8,199.6 L 872.0,199.8 L 872.3,200.0 L 872.8,200.2 L 873.8,200.2 L 874.3,200.0 L 875.2,199.4 L 875.8,199.3 L 876.2,199.4 L 876.9,200.3 L 877.3,200.8 L 877.5,201.1 L 877.6,201.3 L 877.6,201.6 L 878.1,202.8 L 878.1,203.1 L 877.9,203.3 L 877.9,203.5 L 878.1,203.8 L 878.6,204.0 L 878.9,204.2 L 879.1,204.6 L 878.9,205.4 L 878.3,206.4 L 878.3,206.8 L 878.6,206.9 L 879.3,207.2 L 879.8,207.6 L 880.6,208.1 L 880.9,208.2 L 881.3,208.2 L 881.6,208.2 L 882.3,208.5 L 883.6,209.5 L 884.5,211.5 L 884.8,212.6 L 884.8,213.1 L 884.8,213.4 L 884.6,213.9 L 883.3,214.3 L 882.7,214.6 L 881.4,214.9 L 881.1,215.0 L 881.0,215.5 L 880.8,215.9 L 879.5,215.9 L 879.2,216.1 L 879.1,216.3 L 879.0,216.7 L 878.8,217.5 L 878.5,217.7 L 878.3,217.6 L 878.0,217.4 L 877.6,217.2 L 877.4,217.3 L 877.2,217.5 L 876.9,217.6 L 876.8,217.8 L 876.8,218.0 L 876.8,218.2 L 876.7,218.4 L 876.6,218.9 L 876.5,219.0 L 876.4,219.2 L 876.2,219.2 L 876.0,219.2 L 875.8,219.1 L 875.5,219.1 L 875.3,219.5 L 875.2,219.8 L 875.1,220.1 L 875.1,220.4 L 875.0,220.7 L 875.0,220.9 L 875.1,221.2 L 875.2,221.6 L 875.9,222.2 L 876.5,222.8 L 876.9,223.1 L 877.3,223.2 L 877.8,223.2 L 878.3,223.6 L 878.5,224.0 L 878.9,225.0 L 878.9,226.3 L 878.7,228.4 L 878.3,229.6 L 878.1,229.9 L 877.6,231.2 L 876.5,230.6 L 876.4,230.6 L 875.4,230.6 L 873.8,230.3 L 870.6,230.9 L 870.0,231.2 L 869.6,231.5 L 869.5,231.9 L 869.4,232.2 L 868.7,232.9 L 868.6,233.2 L 868.2,234.2 L 868.2,234.6 L 868.1,234.9 L 867.9,235.2 L 867.3,235.5 L 866.9,235.4 L 866.3,235.2 L 866.0,234.9 L 865.7,234.8 L 865.4,234.7 L 865.2,234.8 L 865.1,235.1 L 864.9,235.3 L 864.7,235.3 L 864.6,235.1 L 864.2,234.5 L 863.3,233.3 L 863.2,233.1 L 862.9,232.7 L 862.3,232.5 L 862.0,232.6 L 861.7,232.8 L 861.5,232.9 L 861.2,232.9 L 861.0,232.8 L 860.8,232.5 L 860.5,232.1 L 860.6,231.3 L 860.6,229.8 L 860.3,228.7 L 859.8,227.5 L 858.6,227.3 L 857.1,226.4 L 857.2,226.0 L 857.5,225.8 L 857.8,225.7 L 858.1,225.4 L 859.9,221.3 L 860.6,218.0 L 861.4,215.6 L 861.3,213.1 L 861.0,210.2 L 860.7,207.6 L 859.8,205.8 L 858.8,204.8 L 857.7,203.4 L 856.4,202.4 L 855.3,202.0 L 855.9,201.4 L 856.7,201.7 L 858.1,202.9 L 859.7,203.5 L 860.5,203.9 L 860.6,204.5 L 862.1,204.5 L 865.7,205.4 L 867.5,204.9 L 866.4,204.8 L 865.5,204.6 L 862.8,203.3 L 862.5,202.9 L 862.3,202.3 L 862.2,201.7 L 862.3,201.1 L 862.5,200.6 L 862.8,200.4 L 862.8,200.1 L 862.3,199.9 L 861.9,199.3 L 861.8,198.7 L 862.0,198.2 L 861.5,198.1 L 860.8,199.5 L 860.0,199.8 L 860.0,200.1 L 860.9,200.2 L 861.2,200.8 L 861.2,201.6 L 860.9,202.0 L 860.1,201.9 L 859.3,201.7 L 858.1,201.0 L 856.7,200.5 L 854.9,200.9 L 853.3,202.8 L 853.6,203.0 L 851.5,203.8 L 848.0,204.3 L 847.2,204.6 L 846.7,205.0 L 846.0,205.1 L 845.1,204.9 L 844.9,204.9 L 844.8,204.6 L 844.8,204.3 L 844.9,204.0 L 845.0,203.9 L 845.3,203.5 L 846.4,202.4 L 846.6,200.9 L 846.6,198.7 L 845.7,196.6 L 844.6,194.8 L 844.1,193.4 L 844.8,193.1 L 846.5,192.8 L 848.0,192.7 L 848.8,193.2 L 849.1,193.7 L 849.4,193.7 L 849.1,192.8 L 849.7,192.5 L 850.8,192.2 L 851.4,192.1 L 851.4,191.8 L 851.9,191.2 L 852.5,190.6 L 853.5,189.8 L 854.8,188.7 L 855.0,188.6 L 855.2,188.4 L 855.3,188.3 L 855.7,188.2 L 856.1,188.2 L 856.0,188.8 L 856.2,189.5 L 856.5,189.8 L 856.8,189.9 L 857.3,189.9 L 858.0,189.6 L 858.4,189.4 L 859.0,189.2 L 859.4,189.3 L 859.7,189.4 L 860.0,189.9 L 861.0,190.2 L 861.3,190.2 L 861.9,190.0 L 862.4,189.3 L 862.5,189.0 L 863.0,187.7 L 864.0,185.6 L 864.3,185.5 L 864.5,185.6 L 864.7,185.8 L 865.2,186.1 L 866.2,186.5 L 866.9,186.0 L 867.5,185.8 L 867.7,185.9 L 867.7,186.1 L 867.6,186.4 L 867.6,186.8 L 867.6,187.1 L 867.5,187.5 L 867.6,187.9 L 868.0,188.5 L 868.4,188.6 L 868.8,188.5 L 869.7,188.7 Z"/>
  <path id="Viana do Castelo" d="M 883.0,43.9 L 882.9,44.0 L 882.4,44.0 L 879.0,45.9 L 878.1,46.2 L 874.9,46.3 L 874.4,46.5 L 873.9,46.7 L 873.6,46.9 L 873.0,47.4 L 872.3,47.7 L 872.1,47.6 L 871.8,47.6 L 871.5,47.6 L 871.3,47.8 L 871.0,48.1 L 870.9,48.4 L 870.8,48.8 L 870.7,49.6 L 870.7,49.9 L 870.6,50.2 L 870.2,50.6 L 870.1,50.9 L 870.0,51.2 L 870.1,51.7 L 869.5,52.9 L 869.3,52.8 L 868.9,52.7 L 868.5,52.5 L 867.8,52.4 L 866.7,52.0 L 866.4,51.8 L 866.3,51.9 L 866.1,52.1 L 865.9,52.4 L 865.5,52.4 L 863.7,52.5 L 861.0,53.5 L 860.7,53.5 L 860.0,53.4 L 859.8,53.4 L 859.8,52.8 L 859.5,51.9 L 859.4,50.8 L 859.5,50.2 L 860.3,49.9 L 862.6,49.5 L 863.2,49.3 L 863.8,48.8 L 864.3,48.3 L 860.3,49.5 L 859.4,49.7 L 859.0,49.6 L 858.3,49.2 L 857.6,47.6 L 857.6,46.2 L 857.9,44.0 L 857.7,42.6 L 857.8,42.1 L 858.1,41.7 L 860.6,39.5 L 861.9,38.1 L 862.3,36.3 L 862.7,36.0 L 863.5,35.6 L 864.5,35.3 L 865.2,34.8 L 865.5,34.3 L 865.9,33.3 L 866.2,32.8 L 866.8,32.3 L 867.4,32.2 L 868.7,32.1 L 869.4,31.9 L 870.7,31.0 L 871.3,30.7 L 876.9,29.8 L 877.6,29.5 L 878.5,28.7 L 878.8,28.5 L 879.1,28.4 L 879.7,28.4 L 880.4,28.1 L 881.5,27.3 L 881.8,27.8 L 882.1,28.5 L 882.0,30.6 L 882.1,31.4 L 882.6,31.8 L 883.1,31.6 L 883.8,31.3 L 884.5,31.2 L 885.2,31.5 L 885.8,32.1 L 886.1,32.8 L 886.0,33.7 L 885.6,34.3 L 885.0,34.8 L 884.0,35.4 L 882.9,36.5 L 881.5,38.6 L 881.2,39.4 L 881.1,40.4 L 881.5,41.2 L 882.8,41.7 L 883.1,42.1 L 883.2,42.8 L 883.0,43.9 Z"/>
  <path id="Vila Real" d="M 918.2,40.2 L 918.2,40.5 L 918.5,41.4 L 918.4,41.9 L 918.3,42.9 L 918.4,43.8 L 918.5,44.2 L 918.8,45.1 L 919.5,46.0 L 919.5,46.4 L 919.5,47.1 L 919.4,47.4 L 919.2,47.7 L 919.0,47.8 L 918.7,48.1 L 917.8,50.0 L 916.6,54.0 L 916.5,55.3 L 916.5,56.0 L 916.6,56.4 L 916.8,56.7 L 917.0,57.0 L 917.1,57.3 L 917.2,57.6 L 917.1,57.9 L 916.8,58.0 L 916.5,58.1 L 916.2,58.1 L 915.8,58.3 L 915.5,58.7 L 915.0,59.5 L 914.8,60.3 L 914.5,60.7 L 914.1,60.9 L 913.8,61.0 L 912.6,61.9 L 912.6,64.3 L 912.8,65.3 L 913.1,65.9 L 913.4,66.3 L 914.3,66.8 L 913.0,67.2 L 912.4,67.9 L 912.3,68.4 L 912.4,68.7 L 912.3,68.9 L 911.9,69.3 L 911.6,69.7 L 911.5,70.4 L 911.4,70.8 L 911.5,71.1 L 911.5,71.3 L 911.4,71.4 L 910.9,71.5 L 910.5,71.7 L 910.4,71.9 L 910.3,72.2 L 910.1,72.8 L 905.8,74.4 L 904.1,74.6 L 902.6,74.5 L 902.5,74.5 L 901.9,74.5 L 901.4,74.8 L 900.3,75.5 L 899.7,75.8 L 899.0,75.9 L 898.3,75.8 L 897.7,75.7 L 897.3,75.3 L 896.4,74.5 L 895.9,74.2 L 895.2,74.3 L 893.3,75.6 L 893.5,74.4 L 893.5,73.3 L 894.0,71.3 L 893.9,71.2 L 893.4,70.9 L 892.8,69.8 L 892.6,69.1 L 892.8,68.4 L 891.8,67.7 L 891.3,67.4 L 891.0,67.0 L 891.0,66.6 L 891.0,66.1 L 890.4,65.4 L 890.7,64.5 L 890.7,64.3 L 890.6,63.9 L 890.7,63.8 L 890.8,63.7 L 891.0,63.6 L 891.1,63.2 L 891.6,62.4 L 891.7,62.0 L 891.8,61.8 L 891.6,61.4 L 891.9,60.3 L 892.3,59.8 L 892.5,59.7 L 892.6,59.7 L 892.9,59.7 L 893.3,59.4 L 893.5,58.8 L 893.6,58.7 L 894.3,58.3 L 894.7,57.9 L 896.2,55.7 L 896.3,55.1 L 895.7,54.0 L 895.5,53.8 L 895.1,53.6 L 894.4,54.4 L 893.3,54.8 L 892.8,54.7 L 891.4,54.4 L 891.1,54.3 L 890.7,54.1 L 890.3,54.0 L 889.6,53.7 L 889.7,51.5 L 889.8,51.1 L 889.9,50.5 L 889.8,50.2 L 889.7,50.0 L 888.7,49.4 L 888.5,49.3 L 888.2,49.3 L 887.6,49.6 L 887.3,49.6 L 887.0,49.6 L 886.7,49.6 L 886.4,49.6 L 886.2,49.7 L 885.7,49.8 L 885.2,49.8 L 886.1,48.8 L 886.2,48.5 L 886.4,48.1 L 886.8,47.0 L 887.1,46.4 L 887.4,45.0 L 887.5,44.7 L 887.7,44.4 L 887.8,44.1 L 887.8,43.9 L 887.7,43.8 L 887.8,43.7 L 888.9,42.5 L 889.3,41.9 L 889.7,41.4 L 890.3,41.2 L 890.8,41.3 L 891.5,41.3 L 891.9,40.7 L 892.0,39.8 L 892.2,39.3 L 892.9,39.0 L 893.0,40.3 L 893.3,41.7 L 894.4,41.7 L 894.7,41.4 L 894.8,41.1 L 895.0,40.9 L 895.3,40.7 L 896.3,40.8 L 898.6,40.2 L 899.6,39.7 L 900.2,39.9 L 901.2,40.6 L 901.8,40.9 L 903.7,41.0 L 903.2,42.5 L 903.2,43.0 L 903.8,43.3 L 904.4,43.4 L 905.2,43.2 L 905.9,43.0 L 906.5,42.6 L 906.7,42.2 L 906.7,41.9 L 906.8,41.6 L 907.1,41.4 L 907.3,41.4 L 907.9,41.8 L 908.2,41.8 L 908.7,42.0 L 909.2,42.6 L 909.6,43.5 L 909.7,44.3 L 910.2,43.8 L 911.1,42.8 L 911.6,42.5 L 912.1,42.4 L 913.4,42.4 L 914.1,42.3 L 916.6,41.4 L 917.8,40.7 L 918.2,40.2 Z"/>
  <path id="Viseu" d="M 914.9,75.5 L 913.9,78.7 L 913.6,80.1 L 913.5,81.0 L 913.7,82.3 L 913.2,82.6 L 912.3,82.5 L 912.2,82.7 L 912.3,83.0 L 912.5,83.6 L 912.8,83.8 L 913.2,84.1 L 913.5,84.2 L 913.7,84.5 L 913.7,84.8 L 913.7,85.4 L 913.4,86.2 L 912.2,87.3 L 910.9,86.9 L 910.4,87.2 L 910.6,88.1 L 910.7,88.4 L 910.8,88.9 L 910.8,89.4 L 910.0,91.3 L 909.6,91.9 L 909.0,91.8 L 908.8,91.5 L 908.6,91.3 L 907.3,90.0 L 906.8,89.6 L 906.4,89.4 L 905.5,89.4 L 905.1,89.6 L 904.8,89.9 L 904.7,90.1 L 904.3,91.4 L 903.9,92.1 L 903.5,92.7 L 903.3,93.0 L 903.4,93.4 L 903.7,93.7 L 904.6,94.5 L 904.8,94.8 L 904.9,95.1 L 904.9,95.4 L 904.8,95.7 L 904.4,96.2 L 904.8,96.9 L 905.6,97.4 L 906.2,98.3 L 906.0,99.5 L 905.5,100.1 L 904.7,102.7 L 904.8,103.7 L 902.4,104.1 L 900.9,104.7 L 899.7,105.5 L 898.7,105.9 L 897.7,106.6 L 897.3,106.7 L 896.2,106.9 L 895.9,107.2 L 895.1,107.4 L 894.7,107.7 L 894.3,108.2 L 893.1,109.1 L 892.2,110.5 L 891.6,110.8 L 890.0,111.9 L 888.0,112.8 L 885.3,114.8 L 883.2,114.5 L 881.7,114.8 L 881.5,114.9 L 881.4,115.1 L 881.4,115.3 L 881.3,115.5 L 881.2,115.7 L 881.0,115.7 L 880.7,115.4 L 880.1,115.1 L 879.5,114.6 L 878.7,114.0 L 877.6,113.7 L 877.2,113.4 L 876.8,113.2 L 876.7,111.8 L 877.7,110.1 L 877.9,109.7 L 877.9,109.1 L 877.5,108.5 L 877.4,108.1 L 877.5,107.9 L 878.3,107.2 L 880.3,106.4 L 879.9,105.7 L 879.7,105.4 L 879.4,105.2 L 879.2,104.9 L 879.0,104.0 L 878.6,103.0 L 878.6,102.6 L 878.8,102.3 L 879.0,102.0 L 880.5,101.5 L 879.9,101.0 L 879.2,100.7 L 879.1,100.6 L 878.8,99.9 L 878.8,98.6 L 878.7,98.3 L 878.4,97.9 L 877.9,97.3 L 877.8,97.0 L 877.7,96.7 L 877.7,96.5 L 877.7,96.3 L 878.1,95.7 L 878.9,95.0 L 879.8,94.0 L 880.5,92.4 L 880.8,91.9 L 880.9,91.6 L 880.5,90.1 L 881.6,90.0 L 881.9,90.2 L 882.3,90.2 L 882.7,90.2 L 883.4,89.8 L 883.8,89.8 L 884.1,89.9 L 884.4,90.2 L 884.7,90.3 L 885.0,90.3 L 885.3,90.2 L 885.5,89.9 L 885.5,89.3 L 885.2,88.5 L 885.0,87.2 L 884.9,86.6 L 884.8,86.3 L 885.0,85.7 L 885.1,85.2 L 886.3,83.5 L 886.3,83.3 L 886.4,83.2 L 886.4,83.1 L 886.3,82.9 L 886.2,82.7 L 886.0,82.7 L 885.5,83.1 L 885.4,83.2 L 885.3,83.4 L 885.0,84.0 L 884.5,84.1 L 884.1,84.1 L 881.4,82.8 L 881.4,81.7 L 881.4,81.4 L 881.3,80.9 L 881.2,80.6 L 879.0,79.2 L 881.4,78.2 L 882.6,78.0 L 886.2,78.2 L 887.3,78.1 L 891.7,76.6 L 893.3,75.6 L 895.2,74.3 L 895.9,74.2 L 896.4,74.5 L 897.3,75.3 L 897.7,75.7 L 898.3,75.8 L 899.0,75.9 L 899.7,75.8 L 900.3,75.5 L 901.4,74.8 L 901.9,74.5 L 902.5,74.5 L 902.6,74.5 L 904.1,74.6 L 905.8,74.4 L 910.1,72.8 L 910.6,72.8 L 911.2,73.2 L 912.3,74.8 L 912.7,75.2 L 913.9,75.6 L 914.9,75.5 Z"/>
  <path id="Évora" d="M 917.6,188.7 L 916.0,190.1 L 915.9,190.3 L 915.6,190.9 L 915.5,191.2 L 915.2,192.8 L 915.1,193.8 L 915.2,194.3 L 915.2,194.7 L 915.4,195.0 L 915.6,195.1 L 915.8,195.3 L 916.0,195.6 L 915.8,196.3 L 914.2,198.5 L 913.6,200.8 L 913.2,201.4 L 913.7,202.0 L 913.6,202.5 L 913.3,203.0 L 912.7,203.6 L 913.2,203.8 L 914.3,204.6 L 918.1,209.5 L 918.3,209.8 L 918.5,210.4 L 918.6,210.7 L 918.9,211.0 L 919.5,211.4 L 919.7,211.6 L 921.2,215.4 L 921.5,215.7 L 921.4,215.8 L 921.1,216.0 L 920.8,216.1 L 920.2,216.0 L 919.8,215.7 L 919.5,215.4 L 919.2,214.7 L 919.1,214.4 L 918.7,213.5 L 918.6,213.1 L 918.5,212.8 L 918.3,212.6 L 917.4,212.2 L 916.6,211.4 L 916.5,211.1 L 916.4,210.8 L 916.3,210.4 L 916.2,210.1 L 916.0,209.8 L 915.8,209.6 L 915.8,209.5 L 915.7,209.2 L 915.7,209.1 L 915.6,208.9 L 915.3,208.9 L 915.0,208.9 L 914.1,209.3 L 913.9,209.3 L 913.6,209.4 L 912.4,210.0 L 911.2,210.4 L 911.2,210.7 L 911.2,211.0 L 911.0,211.4 L 910.7,211.8 L 910.4,212.1 L 910.2,212.3 L 909.7,212.6 L 909.6,212.8 L 908.6,213.3 L 908.0,214.0 L 907.5,214.7 L 907.4,215.0 L 907.0,215.1 L 905.4,215.1 L 904.6,214.8 L 903.9,214.7 L 901.5,214.6 L 901.0,214.5 L 898.7,213.2 L 897.7,212.8 L 895.9,212.6 L 892.8,211.2 L 892.0,210.2 L 890.9,209.8 L 890.6,209.7 L 890.2,209.7 L 889.4,210.1 L 889.1,210.1 L 888.8,210.0 L 888.4,209.7 L 888.0,209.2 L 887.8,209.2 L 887.3,209.1 L 886.5,209.2 L 883.8,209.1 L 883.6,209.5 L 882.3,208.5 L 881.6,208.2 L 881.3,208.2 L 880.9,208.2 L 880.6,208.1 L 879.8,207.6 L 879.3,207.2 L 878.6,206.9 L 878.3,206.8 L 878.3,206.4 L 878.9,205.4 L 879.1,204.6 L 878.9,204.2 L 878.6,204.0 L 878.1,203.8 L 877.9,203.5 L 877.9,203.3 L 878.1,203.1 L 878.1,202.8 L 877.6,201.6 L 877.6,201.3 L 877.5,201.1 L 877.3,200.8 L 876.9,200.3 L 876.2,199.4 L 875.8,199.3 L 875.2,199.4 L 874.3,200.0 L 873.8,200.2 L 872.8,200.2 L 872.3,200.0 L 872.0,199.8 L 871.8,199.6 L 871.7,199.3 L 871.4,199.2 L 871.1,199.1 L 870.9,199.3 L 871.0,199.5 L 871.1,199.8 L 871.0,200.1 L 870.8,200.2 L 869.9,199.9 L 868.9,199.8 L 867.5,198.9 L 866.4,198.8 L 866.2,197.6 L 866.1,197.3 L 865.9,197.0 L 865.9,196.5 L 865.9,196.2 L 867.2,194.5 L 870.2,192.4 L 870.8,191.7 L 871.1,191.2 L 871.2,190.6 L 871.1,190.3 L 871.5,189.6 L 871.4,189.1 L 871.2,189.0 L 869.7,188.7 L 871.4,187.2 L 873.0,186.9 L 873.4,186.6 L 874.2,185.9 L 874.5,185.8 L 875.0,185.8 L 875.2,185.7 L 875.4,185.6 L 875.6,185.5 L 875.8,185.2 L 875.8,184.9 L 875.9,184.7 L 876.2,184.7 L 876.8,184.9 L 877.3,185.0 L 877.7,184.8 L 878.0,184.8 L 878.2,184.9 L 878.4,184.7 L 878.5,184.5 L 878.7,184.3 L 878.9,184.3 L 879.2,184.5 L 880.1,185.5 L 880.4,185.8 L 881.6,186.0 L 882.0,186.1 L 882.2,186.4 L 882.3,186.7 L 882.4,186.9 L 882.5,187.1 L 882.7,187.2 L 882.9,187.1 L 883.1,187.2 L 883.3,187.8 L 883.4,188.0 L 884.0,188.4 L 884.6,187.8 L 884.8,187.1 L 884.8,186.7 L 884.6,186.4 L 884.2,186.3 L 884.0,186.3 L 883.4,185.6 L 883.1,185.2 L 883.2,184.9 L 883.4,184.1 L 883.2,183.7 L 883.0,183.6 L 882.6,183.5 L 880.7,182.7 L 880.4,182.5 L 880.2,182.2 L 880.1,181.9 L 880.2,181.6 L 880.4,181.3 L 880.6,181.0 L 880.8,180.6 L 880.9,180.1 L 880.9,179.4 L 881.0,178.9 L 881.2,178.6 L 881.3,178.6 L 881.8,178.6 L 882.1,178.4 L 882.4,177.8 L 883.1,177.2 L 883.7,176.9 L 884.0,176.7 L 884.2,176.7 L 885.2,176.6 L 885.8,176.8 L 885.8,177.1 L 885.7,177.4 L 885.6,178.0 L 885.7,178.6 L 886.0,178.9 L 886.2,178.8 L 886.3,178.5 L 886.3,178.2 L 886.3,178.0 L 886.4,177.9 L 886.4,177.8 L 886.8,177.7 L 887.4,177.6 L 887.7,177.7 L 887.9,177.8 L 888.7,178.7 L 888.8,179.1 L 888.9,179.8 L 888.8,180.3 L 889.0,180.4 L 889.9,180.5 L 890.2,180.4 L 890.5,180.3 L 890.7,180.1 L 890.9,179.8 L 891.5,179.4 L 892.3,179.2 L 892.7,179.6 L 894.3,181.8 L 895.4,182.5 L 895.7,182.6 L 896.2,182.6 L 896.5,182.5 L 897.2,182.6 L 898.4,182.1 L 898.7,181.8 L 899.3,181.0 L 899.6,181.1 L 900.2,181.4 L 900.5,181.5 L 900.8,181.3 L 901.2,181.3 L 901.5,181.4 L 902.3,181.7 L 902.6,181.6 L 902.8,181.5 L 903.0,181.4 L 903.2,181.0 L 903.4,180.7 L 903.9,180.2 L 904.4,180.1 L 905.2,179.9 L 905.7,179.7 L 906.1,179.4 L 906.2,179.1 L 906.2,178.8 L 906.1,178.6 L 905.9,178.2 L 906.3,177.8 L 906.5,177.9 L 906.6,177.8 L 906.7,177.8 L 906.8,178.3 L 908.3,178.9 L 908.9,179.5 L 909.1,179.9 L 909.2,180.7 L 909.3,181.0 L 909.3,181.5 L 910.1,182.2 L 910.4,183.1 L 910.5,183.8 L 911.0,184.5 L 910.8,185.2 L 911.0,185.6 L 911.5,186.5 L 911.8,186.8 L 912.4,187.1 L 913.0,187.1 L 913.2,187.2 L 913.7,187.0 L 914.5,186.2 L 915.2,185.5 L 916.3,185.2 L 917.0,185.2 L 917.4,185.4 L 917.8,185.6 L 918.0,186.0 L 918.0,186.6 L 917.9,186.9 L 917.4,187.7 L 917.3,188.0 L 917.3,188.4 L 917.6,188.7 Z"/>
  <path id="__azores_border" d="M 697.0,119.6 L 773.0,119.6 L 773.0,165.4 L 697.0,165.4 Z M 697.4,120.0 L 697.4,165.0 L 772.6,165.0 L 772.6,120.0 Z"/>
  <path id="__madeira_border" d="M 726.4,192.0 L 753.6,192.0 L 753.6,253.0 L 726.4,253.0 Z M 726.8,192.4 L 726.8,252.6 L 753.2,252.6 L 753.2,192.4 Z"/>
</svg>
