<?xml version="1.0" encoding="UTF-8"?>
<svg xmlns="http://www.w3.org/2000/svg" viewBox="0 0 1000 601">
  <path id="Aveiro" d="M 876.8,113.2 L 876.5,113.6 L 876.5,114.0 L 876.1,114.5 L 875.3,114.5 L 875.0,114.6 L 874.7,114.9 L 874.5,115.3 L 873.7,116.4 L 873.5,116.8 L 873.2,117.1 L 872.9,117.3 L 870.8,117.1 L 870.6,116.8 L 870.5,116.5 L 870.5,116.1 L 870.6,115.6 L 870.9,114.9 L 871.1,114.6 L 871.3,114.4 L 871.4,114.3 L 871.6,114.1 L 871.7,114.0 L 871.8,113.3 L 871.9,113.0 L 871.8,112.7 L 871.4,111.9 L 871.2,110.9 L 870.8,111.0 L 870.2,111.2 L 869.6,111.6 L 869.3,111.8 L 869.0,111.7 L 868.8,111.3 L 868.6,110.5 L 868.6,110.0 L 868.8,108.9 L 867.4,107.9 L 866.7,109.1 L 866.5,109.9 L 866.2,110.4 L 865.0,110.2 L 861.0,106.1 L 861.0,106.0 L 861.1,105.4 L 861.8,103.2 L 862.2,100.4 L 862.3,100.3 L 862.5,100.1 L 862.5,101.1 L 862.5,101.4 L 863.2,100.2 L 863.8,99.8 L 864.3,100.1 L 864.5,100.1 L 864.5,99.8 L 864.4,99.7 L 864.3,99.4 L 864.2,99.1 L 864.3,98.8 L 864.6,98.6 L 864.8,98.8 L 865.0,99.0 L 865.2,99.2 L 865.5,99.0 L 865.8,98.7 L 866.3,97.9 L 865.7,97.5 L 865.4,96.9 L 865.5,96.4 L 866.1,96.2 L 867.0,96.1 L 867.6,95.9 L 868.2,95.5 L 868.8,94.9 L 868.1,95.0 L 867.2,95.4 L 866.5,95.6 L 866.3,95.7 L 866.1,95.7 L 865.3,95.3 L 865.0,94.9 L 864.7,93.6 L 866.1,91.7 L 865.8,90.6 L 865.7,91.4 L 865.5,92.1 L 865.2,92.3 L 865.0,91.6 L 864.5,92.6 L 864.1,93.8 L 863.9,95.2 L 863.8,96.4 L 863.6,97.1 L 863.2,98.3 L 862.7,99.3 L 862.3,99.8 L 865.8,83.5 L 865.8,82.4 L 866.1,82.3 L 867.7,82.1 L 868.3,82.5 L 869.4,82.1 L 870.0,81.7 L 870.4,81.7 L 870.8,81.8 L 871.1,82.1 L 871.6,82.4 L 872.0,82.4 L 872.2,82.2 L 872.5,81.5 L 872.6,81.3 L 873.3,80.5 L 874.0,81.3 L 874.2,81.6 L 874.4,82.1 L 875.1,82.6 L 875.4,82.6 L 875.5,82.4 L 875.5,82.1 L 875.3,81.8 L 875.3,81.5 L 875.3,81.3 L 876.2,80.8 L 877.0,81.1 L 878.7,79.9 L 878.8,79.7 L 879.0,79.2 L 881.2,80.6 L 881.3,80.9 L 881.4,81.4 L 881.4,81.7 L 881.4,82.8 L 884.1,84.1 L 884.5,84.1 L 885.0,84.0 L 885.3,83.4 L 885.4,83.2 L 885.5,83.1 L 886.0,82.7 L 886.2,82.7 L 886.3,82.9 L 886.4,83.1 L 886.4,83.2 L 886.3,83.3 L 886.3,83.5 L 885.1,85.2 L 885.0,85.7 L 884.8,86.3 L 884.9,86.6 L 885.0,87.2 L 885.2,88.5 L 885.5,89.3 L 885.5,89.9 L 885.3,90.2 L 885.0,90.3 L 884.7,90.3 L 884.4,90.2 L 884.1,89.9 L 883.8,89.8 L 883.4,89.8 L 882.7,90.2 L 882.3,90.2 L 881.9,90.2 L 881.6,90.0 L 880.5,90.1 L 880.9,91.6 L 880.8,91.9 L 880.5,92.4 L 879.8,94.0 L 878.9,95.0 L 878.1,95.7 L 877.7,96.3 L 877.7,96.5 L 877.7,96.7 L 877.8,97.0 L 877.9,97.3 L 878.4,97.9 L 878.7,98.3 L 878.8,98.6 L 878.8,99.9 L 879.1,100.6 L 879.2,100.7 L 879.9,101.0 L 880.5,101.5 L 879.0,102.0 L 878.8,102.3 L 878.6,102.6 L 878.6,103.0 L 879.0,104.0 L 879.2,104.9 L 879.4,105.2 L 879.7,105.4 L 879.9,105.7 L 880.3,106.4 L 878.3,107.2 L 877.5,107.9 L 877.4,108.1 L 877.5,108.5 L 877.9,109.1 L 877.9,109.7 L 877.7,110.1 L 876.7,111.8 L 876.8,113.2 Z"/>
  <path id="Azores" d="M 270.9,268.9 L 271.6,269.4 L 272.2,270.2 L 272.7,271.2 L 272.8,272.2 L 272.3,272.8 L 271.1,272.7 L 269.0,272.0 L 267.8,272.3 L 267.1,272.3 L 266.9,271.9 L 266.6,271.3 L 266.2,270.8 L 266.0,270.3 L 266.4,269.8 L 267.1,269.2 L 268.4,268.8 L 269.9,268.8 L 270.9,268.9 Z M 266.1,230.4 L 267.5,231.0 L 268.4,232.3 L 268.5,234.0 L 267.6,235.4 L 266.2,236.1 L 261.4,236.7 L 259.8,237.1 L 258.0,237.3 L 256.4,237.2 L 255.6,237.3 L 254.9,237.6 L 254.0,237.0 L 253.0,236.6 L 251.0,236.1 L 247.7,235.9 L 243.4,232.7 L 242.1,230.9 L 242.8,228.5 L 245.6,228.2 L 246.5,228.5 L 247.7,229.6 L 248.0,230.0 L 248.0,230.5 L 248.1,230.9 L 248.3,231.3 L 248.6,231.4 L 253.2,232.0 L 253.7,231.9 L 254.7,231.2 L 255.2,231.0 L 255.5,231.2 L 256.3,231.8 L 256.7,232.0 L 257.3,231.7 L 261.0,230.5 L 266.1,230.4 Z M 160.6,203.6 L 162.2,203.7 L 162.8,204.2 L 163.1,205.3 L 162.6,205.8 L 161.5,205.8 L 158.6,205.4 L 157.8,205.4 L 157.1,205.7 L 155.8,206.8 L 155.3,206.5 L 155.0,206.0 L 154.6,205.5 L 153.8,205.2 L 148.6,205.1 L 147.9,205.5 L 145.5,203.2 L 144.6,201.8 L 144.6,199.8 L 145.7,198.8 L 146.9,198.4 L 149.5,198.5 L 151.0,198.8 L 154.6,201.0 L 155.9,201.6 L 155.9,201.7 L 156.3,201.8 L 157.1,202.4 L 157.4,202.6 L 158.2,202.7 L 160.6,203.6 Z M 142.4,196.6 L 142.9,198.7 L 142.7,198.7 L 141.5,199.2 L 141.2,199.5 L 141.4,199.7 L 141.5,199.9 L 141.6,200.0 L 141.9,200.1 L 141.5,200.4 L 141.0,200.4 L 140.2,200.1 L 139.7,200.1 L 138.6,200.4 L 138.2,200.4 L 137.4,200.0 L 136.4,198.6 L 135.7,197.9 L 134.0,196.9 L 134.0,196.5 L 135.2,196.3 L 136.3,196.2 L 136.8,196.1 L 137.2,195.9 L 137.5,195.6 L 138.1,194.7 L 138.4,194.4 L 141.6,195.8 L 142.4,196.6 Z M 168.5,196.3 L 171.2,197.3 L 172.5,198.0 L 173.2,198.8 L 172.6,199.1 L 171.9,199.2 L 170.5,199.1 L 169.9,198.9 L 168.7,198.3 L 167.6,198.1 L 167.0,197.8 L 166.4,197.5 L 165.9,197.1 L 165.4,196.8 L 164.4,197.0 L 163.8,196.6 L 163.3,196.9 L 162.9,196.7 L 162.3,195.9 L 161.8,195.6 L 158.1,194.4 L 157.4,193.9 L 156.7,192.6 L 156.4,192.5 L 156.2,192.5 L 156.0,192.6 L 155.9,192.6 L 155.6,192.5 L 155.5,192.3 L 155.5,192.1 L 155.5,191.9 L 155.2,191.8 L 154.9,191.7 L 153.2,190.2 L 153.1,189.9 L 153.1,189.3 L 153.7,189.5 L 154.9,190.4 L 155.5,190.5 L 156.1,190.6 L 163.3,193.4 L 168.5,196.3 Z M 200.0,192.1 L 199.8,192.3 L 199.0,192.6 L 198.8,192.8 L 198.7,193.1 L 198.9,193.9 L 198.8,194.4 L 198.6,194.5 L 197.5,195.0 L 196.6,194.7 L 194.2,194.6 L 193.4,194.0 L 192.9,194.5 L 192.5,194.6 L 191.6,194.0 L 190.7,193.8 L 189.7,193.7 L 188.9,193.4 L 188.0,192.5 L 187.2,191.5 L 186.9,190.5 L 186.6,189.1 L 187.4,188.0 L 188.8,187.3 L 190.0,187.0 L 195.5,187.4 L 196.6,187.8 L 198.1,188.7 L 199.2,189.8 L 199.4,190.7 L 199.3,191.1 L 199.6,191.4 L 200.0,191.7 L 200.0,192.1 Z M 165.1,177.1 L 164.4,177.1 L 163.6,177.0 L 162.9,176.7 L 162.3,176.2 L 161.9,175.4 L 161.9,174.7 L 162.5,173.3 L 162.9,173.0 L 163.3,173.0 L 163.7,173.0 L 164.0,173.3 L 164.3,173.0 L 164.8,173.8 L 166.0,174.8 L 166.6,175.4 L 166.9,176.2 L 166.4,176.7 L 165.8,177.0 L 165.1,177.1 Z M 48.2,154.0 L 48.6,154.3 L 49.0,154.6 L 49.5,154.7 L 50.0,154.4 L 50.7,155.3 L 51.0,156.1 L 51.0,158.1 L 50.7,159.1 L 50.1,160.4 L 49.4,161.2 L 48.8,160.8 L 48.1,161.1 L 47.3,161.2 L 46.5,161.1 L 46.0,160.8 L 45.7,160.2 L 45.5,159.2 L 45.5,158.4 L 45.8,157.9 L 45.6,157.1 L 45.8,156.5 L 46.1,155.8 L 46.3,154.8 L 46.5,154.1 L 47.1,153.6 L 47.8,153.4 L 48.5,153.4 L 48.2,154.0 Z M 51.5,143.7 L 52.8,144.0 L 52.9,145.4 L 52.2,146.7 L 51.0,147.0 L 51.0,146.7 L 50.4,145.2 L 50.2,145.0 L 50.4,144.5 L 50.7,144.1 L 51.1,143.8 L 51.5,143.7 Z"/>
  <path id="Beja" d="M 883.6,209.5 L 883.8,209.1 L 886.5,209.2 L 887.3,209.1 L 887.8,209.2 L 888.0,209.2 L 888.4,209.7 L 888.8,210.0 L 889.1,210.1 L 889.4,210.1 L 890.2,209.7 L 890.6,209.7 L 890.9,209.8 L 892.0,210.2 L 892.8,211.2 L 895.9,212.6 L 897.7,212.8 L 898.7,213.2 L 901.0,214.5 L 901.5,214.6 L 903.9,214.7 L 904.6,214.8 L 905.4,215.1 L 907.0,215.1 L 907.4,215.0 L 907.5,214.7 L 908.0,214.0 L 908.6,213.3 L 909.6,212.8 L 909.7,212.6 L 910.2,212.3 L 910.4,212.1 L 910.7,211.8 L 911.0,211.4 L 911.2,211.0 L 911.2,210.7 L 911.2,210.4 L 912.4,210.0 L 913.6,209.4 L 913.9,209.3 L 914.1,209.3 L 915.0,208.9 L 915.3,208.9 L 915.6,208.9 L 915.7,209.1 L 915.7,209.2 L 915.8,209.5 L 915.8,209.6 L 916.0,209.8 L 916.2,210.1 L 916.3,210.4 L 916.4,210.8 L 916.5,211.1 L 916.6,211.4 L 917.4,212.2 L 918.3,212.6 L 918.5,212.8 L 918.6,213.1 L 918.7,213.5 L 919.1,214.4 L 919.2,214.7 L 919.5,215.4 L 919.8,215.7 L 920.2,216.0 L 920.8,216.1 L 921.1,216.0 L 921.4,215.8 L 921.5,215.7 L 922.0,216.2 L 922.6,216.2 L 923.5,216.0 L 924.4,215.6 L 924.8,215.0 L 925.0,215.0 L 925.1,215.1 L 926.0,214.8 L 927.1,214.7 L 927.6,215.0 L 927.7,215.1 L 927.3,216.4 L 927.0,217.1 L 926.5,218.7 L 925.8,220.0 L 925.5,221.4 L 925.2,222.0 L 924.9,223.1 L 924.0,223.2 L 921.9,222.4 L 921.3,222.3 L 921.0,222.7 L 920.6,223.6 L 920.2,224.1 L 920.0,224.3 L 919.5,224.5 L 919.0,224.7 L 918.6,224.6 L 918.1,224.5 L 917.7,224.5 L 917.3,224.7 L 916.1,225.0 L 915.9,225.2 L 915.9,225.6 L 916.0,226.0 L 916.0,226.5 L 915.8,227.3 L 915.0,229.5 L 914.6,231.0 L 913.6,232.8 L 910.3,235.6 L 909.7,236.6 L 909.2,237.9 L 908.9,240.1 L 908.7,240.8 L 908.4,241.2 L 907.5,242.2 L 907.1,242.5 L 907.2,242.7 L 907.2,243.0 L 907.1,243.2 L 907.1,243.4 L 906.7,243.8 L 906.6,244.0 L 906.6,244.5 L 906.6,244.6 L 906.8,244.6 L 907.0,245.2 L 907.0,245.5 L 907.1,245.8 L 906.2,246.0 L 905.2,246.0 L 904.4,246.4 L 903.7,247.1 L 903.3,247.3 L 903.0,247.4 L 902.8,247.3 L 902.2,247.2 L 902.0,247.1 L 900.1,247.1 L 897.3,248.3 L 896.6,248.7 L 896.4,248.9 L 896.2,249.0 L 896.0,249.0 L 895.3,249.4 L 895.0,249.5 L 894.8,249.6 L 894.7,249.9 L 894.2,250.0 L 893.6,250.4 L 893.5,250.7 L 893.3,251.0 L 892.8,251.2 L 891.8,251.4 L 891.3,251.4 L 890.2,251.6 L 889.7,251.9 L 889.5,252.2 L 889.5,252.5 L 889.6,252.7 L 889.8,253.1 L 889.8,253.3 L 889.6,253.4 L 888.3,254.1 L 887.5,254.8 L 887.0,255.0 L 886.6,255.0 L 885.2,254.9 L 884.5,254.9 L 883.3,254.5 L 880.8,252.6 L 880.2,252.3 L 879.8,251.8 L 879.7,251.6 L 879.6,250.9 L 879.3,250.4 L 878.4,250.1 L 877.8,250.2 L 877.5,250.4 L 877.1,250.3 L 876.7,250.4 L 875.9,250.5 L 874.5,251.0 L 874.4,251.2 L 874.1,251.5 L 874.1,251.8 L 873.9,252.2 L 873.3,252.5 L 872.6,252.8 L 871.1,252.5 L 870.5,252.3 L 869.1,251.5 L 868.7,251.4 L 867.3,251.6 L 867.0,251.8 L 866.8,252.0 L 866.6,252.2 L 866.4,252.4 L 866.1,252.3 L 865.9,252.2 L 864.9,251.7 L 863.4,251.6 L 863.2,251.5 L 862.8,251.2 L 862.5,250.8 L 861.9,250.3 L 861.4,250.2 L 860.7,249.7 L 860.2,249.4 L 860.4,248.8 L 860.6,247.6 L 860.7,245.5 L 860.5,244.4 L 860.1,243.7 L 859.6,243.1 L 859.6,242.5 L 860.0,240.5 L 860.2,239.2 L 860.5,238.1 L 861.0,237.8 L 862.0,237.6 L 862.2,236.5 L 862.2,236.4 L 861.9,236.7 L 861.1,236.9 L 860.2,236.9 L 859.9,236.1 L 860.2,233.8 L 860.5,232.1 L 860.8,232.5 L 861.0,232.8 L 861.2,232.9 L 861.5,232.9 L 861.7,232.8 L 862.0,232.6 L 862.3,232.5 L 862.9,232.7 L 863.2,233.1 L 863.3,233.3 L 864.2,234.5 L 864.6,235.1 L 864.7,235.3 L 864.9,235.3 L 865.1,235.1 L 865.2,234.8 L 865.4,234.7 L 865.7,234.8 L 866.0,234.9 L 866.3,235.2 L 866.9,235.4 L 867.3,235.5 L 867.9,235.2 L 868.1,234.9 L 868.2,234.6 L 868.2,234.2 L 868.6,233.2 L 868.7,232.9 L 869.4,232.2 L 869.5,231.9 L 869.6,231.5 L 870.0,231.2 L 870.6,230.9 L 873.8,230.3 L 875.4,230.6 L 876.4,230.6 L 876.5,230.6 L 877.6,231.2 L 878.1,229.9 L 878.3,229.6 L 878.7,228.4 L 878.9,226.3 L 878.9,225.0 L 878.5,224.0 L 878.3,223.6 L 877.8,223.2 L 877.3,223.2 L 876.9,223.1 L 876.5,222.8 L 875.9,222.2 L 875.2,221.6 L 875.1,221.2 L 875.0,220.9 L 875.0,220.7 L 875.1,220.4 L 875.1,220.1 L 875.2,219.8 L 875.3,219.5 L 875.5,219.1 L 875.8,219.1 L 876.0,219.2 L 876.2,219.2 L 876.4,219.2 L 876.5,219.0 L 876.6,218.9 L 876.7,218.4 L 876.8,218.2 L 876.8,218.0 L 876.8,217.8 L 876.9,217.6 L 877.2,217.5 L 877.4,217.3 L 877.6,217.2 L 878.0,217.4 L 878.3,217.6 L 878.5,217.7 L 878.8,217.5 L 879.0,216.7 L 879.1,216.3 L 879.2,216.1 L 879.5,215.9 L 880.8,215.9 L 881.0,215.5 L 881.1,215.0 L 881.4,214.9 L 882.7,214.6 L 883.3,214.3 L 884.6,213.9 L 884.8,213.4 L 884.8,213.1 L 884.8,212.6 L 884.5,211.5 L 883.6,209.5 Z"/>
  <path id="Braga" d="M 859.8,53.4 L 860.0,53.4 L 860.7,53.5 L 861.0,53.5 L 863.7,52.5 L 865.5,52.4 L 865.9,52.4 L 866.1,52.1 L 866.3,51.9 L 866.4,51.8 L 866.7,52.0 L 867.8,52.4 L 868.5,52.5 L 868.9,52.7 L 869.3,52.8 L 869.5,52.9 L 870.1,51.7 L 870.0,51.2 L 870.1,50.9 L 870.2,50.6 L 870.6,50.2 L 870.7,49.9 L 870.7,49.6 L 870.8,48.8 L 870.9,48.4 L 871.0,48.1 L 871.3,47.8 L 871.5,47.6 L 871.8,47.6 L 872.1,47.6 L 872.3,47.7 L 873.0,47.4 L 873.6,46.9 L 873.9,46.7 L 874.4,46.5 L 874.9,46.3 L 878.1,46.2 L 879.0,45.9 L 882.4,44.0 L 882.9,44.0 L 883.0,43.9 L 883.0,44.0 L 886.1,44.2 L 887.7,43.8 L 887.8,43.9 L 887.8,44.1 L 887.7,44.4 L 887.5,44.7 L 887.4,45.0 L 887.1,46.4 L 886.8,47.0 L 886.4,48.1 L 886.2,48.5 L 886.1,48.8 L 885.2,49.8 L 885.7,49.8 L 886.2,49.7 L 886.4,49.6 L 886.7,49.6 L 887.0,49.6 L 887.3,49.6 L 887.6,49.6 L 888.2,49.3 L 888.5,49.3 L 888.7,49.4 L 889.7,50.0 L 889.8,50.2 L 889.9,50.5 L 889.8,51.1 L 889.7,51.5 L 889.6,53.7 L 890.3,54.0 L 890.7,54.1 L 891.1,54.3 L 891.4,54.4 L 892.8,54.7 L 893.3,54.8 L 894.4,54.4 L 895.1,53.6 L 895.5,53.8 L 895.7,54.0 L 896.3,55.1 L 896.2,55.7 L 894.7,57.9 L 894.3,58.3 L 893.6,58.7 L 893.5,58.8 L 893.3,59.4 L 892.9,59.7 L 892.6,59.7 L 892.5,59.7 L 892.3,59.8 L 891.9,60.3 L 891.6,61.4 L 891.8,61.8 L 891.7,62.0 L 891.6,62.4 L 891.1,63.2 L 891.0,63.6 L 890.8,63.7 L 890.7,63.8 L 890.6,63.9 L 890.7,64.3 L 890.7,64.5 L 890.4,65.4 L 890.3,65.9 L 890.2,66.1 L 890.1,66.3 L 889.9,66.5 L 889.7,66.6 L 889.5,66.8 L 889.3,67.0 L 889.1,67.2 L 888.8,67.4 L 888.6,67.5 L 888.2,67.6 L 887.8,67.2 L 887.0,66.8 L 886.6,66.9 L 885.5,66.4 L 884.2,65.4 L 884.2,64.9 L 884.1,64.7 L 883.4,63.9 L 881.6,63.2 L 881.0,64.1 L 880.3,64.6 L 879.2,65.1 L 878.9,65.2 L 878.1,65.5 L 877.8,65.5 L 877.3,65.2 L 877.0,65.1 L 875.6,65.3 L 874.4,65.6 L 873.5,65.4 L 873.3,65.2 L 873.0,65.1 L 872.6,65.1 L 871.9,65.3 L 871.3,65.7 L 871.0,65.9 L 870.7,66.1 L 870.4,66.2 L 870.1,66.3 L 868.1,66.3 L 867.7,66.4 L 867.6,66.4 L 867.3,66.2 L 867.1,65.9 L 867.0,65.2 L 866.9,64.9 L 867.2,64.5 L 867.6,64.4 L 867.8,64.3 L 867.9,64.0 L 867.8,63.7 L 867.4,63.4 L 867.0,63.3 L 866.5,63.0 L 865.9,62.3 L 865.6,62.1 L 865.3,61.8 L 865.0,61.7 L 864.1,61.6 L 863.1,61.2 L 862.3,60.7 L 861.4,60.7 L 861.4,60.6 L 861.0,59.5 L 860.9,58.5 L 860.8,57.8 L 860.7,57.0 L 860.2,55.6 L 860.0,54.5 L 859.8,53.7 L 859.8,53.4 Z"/>
  <path id="Bragança" d="M 928.4,80.9 L 927.8,80.7 L 926.2,80.7 L 923.0,79.0 L 922.6,78.5 L 922.4,77.9 L 922.2,77.2 L 922.2,76.8 L 922.4,76.4 L 922.4,76.0 L 922.1,75.9 L 921.8,75.8 L 921.6,75.7 L 921.3,75.5 L 921.2,75.3 L 921.4,75.0 L 921.7,74.0 L 921.3,74.1 L 919.9,75.1 L 919.6,75.6 L 918.9,75.6 L 917.7,75.3 L 914.9,75.5 L 913.9,75.6 L 912.7,75.2 L 912.3,74.8 L 911.2,73.2 L 910.6,72.8 L 910.1,72.8 L 910.3,72.2 L 910.4,71.9 L 910.5,71.7 L 910.9,71.5 L 911.4,71.4 L 911.5,71.3 L 911.5,71.1 L 911.4,70.8 L 911.5,70.4 L 911.6,69.7 L 911.9,69.3 L 912.3,68.9 L 912.4,68.7 L 912.3,68.4 L 912.4,67.9 L 913.0,67.2 L 914.3,66.8 L 913.4,66.3 L 913.1,65.9 L 912.8,65.3 L 912.6,64.3 L 912.6,61.9 L 913.8,61.0 L 914.1,60.9 L 914.5,60.7 L 914.8,60.3 L 915.0,59.5 L 915.5,58.7 L 915.8,58.3 L 916.2,58.1 L 916.5,58.1 L 916.8,58.0 L 917.1,57.9 L 917.2,57.6 L 917.1,57.3 L 917.0,57.0 L 916.8,56.7 L 916.6,56.4 L 916.5,56.0 L 916.5,55.3 L 916.6,54.0 L 917.8,50.0 L 918.7,48.1 L 919.0,47.8 L 919.2,47.7 L 919.4,47.4 L 919.5,47.1 L 919.5,46.4 L 919.5,46.0 L 918.8,45.1 L 918.5,44.2 L 918.4,43.8 L 918.3,42.9 L 918.4,41.9 L 918.5,41.4 L 918.2,40.5 L 918.2,40.2 L 918.6,39.6 L 918.7,38.8 L 918.4,37.3 L 918.5,36.6 L 918.8,36.3 L 919.3,35.9 L 920.0,35.5 L 920.5,35.4 L 921.7,36.1 L 922.8,37.1 L 923.9,37.6 L 925.2,37.1 L 926.0,36.4 L 926.4,36.6 L 926.9,36.9 L 927.8,37.6 L 928.8,37.8 L 931.0,37.6 L 931.9,37.0 L 932.1,35.6 L 933.2,35.8 L 934.5,37.8 L 935.6,38.2 L 938.2,38.1 L 939.4,37.7 L 939.9,36.6 L 940.8,37.0 L 941.3,37.6 L 941.4,38.4 L 941.1,40.5 L 941.4,40.9 L 942.1,40.9 L 943.0,41.3 L 942.6,42.2 L 941.7,46.2 L 941.6,46.6 L 941.3,47.0 L 941.1,47.5 L 941.2,47.9 L 941.4,48.3 L 941.6,48.8 L 941.7,49.7 L 941.9,50.6 L 942.4,51.4 L 943.4,51.8 L 943.8,51.7 L 944.3,51.4 L 944.8,51.1 L 945.1,50.8 L 945.3,50.5 L 945.8,50.6 L 948.7,51.2 L 950.5,51.8 L 952.1,52.9 L 953.7,54.5 L 954.2,55.2 L 954.5,55.7 L 952.8,58.2 L 951.9,59.2 L 951.6,59.7 L 951.7,60.1 L 951.8,60.4 L 951.8,60.8 L 950.4,63.0 L 950.4,63.4 L 949.2,63.5 L 948.7,63.7 L 948.3,64.1 L 948.4,64.1 L 948.4,64.4 L 948.4,64.8 L 948.3,65.0 L 948.1,65.1 L 947.7,65.0 L 947.5,65.0 L 946.4,66.9 L 945.2,68.1 L 944.5,68.6 L 944.0,69.0 L 941.9,69.9 L 941.6,70.2 L 939.2,70.2 L 938.6,70.3 L 938.2,70.8 L 936.9,72.7 L 936.6,73.5 L 936.4,73.9 L 935.1,75.0 L 934.6,75.6 L 934.5,75.9 L 934.6,77.1 L 934.3,78.0 L 932.9,80.1 L 932.4,80.6 L 931.4,80.7 L 929.1,80.5 L 928.4,80.9 Z"/>
  <path id="Castelo Branco" d="M 905.6,146.1 L 905.2,146.0 L 904.5,146.2 L 903.9,146.7 L 903.4,147.1 L 902.6,147.8 L 902.0,147.7 L 901.4,147.3 L 900.6,147.3 L 900.0,147.7 L 899.5,148.5 L 899.2,149.2 L 898.9,149.5 L 898.2,149.8 L 897.6,150.5 L 897.1,151.2 L 896.6,151.8 L 896.3,151.3 L 896.0,150.5 L 895.8,150.1 L 895.1,148.9 L 894.3,148.1 L 893.7,147.6 L 893.1,147.2 L 892.4,146.9 L 892.0,146.9 L 891.6,146.8 L 891.3,146.6 L 891.2,146.2 L 891.3,145.5 L 891.2,144.8 L 891.2,144.5 L 891.2,144.1 L 891.1,143.8 L 891.0,143.5 L 890.8,143.3 L 889.9,143.2 L 888.7,142.8 L 888.0,143.0 L 887.8,143.3 L 887.4,145.7 L 887.1,146.2 L 886.9,146.8 L 887.0,147.3 L 887.2,148.1 L 887.3,148.4 L 887.3,148.6 L 886.5,148.9 L 885.2,149.0 L 884.5,149.0 L 883.5,148.4 L 881.5,147.6 L 881.2,147.0 L 881.1,145.3 L 881.1,144.4 L 881.3,143.9 L 881.2,143.1 L 881.3,142.9 L 881.3,142.6 L 881.2,142.4 L 881.1,142.1 L 880.9,141.9 L 880.5,141.7 L 880.0,141.5 L 879.6,141.3 L 879.4,140.6 L 879.2,140.0 L 879.2,139.8 L 879.5,139.4 L 879.7,139.2 L 879.7,138.9 L 879.7,138.7 L 879.9,138.4 L 880.1,138.2 L 881.7,137.7 L 882.1,137.8 L 882.3,137.6 L 882.6,137.2 L 882.9,136.8 L 883.2,136.6 L 883.5,136.6 L 883.9,136.3 L 884.2,136.0 L 884.9,134.6 L 885.5,134.0 L 885.6,133.7 L 885.9,133.5 L 886.0,133.5 L 886.5,133.4 L 886.9,132.9 L 887.7,132.7 L 888.3,132.7 L 888.5,132.5 L 888.5,132.3 L 888.6,132.0 L 888.8,132.0 L 889.3,131.9 L 889.5,131.7 L 889.7,131.6 L 890.0,131.5 L 890.2,131.6 L 890.5,131.7 L 890.6,131.7 L 890.8,131.6 L 891.3,130.9 L 891.5,130.7 L 891.8,130.7 L 892.5,130.7 L 892.9,130.4 L 892.9,130.2 L 892.8,129.5 L 892.9,129.1 L 893.3,128.7 L 894.2,128.2 L 894.7,128.1 L 895.1,128.1 L 895.5,128.2 L 895.8,128.4 L 896.5,128.9 L 896.6,128.0 L 896.5,127.2 L 896.7,126.9 L 896.9,126.8 L 897.1,126.9 L 897.1,127.0 L 897.3,127.2 L 897.5,127.3 L 897.9,127.2 L 898.6,126.7 L 898.9,126.4 L 899.1,126.1 L 899.1,125.9 L 899.1,125.6 L 899.0,125.3 L 898.9,124.8 L 897.9,124.1 L 897.3,123.3 L 896.9,123.0 L 896.7,122.7 L 896.5,122.1 L 896.6,121.7 L 897.4,119.9 L 898.1,119.6 L 898.7,119.5 L 899.2,119.3 L 900.5,118.3 L 901.5,117.9 L 902.4,117.3 L 903.2,116.4 L 903.9,115.4 L 904.8,115.7 L 906.1,115.5 L 906.4,115.2 L 906.7,114.9 L 906.9,114.2 L 907.0,113.9 L 907.5,113.0 L 909.3,111.3 L 910.7,112.4 L 911.6,112.7 L 912.0,112.7 L 913.2,112.3 L 913.9,111.4 L 914.2,111.4 L 914.6,111.3 L 915.2,111.2 L 915.5,111.2 L 915.9,111.4 L 915.6,114.2 L 915.2,115.5 L 914.9,115.9 L 914.6,116.2 L 914.2,116.7 L 914.1,117.1 L 914.2,117.3 L 914.3,117.5 L 914.5,117.6 L 914.8,117.7 L 915.1,117.8 L 915.9,118.0 L 916.8,118.2 L 918.5,117.6 L 920.2,117.6 L 920.7,117.4 L 920.9,117.2 L 921.0,116.8 L 921.2,116.4 L 921.4,116.1 L 921.8,115.7 L 922.0,115.8 L 922.2,116.0 L 922.4,116.4 L 922.7,117.0 L 923.0,117.3 L 923.9,117.5 L 924.7,117.4 L 925.3,117.3 L 925.6,117.3 L 925.9,117.3 L 926.8,117.8 L 927.3,118.2 L 927.7,118.6 L 927.8,118.8 L 927.9,118.8 L 927.4,118.9 L 925.8,119.9 L 925.2,120.2 L 924.9,120.6 L 924.5,121.7 L 924.2,122.3 L 924.5,123.0 L 924.8,124.6 L 925.2,125.2 L 925.6,125.4 L 926.6,125.5 L 927.0,125.7 L 927.4,126.0 L 927.9,126.8 L 928.7,127.8 L 930.1,130.4 L 929.5,131.5 L 929.3,132.0 L 929.4,132.5 L 929.3,132.9 L 929.0,134.1 L 928.9,134.3 L 928.6,134.5 L 928.5,134.8 L 928.5,135.0 L 928.6,135.5 L 928.6,135.7 L 928.5,136.2 L 928.5,136.9 L 928.4,137.4 L 927.5,138.8 L 927.1,139.0 L 926.3,139.3 L 926.0,139.6 L 925.8,140.2 L 925.8,140.7 L 926.0,141.1 L 926.0,141.5 L 925.9,142.0 L 925.4,142.8 L 925.3,143.2 L 925.3,143.6 L 925.4,144.0 L 925.4,144.3 L 925.0,145.3 L 924.5,145.5 L 919.1,146.2 L 918.0,146.2 L 917.2,145.7 L 916.6,145.9 L 915.1,145.8 L 914.5,146.0 L 913.9,146.2 L 913.4,146.4 L 905.6,146.0 L 905.6,146.1 Z"/>
  <path id="Coimbra" d="M 897.4,119.9 L 896.6,121.7 L 896.5,122.1 L 896.7,122.7 L 896.9,123.0 L 897.3,123.3 L 897.9,124.1 L 898.9,124.8 L 899.0,125.3 L 899.1,125.6 L 899.1,125.9 L 899.1,126.1 L 898.9,126.4 L 898.6,126.7 L 897.9,127.2 L 897.5,127.3 L 897.3,127.2 L 897.1,127.0 L 897.1,126.9 L 896.9,126.8 L 896.7,126.9 L 896.5,127.2 L 896.6,128.0 L 896.5,128.9 L 895.8,128.4 L 895.5,128.2 L 895.1,128.1 L 894.7,128.1 L 894.2,128.2 L 893.3,128.7 L 892.9,129.1 L 892.8,129.5 L 892.9,130.2 L 892.9,130.4 L 892.5,130.7 L 891.8,130.7 L 891.5,130.7 L 891.3,130.9 L 890.8,131.6 L 890.6,131.7 L 890.5,131.7 L 890.2,131.6 L 890.0,131.5 L 889.7,131.6 L 889.5,131.7 L 889.3,131.9 L 888.8,132.0 L 888.6,132.0 L 888.5,132.3 L 888.5,132.5 L 888.3,132.7 L 887.7,132.7 L 886.9,132.9 L 886.5,133.4 L 886.0,133.5 L 885.9,133.5 L 885.6,133.7 L 885.5,134.0 L 884.9,134.6 L 885.1,134.0 L 885.0,134.0 L 885.0,133.8 L 884.9,133.5 L 885.0,133.0 L 885.2,132.8 L 885.6,132.5 L 884.1,130.1 L 884.0,129.3 L 884.2,127.9 L 884.1,127.6 L 883.9,127.3 L 883.7,127.1 L 883.2,126.8 L 882.1,128.3 L 881.0,127.8 L 879.4,129.2 L 878.9,130.1 L 878.9,130.4 L 879.0,130.8 L 879.1,130.9 L 879.5,131.3 L 879.7,131.6 L 879.6,132.0 L 879.4,132.2 L 879.1,132.3 L 878.5,132.0 L 878.1,132.1 L 876.9,133.5 L 875.4,134.1 L 875.1,134.1 L 874.8,134.0 L 875.0,133.8 L 875.3,133.6 L 875.5,133.3 L 875.5,132.9 L 875.4,132.3 L 875.0,131.4 L 874.6,130.4 L 874.3,130.2 L 874.0,130.1 L 873.9,130.4 L 873.2,130.3 L 872.0,131.3 L 871.0,131.9 L 870.4,132.7 L 870.1,133.0 L 869.9,132.8 L 869.8,132.5 L 869.7,132.2 L 869.7,131.4 L 869.7,131.0 L 869.4,129.9 L 869.2,129.7 L 868.9,129.5 L 868.7,129.5 L 868.5,129.6 L 868.2,129.7 L 867.9,129.9 L 867.4,130.8 L 867.3,130.9 L 867.1,131.0 L 866.7,131.0 L 866.5,131.0 L 866.4,130.9 L 866.0,130.4 L 865.4,129.8 L 865.0,129.5 L 864.2,129.3 L 863.5,129.3 L 861.6,129.1 L 860.7,129.5 L 860.3,129.8 L 860.0,129.9 L 858.8,129.6 L 858.3,129.4 L 857.9,129.2 L 857.0,128.7 L 856.8,128.6 L 858.0,125.0 L 858.6,124.3 L 859.0,124.9 L 859.6,125.2 L 861.1,125.3 L 861.1,124.9 L 860.5,124.3 L 859.9,123.9 L 859.3,123.7 L 857.6,123.5 L 857.0,123.1 L 856.6,122.4 L 856.6,121.4 L 857.0,120.0 L 858.1,117.8 L 860.6,108.3 L 861.0,106.0 L 861.0,106.1 L 865.0,110.2 L 866.2,110.4 L 866.5,109.9 L 866.7,109.1 L 867.4,107.9 L 868.8,108.9 L 868.6,110.0 L 868.6,110.5 L 868.8,111.3 L 869.0,111.7 L 869.3,111.8 L 869.6,111.6 L 870.2,111.2 L 870.8,111.0 L 871.2,110.9 L 871.4,111.9 L 871.8,112.7 L 871.9,113.0 L 871.8,113.3 L 871.7,114.0 L 871.6,114.1 L 871.4,114.3 L 871.3,114.4 L 871.1,114.6 L 870.9,114.9 L 870.6,115.6 L 870.5,116.1 L 870.5,116.5 L 870.6,116.8 L 870.8,117.1 L 872.9,117.3 L 873.2,117.1 L 873.5,116.8 L 873.7,116.4 L 874.5,115.3 L 874.7,114.9 L 875.0,114.6 L 875.3,114.5 L 876.1,114.5 L 876.5,114.0 L 876.5,113.6 L 876.8,113.2 L 877.2,113.4 L 877.6,113.7 L 878.7,114.0 L 879.5,114.6 L 880.1,115.1 L 880.7,115.4 L 881.0,115.7 L 881.2,115.7 L 881.3,115.5 L 881.4,115.3 L 881.4,115.1 L 881.5,114.9 L 881.7,114.8 L 883.2,114.5 L 885.3,114.8 L 888.0,112.8 L 890.0,111.9 L 891.6,110.8 L 892.2,110.5 L 893.1,109.1 L 894.3,108.2 L 894.7,107.7 L 895.1,107.4 L 895.9,107.2 L 896.2,108.3 L 896.5,108.5 L 896.7,108.8 L 896.7,109.2 L 896.6,109.6 L 896.4,109.9 L 896.1,110.1 L 895.8,110.2 L 895.5,110.4 L 895.4,110.8 L 895.7,111.2 L 896.0,111.4 L 896.6,111.6 L 896.8,111.8 L 896.8,112.2 L 897.1,113.9 L 897.3,114.3 L 897.8,114.8 L 897.9,115.0 L 897.9,115.4 L 897.0,115.9 L 896.7,116.3 L 896.5,116.8 L 896.3,117.5 L 895.9,118.5 L 896.9,119.0 L 897.4,119.9 Z"/>
  <path id="Faro" d="M 907.1,245.8 L 907.4,246.3 L 907.7,246.6 L 908.3,247.1 L 908.5,247.4 L 908.8,248.2 L 909.0,249.3 L 909.1,250.3 L 909.0,250.8 L 909.6,252.3 L 909.9,255.9 L 910.3,257.4 L 910.0,258.1 L 910.2,259.1 L 910.7,261.1 L 910.8,261.3 L 910.9,261.5 L 911.0,261.7 L 911.3,261.8 L 911.3,262.0 L 911.0,262.4 L 910.4,261.9 L 909.6,261.7 L 908.8,261.7 L 908.0,261.8 L 907.2,262.1 L 905.7,263.1 L 905.1,263.3 L 903.0,264.7 L 902.7,265.1 L 897.2,268.8 L 896.1,269.9 L 895.5,269.9 L 895.0,269.7 L 894.2,269.5 L 892.0,269.5 L 891.3,269.2 L 891.0,269.7 L 890.6,269.7 L 890.2,269.4 L 889.8,269.2 L 890.2,269.8 L 890.3,270.1 L 890.4,270.5 L 889.5,269.3 L 888.2,268.2 L 885.6,266.7 L 884.2,266.4 L 883.0,265.9 L 881.8,265.9 L 878.9,266.3 L 877.6,265.9 L 876.3,265.4 L 875.2,265.9 L 873.6,266.1 L 872.0,265.5 L 872.0,265.6 L 870.0,264.5 L 868.5,264.2 L 866.8,264.4 L 866.3,264.5 L 865.8,264.9 L 864.6,266.1 L 862.4,266.1 L 862.0,266.2 L 861.0,266.8 L 860.6,267.0 L 860.0,267.1 L 859.2,267.3 L 858.4,268.0 L 857.7,267.7 L 857.0,268.4 L 856.7,268.6 L 856.3,268.8 L 855.6,269.4 L 855.2,269.5 L 854.7,269.3 L 854.3,268.9 L 853.9,268.7 L 853.3,268.9 L 853.6,267.6 L 853.8,267.0 L 854.0,266.7 L 855.4,264.5 L 855.9,263.2 L 856.4,262.1 L 856.1,260.8 L 856.7,260.2 L 857.6,259.3 L 858.1,257.3 L 857.8,256.5 L 857.5,255.8 L 858.1,254.6 L 859.1,253.5 L 859.3,252.4 L 859.9,250.8 L 860.2,249.4 L 860.7,249.7 L 861.4,250.2 L 861.9,250.3 L 862.5,250.8 L 862.8,251.2 L 863.2,251.5 L 863.4,251.6 L 864.9,251.7 L 865.9,252.2 L 866.1,252.3 L 866.4,252.4 L 866.6,252.2 L 866.8,252.0 L 867.0,251.8 L 867.3,251.6 L 868.7,251.4 L 869.1,251.5 L 870.5,252.3 L 871.1,252.5 L 872.6,252.8 L 873.3,252.5 L 873.9,252.2 L 874.1,251.8 L 874.1,251.5 L 874.4,251.2 L 874.5,251.0 L 875.9,250.5 L 876.7,250.4 L 877.1,250.3 L 877.5,250.4 L 877.8,250.2 L 878.4,250.1 L 879.3,250.4 L 879.6,250.9 L 879.7,251.6 L 879.8,251.8 L 880.2,252.3 L 880.8,252.6 L 883.3,254.5 L 884.5,254.9 L 885.2,254.9 L 886.6,255.0 L 887.0,255.0 L 887.5,254.8 L 888.3,254.1 L 889.6,253.4 L 889.8,253.3 L 889.8,253.1 L 889.6,252.7 L 889.5,252.5 L 889.5,252.2 L 889.7,251.9 L 890.2,251.6 L 891.3,251.4 L 891.8,251.4 L 892.8,251.2 L 893.3,251.0 L 893.5,250.7 L 893.6,250.4 L 894.2,250.0 L 894.7,249.9 L 894.8,249.6 L 895.0,249.5 L 895.3,249.4 L 896.0,249.0 L 896.2,249.0 L 896.4,248.9 L 896.6,248.7 L 897.3,248.3 L 900.1,247.1 L 902.0,247.1 L 902.2,247.2 L 902.8,247.3 L 903.0,247.4 L 903.3,247.3 L 903.7,247.1 L 904.4,246.4 L 905.2,246.0 L 906.2,246.0 L 907.1,245.8 Z M 891.1,270.8 L 893.0,271.0 L 893.7,270.7 L 894.6,269.8 L 894.7,270.0 L 894.7,270.1 L 894.8,270.5 L 894.6,270.6 L 894.6,270.8 L 893.9,271.2 L 893.0,271.4 L 892.0,271.4 L 891.1,271.1 L 891.1,270.8 Z"/>
  <path id="Guarda" d="M 927.9,118.8 L 927.8,118.8 L 927.7,118.6 L 927.3,118.2 L 926.8,117.8 L 925.9,117.3 L 925.6,117.3 L 925.3,117.3 L 924.7,117.4 L 923.9,117.5 L 923.0,117.3 L 922.7,117.0 L 922.4,116.4 L 922.2,116.0 L 922.0,115.8 L 921.8,115.7 L 921.4,116.1 L 921.2,116.4 L 921.0,116.8 L 920.9,117.2 L 920.7,117.4 L 920.2,117.6 L 918.5,117.6 L 916.8,118.2 L 915.9,118.0 L 915.1,117.8 L 914.8,117.7 L 914.5,117.6 L 914.3,117.5 L 914.2,117.3 L 914.1,117.1 L 914.2,116.7 L 914.6,116.2 L 914.9,115.9 L 915.2,115.5 L 915.6,114.2 L 915.9,111.4 L 915.5,111.2 L 915.2,111.2 L 914.6,111.3 L 914.2,111.4 L 913.9,111.4 L 913.2,112.3 L 912.0,112.7 L 911.6,112.7 L 910.7,112.4 L 909.3,111.3 L 907.5,113.0 L 907.0,113.9 L 906.9,114.2 L 906.7,114.9 L 906.4,115.2 L 906.1,115.5 L 904.8,115.7 L 903.9,115.4 L 903.2,116.4 L 902.4,117.3 L 901.5,117.9 L 900.5,118.3 L 899.2,119.3 L 898.7,119.5 L 898.1,119.6 L 897.4,119.9 L 896.9,119.0 L 895.9,118.5 L 896.3,117.5 L 896.5,116.8 L 896.7,116.3 L 897.0,115.9 L 897.9,115.4 L 897.9,115.0 L 897.8,114.8 L 897.3,114.3 L 897.1,113.9 L 896.8,112.2 L 896.8,111.8 L 896.6,111.6 L 896.0,111.4 L 895.7,111.2 L 895.4,110.8 L 895.5,110.4 L 895.8,110.2 L 896.1,110.1 L 896.4,109.9 L 896.6,109.6 L 896.7,109.2 L 896.7,108.8 L 896.5,108.5 L 896.2,108.3 L 895.9,107.2 L 896.2,106.9 L 897.3,106.7 L 897.7,106.6 L 898.7,105.9 L 899.7,105.5 L 900.9,104.7 L 902.4,104.1 L 904.8,103.7 L 904.7,102.7 L 905.5,100.1 L 906.0,99.5 L 906.2,98.3 L 905.6,97.4 L 904.8,96.9 L 904.4,96.2 L 904.8,95.7 L 904.9,95.4 L 904.9,95.1 L 904.8,94.8 L 904.6,94.5 L 903.7,93.7 L 903.4,93.4 L 903.3,93.0 L 903.5,92.7 L 903.9,92.1 L 904.3,91.4 L 904.7,90.1 L 904.8,89.9 L 905.1,89.6 L 905.5,89.4 L 906.4,89.4 L 906.8,89.6 L 907.3,90.0 L 908.6,91.3 L 908.8,91.5 L 909.0,91.8 L 909.6,91.9 L 910.0,91.3 L 910.8,89.4 L 910.8,88.9 L 910.7,88.4 L 910.6,88.1 L 910.4,87.2 L 910.9,86.9 L 912.2,87.3 L 913.4,86.2 L 913.7,85.4 L 913.7,84.8 L 913.7,84.5 L 913.5,84.2 L 913.2,84.1 L 912.8,83.8 L 912.5,83.6 L 912.3,83.0 L 912.2,82.7 L 912.3,82.5 L 913.2,82.6 L 913.7,82.3 L 913.5,81.0 L 913.6,80.1 L 913.9,78.7 L 914.9,75.5 L 917.7,75.3 L 918.9,75.6 L 919.6,75.6 L 919.9,75.1 L 921.3,74.1 L 921.7,74.0 L 921.4,75.0 L 921.2,75.3 L 921.3,75.5 L 921.6,75.7 L 921.8,75.8 L 922.1,75.9 L 922.4,76.0 L 922.4,76.4 L 922.2,76.8 L 922.2,77.2 L 922.4,77.9 L 922.6,78.5 L 923.0,79.0 L 926.2,80.7 L 927.8,80.7 L 928.4,80.9 L 928.2,81.8 L 927.8,82.4 L 927.9,83.0 L 928.3,83.6 L 929.4,84.8 L 929.9,85.7 L 930.7,87.6 L 931.0,88.6 L 931.3,89.0 L 931.8,89.2 L 932.2,89.4 L 932.4,90.1 L 932.3,90.7 L 931.7,90.9 L 931.6,92.1 L 931.7,92.4 L 931.8,92.9 L 931.8,93.2 L 931.7,93.4 L 931.6,93.9 L 931.6,94.8 L 931.7,95.5 L 932.1,97.1 L 932.4,98.7 L 932.5,99.5 L 932.5,100.1 L 932.2,100.9 L 931.4,102.5 L 931.2,103.2 L 931.3,104.0 L 931.6,104.5 L 932.0,105.0 L 932.4,105.6 L 932.6,106.4 L 932.5,107.0 L 931.6,108.2 L 930.9,109.9 L 931.2,111.4 L 932.0,112.8 L 933.2,114.0 L 932.6,115.1 L 932.3,115.4 L 930.7,116.6 L 930.5,116.9 L 930.3,117.2 L 930.3,117.6 L 930.3,118.0 L 930.2,118.3 L 929.5,118.8 L 928.8,118.8 L 928.1,118.7 L 927.9,118.8 Z"/>
  <path id="Leiria" d="M 884.9,134.6 L 884.2,136.0 L 883.9,136.3 L 883.5,136.6 L 883.2,136.6 L 882.9,136.8 L 882.6,137.2 L 882.3,137.6 L 882.1,137.8 L 881.7,137.7 L 880.1,138.2 L 879.9,138.4 L 879.7,138.7 L 879.7,138.9 L 879.7,139.2 L 879.5,139.4 L 879.2,139.8 L 879.2,140.0 L 879.4,140.6 L 877.9,140.4 L 877.6,140.3 L 877.6,140.5 L 877.6,140.9 L 877.8,141.8 L 877.6,141.9 L 876.9,141.8 L 876.1,142.2 L 875.6,142.3 L 874.1,142.8 L 873.5,143.0 L 873.4,142.8 L 873.3,142.6 L 873.3,142.2 L 873.0,141.1 L 872.9,140.5 L 872.4,138.6 L 871.9,138.7 L 871.4,139.1 L 871.1,139.1 L 870.6,139.3 L 868.8,140.6 L 868.1,140.9 L 867.7,141.0 L 867.0,140.8 L 865.4,141.6 L 865.2,141.9 L 865.0,142.3 L 865.0,142.7 L 865.1,143.5 L 865.1,144.1 L 865.2,144.4 L 865.4,144.7 L 865.7,144.9 L 866.0,145.3 L 866.2,146.0 L 866.0,146.5 L 865.7,146.7 L 865.5,147.0 L 865.1,147.2 L 864.3,147.8 L 864.7,149.3 L 864.7,150.1 L 865.1,151.4 L 864.9,151.8 L 864.0,153.0 L 863.7,153.1 L 863.3,153.1 L 863.0,152.9 L 862.8,152.9 L 862.6,153.1 L 862.6,153.5 L 862.6,153.8 L 862.9,154.3 L 862.9,154.4 L 862.9,154.5 L 862.9,154.7 L 862.8,155.0 L 862.3,155.4 L 860.5,155.2 L 858.2,155.4 L 857.1,155.8 L 856.6,156.3 L 855.4,158.8 L 855.1,159.2 L 854.8,159.4 L 854.1,159.6 L 853.3,161.0 L 853.2,161.5 L 853.4,162.4 L 853.5,163.9 L 852.5,163.6 L 851.8,163.3 L 851.3,163.2 L 850.8,163.3 L 850.6,163.4 L 850.2,163.6 L 849.5,164.6 L 848.6,166.0 L 847.9,166.9 L 847.1,167.5 L 846.5,167.0 L 845.7,164.1 L 845.4,163.6 L 845.1,163.2 L 844.9,163.1 L 844.7,163.1 L 844.2,163.0 L 843.9,163.2 L 842.4,164.2 L 841.0,164.2 L 840.7,164.2 L 840.4,163.1 L 840.0,162.1 L 838.7,160.8 L 838.4,160.3 L 838.8,160.2 L 840.5,160.6 L 843.1,158.9 L 843.8,158.3 L 844.6,158.2 L 845.0,158.7 L 845.4,158.9 L 845.8,158.4 L 845.5,157.8 L 844.9,157.2 L 845.5,156.3 L 846.3,155.3 L 846.6,154.8 L 847.3,154.4 L 848.3,153.7 L 848.9,152.8 L 849.2,152.1 L 850.0,150.7 L 850.1,149.9 L 850.0,149.0 L 850.4,147.7 L 850.7,146.0 L 853.5,138.3 L 856.8,128.6 L 857.0,128.7 L 857.9,129.2 L 858.3,129.4 L 858.8,129.6 L 860.0,129.9 L 860.3,129.8 L 860.7,129.5 L 861.6,129.1 L 863.5,129.3 L 864.2,129.3 L 865.0,129.5 L 865.4,129.8 L 866.0,130.4 L 866.4,130.9 L 866.5,131.0 L 866.7,131.0 L 867.1,131.0 L 867.3,130.9 L 867.4,130.8 L 867.9,129.9 L 868.2,129.7 L 868.5,129.6 L 868.7,129.5 L 868.9,129.5 L 869.2,129.7 L 869.4,129.9 L 869.7,131.0 L 869.7,131.4 L 869.7,132.2 L 869.8,132.5 L 869.9,132.8 L 870.1,133.0 L 870.4,132.7 L 871.0,131.9 L 872.0,131.3 L 873.2,130.3 L 873.9,130.4 L 874.0,130.1 L 874.3,130.2 L 874.6,130.4 L 875.0,131.4 L 875.4,132.3 L 875.5,132.9 L 875.5,133.3 L 875.3,133.6 L 875.0,133.8 L 874.8,134.0 L 875.1,134.1 L 875.4,134.1 L 876.9,133.5 L 878.1,132.1 L 878.5,132.0 L 879.1,132.3 L 879.4,132.2 L 879.6,132.0 L 879.7,131.6 L 879.5,131.3 L 879.1,130.9 L 879.0,130.8 L 878.9,130.4 L 878.9,130.1 L 879.4,129.2 L 881.0,127.8 L 882.1,128.3 L 883.2,126.8 L 883.7,127.1 L 883.9,127.3 L 884.1,127.6 L 884.2,127.9 L 884.0,129.3 L 884.1,130.1 L 885.6,132.5 L 885.2,132.8 L 885.0,133.0 L 884.9,133.5 L 885.0,133.8 L 885.0,134.0 L 885.1,134.0 L 884.9,134.6 Z"/>
  <path id="Lisboa" d="M 856.1,188.2 L 855.7,188.2 L 855.3,188.3 L 855.3,188.0 L 855.0,187.4 L 854.6,186.5 L 854.3,185.5 L 854.6,184.8 L 853.8,184.9 L 853.4,184.1 L 853.2,183.0 L 852.8,181.9 L 854.4,178.6 L 855.3,177.1 L 856.6,176.2 L 857.3,176.0 L 858.9,175.9 L 859.6,175.6 L 860.9,174.6 L 860.9,174.8 L 860.8,175.0 L 860.6,175.1 L 859.9,176.0 L 858.5,176.4 L 858.7,176.8 L 859.0,177.1 L 858.3,178.2 L 858.2,178.6 L 857.8,179.1 L 857.4,179.9 L 856.2,183.3 L 855.7,184.3 L 855.4,184.7 L 854.9,185.3 L 854.9,185.8 L 855.5,186.6 L 855.6,186.8 L 855.8,187.1 L 856.1,188.2 Z M 860.8,174.0 L 859.2,175.2 L 856.1,175.6 L 855.6,176.0 L 854.9,177.3 L 853.1,179.8 L 851.1,183.8 L 850.0,185.1 L 849.6,185.8 L 849.4,186.5 L 849.5,187.4 L 849.6,189.0 L 849.7,190.1 L 849.2,191.2 L 847.3,191.7 L 845.3,192.1 L 842.9,191.9 L 842.3,192.4 L 841.6,193.2 L 840.2,192.3 L 838.6,191.6 L 837.7,191.5 L 836.2,191.7 L 835.4,191.5 L 835.5,190.5 L 835.7,189.7 L 835.2,187.7 L 835.2,186.7 L 835.4,186.3 L 835.9,185.7 L 836.8,184.8 L 837.9,181.1 L 837.8,178.2 L 837.4,176.5 L 837.8,175.4 L 837.9,174.2 L 839.4,171.6 L 839.8,170.3 L 840.5,168.6 L 840.7,166.9 L 840.9,165.4 L 840.7,164.2 L 841.0,164.2 L 842.4,164.2 L 843.9,163.2 L 844.2,163.0 L 844.7,163.1 L 844.9,163.1 L 845.1,163.2 L 845.4,163.6 L 845.7,164.1 L 846.5,167.0 L 847.1,167.5 L 847.9,166.9 L 848.6,166.0 L 849.5,164.6 L 850.2,163.6 L 850.6,163.4 L 850.8,163.3 L 851.3,163.2 L 851.8,163.3 L 852.5,163.6 L 853.5,163.9 L 853.9,165.0 L 853.8,165.7 L 856.3,166.4 L 857.8,166.0 L 858.1,166.7 L 859.9,168.5 L 859.4,168.9 L 858.8,169.1 L 857.8,169.0 L 857.3,169.2 L 856.8,169.6 L 856.8,169.8 L 857.0,170.1 L 857.3,170.2 L 857.5,170.4 L 857.8,171.0 L 857.9,171.3 L 859.0,172.3 L 859.2,172.5 L 860.0,172.8 L 860.2,173.0 L 860.4,173.1 L 860.5,173.4 L 860.8,174.0 Z M 851.8,184.0 L 852.0,183.9 L 852.0,184.2 L 851.8,184.9 L 851.3,185.6 L 850.6,186.3 L 850.4,186.2 L 850.7,185.4 L 851.0,184.7 L 851.4,184.3 L 851.7,184.1 L 851.8,184.0 Z"/>
  <path id="Madeira" d="M 581.9,468.9 L 580.6,466.8 L 580.3,466.4 L 580.1,466.0 L 579.9,465.6 L 579.9,465.0 L 580.5,465.6 L 581.2,466.6 L 581.7,467.8 L 581.9,468.9 Z M 570.9,460.5 L 570.3,461.8 L 568.8,462.3 L 567.0,462.4 L 564.1,462.2 L 558.1,459.7 L 556.7,458.8 L 555.5,457.7 L 554.5,456.5 L 554.2,455.7 L 554.1,455.0 L 554.3,454.3 L 554.9,454.1 L 555.1,453.9 L 556.0,452.6 L 556.3,452.4 L 556.6,452.4 L 556.8,452.4 L 557.2,452.6 L 557.6,452.9 L 558.5,453.9 L 558.9,454.1 L 559.1,454.1 L 559.9,454.4 L 560.8,455.0 L 561.8,455.1 L 562.8,454.8 L 563.5,454.4 L 564.0,454.1 L 564.8,454.0 L 566.2,453.8 L 566.8,454.0 L 567.9,454.8 L 568.3,455.0 L 570.2,456.4 L 570.6,456.7 L 571.0,456.8 L 572.4,456.8 L 573.1,457.0 L 573.7,457.4 L 574.0,457.1 L 574.4,457.0 L 574.8,457.1 L 575.1,457.4 L 574.5,457.5 L 573.2,458.1 L 572.8,458.2 L 572.3,458.6 L 571.2,460.1 L 570.9,460.5 Z M 587.2,444.5 L 586.7,445.1 L 586.3,445.5 L 585.8,445.6 L 585.1,445.2 L 585.1,444.9 L 585.5,444.9 L 585.7,444.7 L 586.0,444.4 L 586.4,443.0 L 587.1,442.4 L 588.0,442.2 L 588.8,442.6 L 589.0,442.2 L 589.0,443.5 L 589.2,444.0 L 589.5,444.3 L 588.3,444.1 L 587.7,444.1 L 587.2,444.5 Z M 598.5,573.1 L 598.7,573.2 L 598.7,573.3 L 598.5,573.3 L 598.5,573.1 Z M 604.4,568.1 L 604.8,568.4 L 604.8,568.7 L 604.6,568.9 L 604.5,568.9 L 604.2,568.8 L 604.1,568.7 L 604.1,568.6 L 604.1,568.5 L 604.4,568.1 Z"/>
  <path id="Portalegre" d="M 917.6,188.7 L 917.3,188.4 L 917.3,188.0 L 917.4,187.7 L 917.9,186.9 L 918.0,186.6 L 918.0,186.0 L 917.8,185.6 L 917.4,185.4 L 917.0,185.2 L 916.3,185.2 L 915.2,185.5 L 914.5,186.2 L 913.7,187.0 L 913.2,187.2 L 913.0,187.1 L 912.4,187.1 L 911.8,186.8 L 911.5,186.5 L 911.0,185.6 L 910.8,185.2 L 911.0,184.5 L 910.5,183.8 L 910.4,183.1 L 910.1,182.2 L 909.3,181.5 L 909.3,181.0 L 909.2,180.7 L 909.1,179.9 L 908.9,179.5 L 908.3,178.9 L 906.8,178.3 L 906.7,177.8 L 906.6,177.8 L 906.5,177.9 L 906.3,177.8 L 905.9,178.2 L 906.1,178.6 L 906.2,178.8 L 906.2,179.1 L 906.1,179.4 L 905.7,179.7 L 905.2,179.9 L 904.4,180.1 L 903.9,180.2 L 903.4,180.7 L 903.2,181.0 L 903.0,181.4 L 902.8,181.5 L 902.6,181.6 L 902.3,181.7 L 901.5,181.4 L 901.2,181.3 L 900.8,181.3 L 900.5,181.5 L 900.2,181.4 L 899.6,181.1 L 899.3,181.0 L 898.7,181.8 L 898.4,182.1 L 897.2,182.6 L 896.5,182.5 L 896.2,182.6 L 895.7,182.6 L 895.4,182.5 L 894.3,181.8 L 892.7,179.6 L 892.3,179.2 L 891.5,179.4 L 890.9,179.8 L 890.7,180.1 L 890.5,180.3 L 890.2,180.4 L 889.9,180.5 L 889.0,180.4 L 888.8,180.3 L 888.9,179.8 L 888.8,179.1 L 888.7,178.7 L 887.9,177.8 L 887.7,177.7 L 887.4,177.6 L 886.8,177.7 L 886.4,177.8 L 886.4,177.9 L 886.3,178.0 L 886.3,178.2 L 886.3,178.5 L 886.2,178.8 L 886.0,178.9 L 885.7,178.6 L 885.6,178.0 L 885.7,177.4 L 885.8,177.1 L 885.8,176.8 L 885.2,176.6 L 884.2,176.7 L 884.0,176.7 L 883.7,176.9 L 883.1,177.2 L 882.4,177.8 L 880.8,177.3 L 880.3,176.9 L 880.2,176.5 L 880.1,176.2 L 879.8,175.7 L 879.4,175.3 L 879.2,175.0 L 879.1,174.6 L 879.0,174.1 L 878.6,173.8 L 878.3,173.5 L 877.4,173.2 L 877.4,172.4 L 878.5,170.7 L 879.0,170.2 L 881.0,168.8 L 883.1,166.8 L 884.0,166.1 L 884.4,165.1 L 884.8,164.6 L 885.2,164.5 L 885.9,164.7 L 886.4,164.5 L 886.7,164.3 L 886.8,164.1 L 887.0,163.8 L 887.8,162.8 L 888.4,162.0 L 888.5,161.7 L 888.6,161.0 L 888.9,160.8 L 890.6,159.6 L 891.4,158.4 L 891.3,158.2 L 891.1,157.8 L 890.6,157.4 L 889.1,155.9 L 889.9,153.9 L 890.7,152.7 L 891.3,152.1 L 891.8,151.9 L 892.5,152.1 L 894.0,152.9 L 894.5,153.4 L 894.5,153.5 L 894.7,153.4 L 894.9,153.3 L 895.6,152.4 L 895.8,152.2 L 896.6,151.8 L 897.1,151.2 L 897.6,150.5 L 898.2,149.8 L 898.9,149.5 L 899.2,149.2 L 899.5,148.5 L 900.0,147.7 L 900.6,147.3 L 901.4,147.3 L 902.0,147.7 L 902.6,147.8 L 903.4,147.1 L 903.9,146.7 L 904.5,146.2 L 905.2,146.0 L 905.6,146.1 L 905.9,146.8 L 907.1,150.0 L 907.7,150.6 L 908.8,152.1 L 909.4,152.7 L 910.6,153.3 L 910.9,153.7 L 911.3,154.7 L 911.8,155.2 L 912.6,155.6 L 914.1,156.0 L 914.4,156.4 L 914.4,157.5 L 914.2,158.5 L 913.9,159.2 L 913.7,159.9 L 913.7,160.9 L 913.9,161.9 L 914.2,162.4 L 914.9,163.0 L 916.7,165.2 L 916.2,166.1 L 916.1,167.0 L 916.4,168.0 L 916.9,168.7 L 917.8,169.2 L 918.8,169.5 L 919.7,169.9 L 920.1,170.8 L 920.0,171.3 L 919.6,172.2 L 919.7,172.6 L 920.1,172.9 L 920.6,173.2 L 921.1,173.3 L 921.6,173.1 L 922.5,172.6 L 923.4,172.5 L 924.4,172.8 L 925.2,173.3 L 925.8,173.9 L 926.3,174.7 L 926.5,175.7 L 926.3,176.5 L 926.7,176.8 L 926.7,177.2 L 926.5,177.7 L 926.2,178.1 L 925.0,180.5 L 924.1,181.6 L 923.4,182.3 L 923.9,183.2 L 923.7,183.9 L 923.7,184.6 L 923.4,184.8 L 923.0,185.2 L 922.5,185.6 L 922.0,185.9 L 920.3,186.3 L 919.9,186.6 L 919.7,187.0 L 919.2,187.6 L 918.6,188.1 L 918.1,188.3 L 917.6,188.7 Z"/>
  <path id="Porto" d="M 890.4,65.4 L 891.0,66.1 L 891.0,66.6 L 891.0,67.0 L 891.3,67.4 L 891.8,67.7 L 892.8,68.4 L 892.6,69.1 L 892.8,69.8 L 893.4,70.9 L 893.9,71.2 L 894.0,71.3 L 893.5,73.3 L 893.5,74.4 L 893.3,75.6 L 891.7,76.6 L 887.3,78.1 L 886.2,78.2 L 882.6,78.0 L 881.4,78.2 L 879.0,79.2 L 878.8,79.7 L 878.7,79.9 L 877.0,81.1 L 876.2,80.8 L 875.3,81.3 L 875.3,81.5 L 875.3,81.8 L 875.5,82.1 L 875.5,82.4 L 875.4,82.6 L 875.1,82.6 L 874.4,82.1 L 874.2,81.6 L 874.0,81.3 L 873.3,80.5 L 872.6,81.3 L 872.5,81.5 L 872.2,82.2 L 872.0,82.4 L 871.6,82.4 L 871.1,82.1 L 870.8,81.8 L 870.4,81.7 L 870.0,81.7 L 869.4,82.1 L 868.3,82.5 L 867.7,82.1 L 866.1,82.3 L 865.8,82.4 L 865.8,81.7 L 865.3,78.5 L 865.4,76.8 L 866.0,76.2 L 866.0,75.9 L 864.7,75.5 L 864.0,74.2 L 863.5,72.5 L 862.8,71.2 L 863.0,70.5 L 862.9,70.0 L 862.7,69.5 L 862.5,68.9 L 862.5,67.4 L 862.4,66.9 L 862.1,66.8 L 862.0,66.3 L 861.8,65.8 L 861.3,64.9 L 861.1,64.2 L 861.1,63.6 L 861.0,62.2 L 861.4,60.7 L 862.3,60.7 L 863.1,61.2 L 864.1,61.6 L 865.0,61.7 L 865.3,61.8 L 865.6,62.1 L 865.9,62.3 L 866.5,63.0 L 867.0,63.3 L 867.4,63.4 L 867.8,63.7 L 867.9,64.0 L 867.8,64.3 L 867.6,64.4 L 867.2,64.5 L 866.9,64.9 L 867.0,65.2 L 867.1,65.9 L 867.3,66.2 L 867.6,66.4 L 867.7,66.4 L 868.1,66.3 L 870.1,66.3 L 870.4,66.2 L 870.7,66.1 L 871.0,65.9 L 871.3,65.7 L 871.9,65.3 L 872.6,65.1 L 873.0,65.1 L 873.3,65.2 L 873.5,65.4 L 874.4,65.6 L 875.6,65.3 L 877.0,65.1 L 877.3,65.2 L 877.8,65.5 L 878.1,65.5 L 878.9,65.2 L 879.2,65.1 L 880.3,64.6 L 881.0,64.1 L 881.6,63.2 L 883.4,63.9 L 884.1,64.7 L 884.2,64.9 L 884.2,65.4 L 885.5,66.4 L 886.6,66.9 L 887.0,66.8 L 887.8,67.2 L 888.2,67.6 L 888.6,67.5 L 888.8,67.4 L 889.1,67.2 L 889.3,67.0 L 889.5,66.8 L 889.7,66.6 L 889.9,66.5 L 890.1,66.3 L 890.2,66.1 L 890.3,65.9 L 890.4,65.4 Z"/>
  <path id="Santarém" d="M 882.4,177.8 L 882.1,178.4 L 881.8,178.6 L 881.3,178.6 L 881.2,178.6 L 881.0,178.9 L 880.9,179.4 L 880.9,180.1 L 880.8,180.6 L 880.6,181.0 L 880.4,181.3 L 880.2,181.6 L 880.1,181.9 L 880.2,182.2 L 880.4,182.5 L 880.7,182.7 L 882.6,183.5 L 883.0,183.6 L 883.2,183.7 L 883.4,184.1 L 883.2,184.9 L 883.1,185.2 L 883.4,185.6 L 884.0,186.3 L 884.2,186.3 L 884.6,186.4 L 884.8,186.7 L 884.8,187.1 L 884.6,187.8 L 884.0,188.4 L 883.4,188.0 L 883.3,187.8 L 883.1,187.2 L 882.9,187.1 L 882.7,187.2 L 882.5,187.1 L 882.4,186.9 L 882.3,186.7 L 882.2,186.4 L 882.0,186.1 L 881.6,186.0 L 880.4,185.8 L 880.1,185.5 L 879.2,184.5 L 878.9,184.3 L 878.7,184.3 L 878.5,184.5 L 878.4,184.7 L 878.2,184.9 L 878.0,184.8 L 877.7,184.8 L 877.3,185.0 L 876.8,184.9 L 876.2,184.7 L 875.9,184.7 L 875.8,184.9 L 875.8,185.2 L 875.6,185.5 L 875.4,185.6 L 875.2,185.7 L 875.0,185.8 L 874.5,185.8 L 874.2,185.9 L 873.4,186.6 L 873.0,186.9 L 871.4,187.2 L 869.7,188.7 L 868.8,188.5 L 868.4,188.6 L 868.0,188.5 L 867.6,187.9 L 867.5,187.5 L 867.6,187.1 L 867.6,186.8 L 867.6,186.4 L 867.7,186.1 L 867.7,185.9 L 867.5,185.8 L 866.9,186.0 L 866.2,186.5 L 865.2,186.1 L 864.7,185.8 L 864.5,185.6 L 864.3,185.5 L 864.0,185.6 L 863.0,187.7 L 862.5,189.0 L 862.4,189.3 L 861.9,190.0 L 861.3,190.2 L 861.0,190.2 L 860.0,189.9 L 859.7,189.4 L 859.4,189.3 L 859.0,189.2 L 858.4,189.4 L 858.0,189.6 L 857.3,189.9 L 856.8,189.9 L 856.5,189.8 L 856.2,189.5 L 856.0,188.8 L 856.1,188.2 L 855.8,187.1 L 855.6,186.8 L 855.5,186.6 L 854.9,185.8 L 854.9,185.3 L 855.4,184.7 L 855.7,184.3 L 856.2,183.3 L 857.4,179.9 L 857.8,179.1 L 858.2,178.6 L 858.3,178.2 L 859.0,177.1 L 858.7,176.8 L 858.5,176.4 L 859.9,176.0 L 860.6,175.1 L 860.8,175.0 L 860.9,174.8 L 860.9,174.6 L 861.4,174.0 L 861.8,173.3 L 860.8,174.0 L 860.5,173.4 L 860.4,173.1 L 860.2,173.0 L 860.0,172.8 L 859.2,172.5 L 859.0,172.3 L 857.9,171.3 L 857.8,171.0 L 857.5,170.4 L 857.3,170.2 L 857.0,170.1 L 856.8,169.8 L 856.8,169.6 L 857.3,169.2 L 857.8,169.0 L 858.8,169.1 L 859.4,168.9 L 859.9,168.5 L 858.1,166.7 L 857.8,166.0 L 856.3,166.4 L 853.8,165.7 L 853.9,165.0 L 853.5,163.9 L 853.4,162.4 L 853.2,161.5 L 853.3,161.0 L 854.1,159.6 L 854.8,159.4 L 855.1,159.2 L 855.4,158.8 L 856.6,156.3 L 857.1,155.8 L 858.2,155.4 L 860.5,155.2 L 862.3,155.4 L 862.8,155.0 L 862.9,154.7 L 862.9,154.5 L 862.9,154.4 L 862.9,154.3 L 862.6,153.8 L 862.6,153.5 L 862.6,153.1 L 862.8,152.9 L 863.0,152.9 L 863.3,153.1 L 863.7,153.1 L 864.0,153.0 L 864.9,151.8 L 865.1,151.4 L 864.7,150.1 L 864.7,149.3 L 864.3,147.8 L 865.1,147.2 L 865.5,147.0 L 865.7,146.7 L 866.0,146.5 L 866.2,146.0 L 866.0,145.3 L 865.7,144.9 L 865.4,144.7 L 865.2,144.4 L 865.1,144.1 L 865.1,143.5 L 865.0,142.7 L 865.0,142.3 L 865.2,141.9 L 865.4,141.6 L 867.0,140.8 L 867.7,141.0 L 868.1,140.9 L 868.8,140.6 L 870.6,139.3 L 871.1,139.1 L 871.4,139.1 L 871.9,138.7 L 872.4,138.6 L 872.9,140.5 L 873.0,141.1 L 873.3,142.2 L 873.3,142.6 L 873.4,142.8 L 873.5,143.0 L 874.1,142.8 L 875.6,142.3 L 876.1,142.2 L 876.9,141.8 L 877.6,141.9 L 877.8,141.8 L 877.6,140.9 L 877.6,140.5 L 877.6,140.3 L 877.9,140.4 L 879.4,140.6 L 879.6,141.3 L 880.0,141.5 L 880.5,141.7 L 880.9,141.9 L 881.1,142.1 L 881.2,142.4 L 881.3,142.6 L 881.3,142.9 L 881.2,143.1 L 881.3,143.9 L 881.1,144.4 L 881.1,145.3 L 881.2,147.0 L 881.5,147.6 L 883.5,148.4 L 884.5,149.0 L 885.2,149.0 L 886.5,148.9 L 887.3,148.6 L 887.3,148.4 L 887.2,148.1 L 887.0,147.3 L 886.9,146.8 L 887.1,146.2 L 887.4,145.7 L 887.8,143.3 L 888.0,143.0 L 888.7,142.8 L 889.9,143.2 L 890.8,143.3 L 891.0,143.5 L 891.1,143.8 L 891.2,144.1 L 891.2,144.5 L 891.2,144.8 L 891.3,145.5 L 891.2,146.2 L 891.3,146.6 L 891.6,146.8 L 892.0,146.9 L 892.4,146.9 L 893.1,147.2 L 893.7,147.6 L 894.3,148.1 L 895.1,148.9 L 895.8,150.1 L 896.0,150.5 L 896.3,151.3 L 896.6,151.8 L 895.8,152.2 L 895.6,152.4 L 894.9,153.3 L 894.7,153.4 L 894.5,153.5 L 894.5,153.4 L 894.0,152.9 L 892.5,152.1 L 891.8,151.9 L 891.3,152.1 L 890.7,152.7 L 889.9,153.9 L 889.1,155.9 L 890.6,157.4 L 891.1,157.8 L 891.3,158.2 L 891.4,158.4 L 890.6,159.6 L 888.9,160.8 L 888.6,161.0 L 888.5,161.7 L 888.4,162.0 L 887.8,162.8 L 887.0,163.8 L 886.8,164.1 L 886.7,164.3 L 886.4,164.5 L 885.9,164.7 L 885.2,164.5 L 884.8,164.6 L 884.4,165.1 L 884.0,166.1 L 883.1,166.8 L 881.0,168.8 L 879.0,170.2 L 878.5,170.7 L 877.4,172.4 L 877.4,173.2 L 878.3,173.5 L 878.6,173.8 L 879.0,174.1 L 879.1,174.6 L 879.2,175.0 L 879.4,175.3 L 879.8,175.7 L 880.1,176.2 L 880.2,176.5 L 880.3,176.9 L 880.8,177.3 L 882.4,177.8 Z"/>
  <path id="Setúbal" d="M 869.7,188.7 L 871.2,189.0 L 871.4,189.1 L 871.5,189.6 L 871.1,190.3 L 871.2,190.6 L 871.1,191.2 L 870.8,191.7 L 870.2,192.4 L 867.2,194.5 L 865.9,196.2 L 865.9,196.5 L 865.9,197.0 L 866.1,197.3 L 866.2,197.6 L 866.4,198.8 L 867.5,198.9 L 868.9,199.8 L 869.9,199.9 L 870.8,200.2 L 871.0,200.1 L 871.1,199.8 L 871.0,199.5 L 870.9,199.3 L 871.1,199.1 L 871.4,199.2 L 871.7,199.3 L 871.8,199.6 L 872.0,199.8 L 872.3,200.0 L 872.8,200.2 L 873.8,200.2 L 874.3,200.0 L 875.2,199.4 L 875.8,199.3 L 876.2,199.4 L 876.9,200.3 L 877.3,200.8 L 877.5,201.1 L 877.6,201.3 L 877.6,201.6 L 878.1,202.8 L 878.1,203.1 L 877.9,203.3 L 877.9,203.5 L 878.1,203.8 L 878.6,204.0 L 878.9,204.2 L 879.1,204.6 L 878.9,205.4 L 878.3,206.4 L 878.3,206.8 L 878.6,206.9 L 879.3,207.2 L 879.8,207.6 L 880.6,208.1 L 880.9,208.2 L 881.3,208.2 L 881.6,208.2 L 882.3,208.5 L 883.6,209.5 L 884.5,211.5 L 884.8,212.6 L 884.8,213.1 L 884.8,213.4 L 884.6,213.9 L 883.3,214.3 L 882.7,214.6 L 881.4,214.9 L 881.1,215.0 L 881.0,215.5 L 880.8,215.9 L 879.5,215.9 L 879.2,216.1 L 879.1,216.3 L 879.0,216.7 L 878.8,217.5 L 878.5,217.7 L 878.3,217.6 L 878.0,217.4 L 877.6,217.2 L 877.4,217.3 L 877.2,217.5 L 876.9,217.6 L 876.8,217.8 L 876.8,218.0 L 876.8,218.2 L 876.7,218.4 L 876.6,218.9 L 876.5,219.0 L 876.4,219.2 L 876.2,219.2 L 876.0,219.2 L 875.8,219.1 L 875.5,219.1 L 875.3,219.5 L 875.2,219.8 L 875.1,220.1 L 875.1,220.4 L 875.0,220.7 L 875.0,220.9 L 875.1,221.2 L 875.2,221.6 L 875.9,222.2 L 876.5,222.8 L 876.9,223.1 L 877.3,223.2 L 877.8,223.2 L 878.3,223.6 L 878.5,224.0 L 878.9,225.0 L 878.9,226.3 L 878.7,228.4 L 878.3,229.6 L 878.1,229.9 L 877.6,231.2 L 876.5,230.6 L 876.4,230.6 L 875.4,230.6 L 873.8,230.3 L 870.6,230.9 L 870.0,231.2 L 869.6,231.5 L 869.5,231.9 L 869.4,232.2 L 868.7,232.9 L 868.6,233.2 L 868.2,234.2 L 868.2,234.6 L 868.1,234.9 L 867.9,235.2 L 867.3,235.5 L 866.9,235.4 L 866.3,235.2 L 866.0,234.9 L 865.7,234.8 L 865.4,234.7 L 865.2,234.8 L 865.1,235.1 L 864.9,235.3 L 864.7,235.3 L 864.6,235.1 L 864.2,234.5 L 863.3,233.3 L 863.2,233.1 L 862.9,232.7 L 862.3,232.5 L 862.0,232.6 L 861.7,232.8 L 861.5,232.9 L 861.2,232.9 L 861.0,232.8 L 860.8,232.5 L 860.5,232.1 L 860.6,231.3 L 860.6,229.8 L 860.3,228.7 L 859.8,227.5 L 858.6,227.3 L 857.1,226.4 L 857.2,226.0 L 857.5,225.8 L 857.8,225.7 L 858.1,225.4 L 859.9,221.3 L 860.6,218.0 L 861.4,215.6 L 861.3,213.1 L 861.0,210.2 L 860.7,207.6 L 859.8,205.8 L 858.8,204.8 L 857.7,203.4 L 856.4,202.4 L 855.3,202.0 L 855.9,201.4 L 856.7,201.7 L 858.1,202.9 L 859.7,203.5 L 860.5,203.9 L 860.6,204.5 L 862.1,204.5 L 865.7,205.4 L 867.5,204.9 L 866.4,204.8 L 865.5,204.6 L 862.8,203.3 L 862.5,202.9 L 862.3,202.3 L 862.2,201.7 L 862.3,201.1 L 862.5,200.6 L 862.8,200.4 L 862.8,200.1 L 862.3,199.9 L 861.9,199.3 L 861.8,198.7 L 862.0,198.2 L 861.5,198.1 L 860.8,199.5 L 860.0,199.8 L 860.0,200.1 L 860.9,200.2 L 861.2,200.8 L 861.2,201.6 L 860.9,202.0 L 860.1,201.9 L 859.3,201.7 L 858.1,201.0 L 856.7,200.5 L 854.9,200.9 L 853.3,202.8 L 853.6,203.0 L 851.5,203.8 L 848.0,204.3 L 847.2,204.6 L 846.7,205.0 L 846.0,205.1 L 845.1,204.9 L 844.9,204.9 L 844.8,204.6 L 844.8,204.3 L 844.9,204.0 L 845.0,203.9 L 845.3,203.5 L 846.4,202.4 L 846.6,200.9 L 846.6,198.7 L 845.7,196.6 L 844.6,194.8 L 844.1,193.4 L 844.8,193.1 L 846.5,192.8 L 848.0,192.7 L 848.8,193.2 L 849.1,193.7 L 849.4,193.7 L 849.1,192.8 L 849.7,192.5 L 850.8,192.2 L 851.4,192.1 L 851.4,191.8 L 851.9,191.2 L 852.5,190.6 L 853.5,189.8 L 854.8,188.7 L 855.0,188.6 L 855.2,188.4 L 855.3,188.3 L 855.7,188.2 L 856.1,188.2 L 856.0,188.8 L 856.2,189.5 L 856.5,189.8 L 856.8,189.9 L 857.3,189.9 L 858.0,189.6 L 858.4,189.4 L 859.0,189.2 L 859.4,189.3 L 859.7,189.4 L 860.0,189.9 L 861.0,190.2 L 861.3,190.2 L 861.9,190.0 L 862.4,189.3 L 862.5,189.0 L 863.0,187.7 L 864.0,185.6 L 864.3,185.5 L 864.5,185.6 L 864.7,185.8 L 865.2,186.1 L 866.2,186.5 L 866.9,186.0 L 867.5,185.8 L 867.7,185.9 L 867.7,186.1 L 867.6,186.4 L 867.6,186.8 L 867.6,187.1 L 867.5,187.5 L 867.6,187.9 L 868.0,188.5 L 868.4,188.6 L 868.8,188.5 L 869.7,188.7 Z"/>
  <path id="Viana do Castelo" d="M 883.0,43.9 L 882.9,44.0 L 882.4,44.0 L 879.0,45.9 L 878.1,46.2 L 874.9,46.3 L 874.4,46.5 L 873.9,46.7 L 873.6,46.9 L 873.0,47.4 L 872.3,47.7 L 872.1,47.6 L 871.8,47.6 L 871.5,47.6 L 871.3,47.8 L 871.0,48.1 L 870.9,48.4 L 870.8,48.8 L 870.7,49.6 L 870.7,49.9 L 870.6,50.2 L 870.2,50.6 L 870.1,50.9 L 870.0,51.2 L 870.1,51.7 L 869.5,52.9 L 869.3,52.8 L 868.9,52.7 L 868.5,52.5 L 867.8,52.4 L 866.7,52.0 L 866.4,51.8 L 866.3,51.9 L 866.1,52.1 L 865.9,52.4 L 865.5,52.4 L 863.7,52.5 L 861.0,53.5 L 860.7,53.5 L 860.0,53.4 L 859.8,53.4 L 859.8,52.8 L 859.5,51.9 L 859.4,50.8 L 859.5,50.2 L 860.3,49.9 L 862.6,49.5 L 863.2,49.3 L 863.8,48.8 L 864.3,48.3 L 860.3,49.5 L 859.4,49.7 L 859.0,49.6 L 858.3,49.2 L 857.6,47.6 L 857.6,46.2 L 857.9,44.0 L 857.7,42.6 L 857.8,42.1 L 858.1,41.7 L 860.6,39.5 L 861.9,38.1 L 862.3,36.3 L 862.7,36.0 L 863.5,35.6 L 864.5,35.3 L 865.2,34.8 L 865.5,34.3 L 865.9,33.3 L 866.2,32.8 L 866.8,32.3 L 867.4,32.2 L 868.7,32.1 L 869.4,31.9 L 870.7,31.0 L 871.3,30.7 L 876.9,29.8 L 877.6,29.5 L 878.5,28.7 L 878.8,28.5 L 879.1,28.4 L 879.7,28.4 L 880.4,28.1 L 881.5,27.3 L 881.8,27.8 L 882.1,28.5 L 882.0,30.6 L 882.1,31.4 L 882.6,31.8 L 883.1,31.6 L 883.8,31.3 L 884.5,31.2 L 885.2,31.5 L 885.8,32.1 L 886.1,32.8 L 886.0,33.7 L 885.6,34.3 L 885.0,34.8 L 884.0,35.4 L 882.9,36.5 L 881.5,38.6 L 881.2,39.4 L 881.1,40.4 L 881.5,41.2 L 882.8,41.7 L 883.1,42.1 L 883.2,42.8 L 883.0,43.9 Z"/>
  <path id="Vila Real" d="M 918.2,40.2 L 918.2,40.5 L 918.5,41.4 L 918.4,41.9 L 918.3,42.9 L 918.4,43.8 L 918.5,44.2 L 918.8,45.1 L 919.5,46.0 L 919.5,46.4 L 919.5,47.1 L 919.4,47.4 L 919.2,47.7 L 919.0,47.8 L 918.7,48.1 L 917.8,50.0 L 916.6,54.0 L 916.5,55.3 L 916.5,56.0 L 916.6,56.4 L 916.8,56.7 L 917.0,57.0 L 917.1,57.3 L 917.2,57.6 L 917.1,57.9 L 916.8,58.0 L 916.5,58.1 L 916.2,58.1 L 915.8,58.3 L 915.5,58.7 L 915.0,59.5 L 914.8,60.3 L 914.5,60.7 L 914.1,60.9 L 913.8,61.0 L 912.6,61.9 L 912.6,64.3 L 912.8,65.3 L 913.1,65.9 L 913.4,66.3 L 914.3,66.8 L 913.0,67.2 L 912.4,67.9 L 912.3,68.4 L 912.4,68.7 L 912.3,68.9 L 911.9,69.3 L 911.6,69.7 L 911.5,70.4 L 911.4,70.8 L 911.5,71.1 L 911.5,71.3 L 911.4,71.4 L 910.9,71.5 L 910.5,71.7 L 910.4,71.9 L 910.3,72.2 L 910.1,72.8 L 905.8,74.4 L 904.1,74.6 L 902.6,74.5 L 902.5,74.5 L 901.9,74.5 L 901.4,74.8 L 900.3,75.5 L 899.7,75.8 L 899.0,75.9 L 898.3,75.8 L 897.7,75.7 L 897.3,75.3 L 896.4,74.5 L 895.9,74.2 L 895.2,74.3 L 893.3,75.6 L 893.5,74.4 L 893.5,73.3 L 894.0,71.3 L 893.9,71.2 L 893.4,70.9 L 892.8,69.8 L 892.6,69.1 L 892.8,68.4 L 891.8,67.7 L 891.3,67.4 L 891.0,67.0 L 891.0,66.6 L 891.0,66.1 L 890.4,65.4 L 890.7,64.5 L 890.7,64.3 L 890.6,63.9 L 890.7,63.8 L 890.8,63.7 L 891.0,63.6 L 891.1,63.2 L 891.6,62.4 L 891.7,62.0 L 891.8,61.8 L 891.6,61.4 L 891.9,60.3 L 892.3,59.8 L 892.5,59.7 L 892.6,59.7 L 892.9,59.7 L 893.3,59.4 L 893.5,58.8 L 893.6,58.7 L 894.3,58.3 L 894.7,57.9 L 896.2,55.7 L 896.3,55.1 L 895.7,54.0 L 895.5,53.8 L 895.1,53.6 L 894.4,54.4 L 893.3,54.8 L 892.8,54.7 L 891.4,54.4 L 891.1,54.3 L 890.7,54.1 L 890.3,54.0 L 889.6,53.7 L 889.7,51.5 L 889.8,51.1 L 889.9,50.5 L 889.8,50.2 L 889.7,50.0 L 888.7,49.4 L 888.5,49.3 L 888.2,49.3 L 887.6,49.6 L 887.3,49.6 L 887.0,49.6 L 886.7,49.6 L 886.4,49.6 L 886.2,49.7 L 885.7,49.8 L 885.2,49.8 L 886.1,48.8 L 886.2,48.5 L 886.4,48.1 L 886.8,47.0 L 887.1,46.4 L 887.4,45.0 L 887.5,44.7 L 887.7,44.4 L 887.8,44.1 L 887.8,43.9 L 887.7,43.8 L 887.8,43.7 L 888.9,42.5 L 889.3,41.9 L 889.7,41.4 L 890.3,41.2 L 890.8,41.3 L 891.5,41.3 L 891.9,40.7 L 892.0,39.8 L 892.2,39.3 L 892.9,39.0 L 893.0,40.3 L 893.3,41.7 L 894.4,41.7 L 894.7,41.4 L 894.8,41.1 L 895.0,40.9 L 895.3,40.7 L 896.3,40.8 L 898.6,40.2 L 899.6,39.7 L 900.2,39.9 L 901.2,40.6 L 901.8,40.9 L 903.7,41.0 L 903.2,42.5 L 903.2,43.0 L 903.8,43.3 L 904.4,43.4 L 905.2,43.2 L 905.9,43.0 L 906.5,42.6 L 906.7,42.2 L 906.7,41.9 L 906.8,41.6 L 907.1,41.4 L 907.3,41.4 L 907.9,41.8 L 908.2,41.8 L 908.7,42.0 L 909.2,42.6 L 909.6,43.5 L 909.7,44.3 L 910.2,43.8 L 911.1,42.8 L 911.6,42.5 L 912.1,42.4 L 913.4,42.4 L 914.1,42.3 L 916.6,41.4 L 917.8,40.7 L 918.2,40.2 Z"/>
  <path id="Viseu" d="M 914.9,75.5 L 913.9,78.7 L 913.6,80.1 L 913.5,81.0 L 913.7,82.3 L 913.2,82.6 L 912.3,82.5 L 912.2,82.7 L 912.3,83.0 L 912.5,83.6 L 912.8,83.8 L 913.2,84.1 L 913.5,84.2 L 913.7,84.5 L 913.7,84.8 L 913.7,85.4 L 913.4,86.2 L 912.2,87.3 L 910.9,86.9 L 910.4,87.2 L 910.6,88.1 L 910.7,88.4 L 910.8,88.9 L 910.8,89.4 L 910.0,91.3 L 909.6,91.9 L 909.0,91.8 L 908.8,91.5 L 908.6,91.3 L 907.3,90.0 L 906.8,89.6 L 906.4,89.4 L 905.5,89.4 L 905.1,89.6 L 904.8,89.9 L 904.7,90.1 L 904.3,91.4 L 903.9,92.1 L 903.5,92.7 L 903.3,93.0 L 903.4,93.4 L 903.7,93.7 L 904.6,94.5 L 904.8,94.8 L 904.9,95.1 L 904.9,95.4 L 904.8,95.7 L 904.4,96.2 L 904.8,96.9 L 905.6,97.4 L 906.2,98.3 L 906.0,99.5 L 905.5,100.1 L 904.7,102.7 L 904.8,103.7 L 902.4,104.1 L 900.9,104.7 L 899.7,105.5 L 898.7,105.9 L 897.7,106.6 L 897.3,106.7 L 896.2,106.9 L 895.9,107.2 L 895.1,107.4 L 894.7,107.7 L 894.3,108.2 L 893.1,109.1 L 892.2,110.5 L 891.6,110.8 L 890.0,111.9 L 888.0,112.8 L 885.3,114.8 L 883.2,114.5 L 881.7,114.8 L 881.5,114.9 L 881.4,115.1 L 881.4,115.3 L 881.3,115.5 L 881.2,115.7 L 881.0,115.7 L 880.7,115.4 L 880.1,115.1 L 879.5,114.6 L 878.7,114.0 L 877.6,113.7 L 877.2,113.4 L 876.8,113.2 L 876.7,111.8 L 877.7,110.1 L 877.9,109.7 L 877.9,109.1 L 877.5,108.5 L 877.4,108.1 L 877.5,107.9 L 878.3,107.2 L 880.3,106.4 L 879.9,105.7 L 879.7,105.4 L 879.4,105.2 L 879.2,104.9 L 879.0,104.0 L 878.6,103.0 L 878.6,102.6 L 878.8,102.3 L 879.0,102.0 L 880.5,101.5 L 879.9,101.0 L 879.2,100.7 L 879.1,100.6 L 878.8,99.9 L 878.8,98.6 L 878.7,98.3 L 878.4,97.9 L 877.9,97.3 L 877.8,97.0 L 877.7,96.7 L 877.7,96.5 L 877.7,96.3 L 878.1,95.7 L 878.9,95.0 L 879.8,94.0 L 880.5,92.4 L 880.8,91.9 L 880.9,91.6 L 880.5,90.1 L 881.6,90.0 L 881.9,90.2 L 882.3,90.2 L 882.7,90.2 L 883.4,89.8 L 883.8,89.8 L 884.1,89.9 L 884.4,90.2 L 884.7,90.3 L 885.0,90.3 L 885.3,90.2 L 885.5,89.9 L 885.5,89.3 L 885.2,88.5 L 885.0,87.2 L 884.9,86.6 L 884.8,86.3 L 885.0,85.7 L 885.1,85.2 L 886.3,83.5 L 886.3,83.3 L 886.4,83.2 L 886.4,83.1 L 886.3,82.9 L 886.2,82.7 L 886.0,82.7 L 885.5,83.1 L 885.4,83.2 L 885.3,83.4 L 885.0,84.0 L 884.5,84.1 L 884.1,84.1 L 881.4,82.8 L 881.4,81.7 L 881.4,81.4 L 881.3,80.9 L 881.2,80.6 L 879.0,79.2 L 881.4,78.2 L 882.6,78.0 L 886.2,78.2 L 887.3,78.1 L 891.7,76.6 L 893.3,75.6 L 895.2,74.3 L 895.9,74.2 L 896.4,74.5 L 897.3,75.3 L 897.7,75.7 L 898.3,75.8 L 899.0,75.9 L 899.7,75.8 L 900.3,75.5 L 901.4,74.8 L 901.9,74.5 L 902.5,74.5 L 902.6,74.5 L 904.1,74.6 L 905.8,74.4 L 910.1,72.8 L 910.6,72.8 L 911.2,73.2 L 912.3,74.8 L 912.7,75.2 L 913.9,75.6 L 914.9,75.5 Z"/>
  <path id="Évora" d="M 917.6,188.7 L 916.0,190.1 L 915.9,190.3 L 915.6,190.9 L 915.5,191.2 L 915.2,192.8 L 915.1,193.8 L 915.2,194.3 L 915.2,194.7 L 915.4,195.0 L 915.6,195.1 L 915.8,195.3 L 916.0,195.6 L 915.8,196.3 L 914.2,198.5 L 913.6,200.8 L 913.2,201.4 L 913.7,202.0 L 913.6,202.5 L 913.3,203.0 L 912.7,203.6 L 913.2,203.8 L 914.3,204.6 L 918.1,209.5 L 918.3,209.8 L 918.5,210.4 L 918.6,210.7 L 918.9,211.0 L 919.5,211.4 L 919.7,211.6 L 921.2,215.4 L 921.5,215.7 L 921.4,215.8 L 921.1,216.0 L 920.8,216.1 L 920.2,216.0 L 919.8,215.7 L 919.5,215.4 L 919.2,214.7 L 919.1,214.4 L 918.7,213.5 L 918.6,213.1 L 918.5,212.8 L 918.3,212.6 L 917.4,212.2 L 916.6,211.4 L 916.5,211.1 L 916.4,210.8 L 916.3,210.4 L 916.2,210.1 L 916.0,209.8 L 915.8,209.6 L 915.8,209.5 L 915.7,209.2 L 915.7,209.1 L 915.6,208.9 L 915.3,208.9 L 915.0,208.9 L 914.1,209.3 L 913.9,209.3 L 913.6,209.4 L 912.4,210.0 L 911.2,210.4 L 911.2,210.7 L 911.2,211.0 L 911.0,211.4 L 910.7,211.8 L 910.4,212.1 L 910.2,212.3 L 909.7,212.6 L 909.6,212.8 L 908.6,213.3 L 908.0,214.0 L 907.5,214.7 L 907.4,215.0 L 907.0,215.1 L 905.4,215.1 L 904.6,214.8 L 903.9,214.7 L 901.5,214.6 L 901.0,214.5 L 898.7,213.2 L 897.7,212.8 L 895.9,212.6 L 892.8,211.2 L 892.0,210.2 L 890.9,209.8 L 890.6,209.7 L 890.2,209.7 L 889.4,210.1 L 889.1,210.1 L 888.8,210.0 L 888.4,209.7 L 888.0,209.2 L 887.8,209.2 L 887.3,209.1 L 886.5,209.2 L 883.8,209.1 L 883.6,209.5 L 882.3,208.5 L 881.6,208.2 L 881.3,208.2 L 880.9,208.2 L 880.6,208.1 L 879.8,207.6 L 879.3,207.2 L 878.6,206.9 L 878.3,206.8 L 878.3,206.4 L 878.9,205.4 L 879.1,204.6 L 878.9,204.2 L 878.6,204.0 L 878.1,203.8 L 877.9,203.5 L 877.9,203.3 L 878.1,203.1 L 878.1,202.8 L 877.6,201.6 L 877.6,201.3 L 877.5,201.1 L 877.3,200.8 L 876.9,200.3 L 876.2,199.4 L 875.8,199.3 L 875.2,199.4 L 874.3,200.0 L 873.8,200.2 L 872.8,200.2 L 872.3,200.0 L 872.0,199.8 L 871.8,199.6 L 871.7,199.3 L 871.4,199.2 L 871.1,199.1 L 870.9,199.3 L 871.0,199.5 L 871.1,199.8 L 871.0,200.1 L 870.8,200.2 L 869.9,199.9 L 868.9,199.8 L 867.5,198.9 L 866.4,198.8 L 866.2,197.6 L 866.1,197.3 L 865.9,197.0 L 865.9,196.5 L 865.9,196.2 L 867.2,194.5 L 870.2,192.4 L 870.8,191.7 L 871.1,191.2 L 871.2,190.6 L 871.1,190.3 L 871.5,189.6 L 871.4,189.1 L 871.2,189.0 L 869.7,188.7 L 871.4,187.2 L 873.0,186.9 L 873.4,186.6 L 874.2,185.9 L 874.5,185.8 L 875.0,185.8 L 875.2,185.7 L 875.4,185.6 L 875.6,185.5 L 875.8,185.2 L 875.8,184.9 L 875.9,184.7 L 876.2,184.7 L 876.8,184.9 L 877.3,185.0 L 877.7,184.8 L 878.0,184.8 L 878.2,184.9 L 878.4,184.7 L 878.5,184.5 L 878.7,184.3 L 878.9,184.3 L 879.2,184.5 L 880.1,185.5 L 880.4,185.8 L 881.6,186.0 L 882.0,186.1 L 882.2,186.4 L 882.3,186.7 L 882.4,186.9 L 882.5,187.1 L 882.7,187.2 L 882.9,187.1 L 883.1,187.2 L 883.3,187.8 L 883.4,188.0 L 884.0,188.4 L 884.6,187.8 L 884.8,187.1 L 884.8,186.7 L 884.6,186.4 L 884.2,186.3 L 884.0,186.3 L 883.4,185.6 L 883.1,185.2 L 883.2,184.9 L 883.4,184.1 L 883.2,183.7 L 883.0,183.6 L 882.6,183.5 L 880.7,182.7 L 880.4,182.5 L 880.2,182.2 L 880.1,181.9 L 880.2,181.6 L 880.4,181.3 L 880.6,181.0 L 880.8,180.6 L 880.9,180.1 L 880.9,179.4 L 881.0,178.9 L 881.2,178.6 L 881.3,178.6 L 881.8,178.6 L 882.1,178.4 L 882.4,177.8 L 883.1,177.2 L 883.7,176.9 L 884.0,176.7 L 884.2,176.7 L 885.2,176.6 L 885.8,176.8 L 885.8,177.1 L 885.7,177.4 L 885.6,178.0 L 885.7,178.6 L 886.0,178.9 L 886.2,178.8 L 886.3,178.5 L 886.3,178.2 L 886.3,178.0 L 886.4,177.9 L 886.4,177.8 L 886.8,177.7 L 887.4,177.6 L 887.7,177.7 L 887.9,177.8 L 888.7,178.7 L 888.8,179.1 L 888.9,179.8 L 888.8,180.3 L 889.0,180.4 L 889.9,180.5 L 890.2,180.4 L 890.5,180.3 L 890.7,180.1 L 890.9,179.8 L 891.5,179.4 L 892.3,179.2 L 892.7,179.6 L 894.3,181.8 L 895.4,182.5 L 895.7,182.6 L 896.2,182.6 L 896.5,182.5 L 897.2,182.6 L 898.4,182.1 L 898.7,181.8 L 899.3,181.0 L 899.6,181.1 L 900.2,181.4 L 900.5,181.5 L 900.8,181.3 L 901.2,181.3 L 901.5,181.4 L 902.3,181.7 L 902.6,181.6 L 902.8,181.5 L 903.0,181.4 L 903.2,181.0 L 903.4,180.7 L 903.9,180.2 L 904.4,180.1 L 905.2,179.9 L 905.7,179.7 L 906.1,179.4 L 906.2,179.1 L 906.2,178.8 L 906.1,178.6 L 905.9,178.2 L 906.3,177.8 L 906.5,177.9 L 906.6,177.8 L 906.7,177.8 L 906.8,178.3 L 908.3,178.9 L 908.9,179.5 L 909.1,179.9 L 909.2,180.7 L 909.3,181.0 L 909.3,181.5 L 910.1,182.2 L 910.4,183.1 L 910.5,183.8 L 911.0,184.5 L 910.8,185.2 L 911.0,185.6 L 911.5,186.5 L 911.8,186.8 L 912.4,187.1 L 913.0,187.1 L 913.2,187.2 L 913.7,187.0 L 914.5,186.2 L 915.2,185.5 L 916.3,185.2 L 917.0,185.2 L 917.4,185.4 L 917.8,185.6 L 918.0,186.0 L 918.0,186.6 L 917.9,186.9 L 917.4,187.7 L 917.3,188.0 L 917.3,188.4 L 917.6,188.7 Z"/>
</svg>
