<svg xmlns="http://www.w3.org/2000/svg" viewBox="0 0 1000 947">
  <path id="Silesia" d="M 528.60,820.00 L 528.10,819.80 L 527.60,820.00 L 527.20,820.70 L 519.40,829.40 L 518.70,830.00 L 517.40,830.50 L 516.50,830.70 L 513.70,830.70 L 511.90,831.00 L 510.40,831.80 L 509.10,833.00 L 507.90,835.00 L 506.40,839.50 L 506.60,839.70 L 506.90,840.10 L 507.10,840.80 L 506.80,841.70 L 506.40,842.00 L 505.30,842.10 L 505.10,842.10 L 504.40,844.80 L 504.20,846.60 L 503.50,847.70 L 500.70,848.80 L 498.50,849.30 L 497.50,849.20 L 496.70,848.70 L 494.90,847.40 L 494.00,847.10 L 492.00,847.60 L 488.50,849.70 L 486.20,849.80 L 484.50,849.50 L 484.00,847.90 L 484.30,843.30 L 484.10,841.30 L 483.70,839.40 L 483.60,837.40 L 484.40,835.00 L 481.70,833.40 L 472.70,832.60 L 473.10,830.50 L 473.10,830.30 L 472.90,827.40 L 471.60,821.40 L 471.20,820.20 L 470.10,817.70 L 469.70,816.40 L 469.10,811.50 L 468.70,810.40 L 467.30,809.40 L 465.90,809.70 L 464.50,810.30 L 463.20,810.40 L 462.00,809.70 L 460.20,807.60 L 459.10,806.60 L 457.80,806.20 L 456.90,806.20 L 455.60,806.00 L 455.00,806.00 L 453.80,805.10 L 453.20,804.10 L 452.30,800.00 L 450.10,795.60 L 448.60,791.30 L 448.50,787.60 L 449.00,787.10 L 449.00,787.00 L 450.20,785.60 L 450.70,785.10 L 450.80,784.90 L 450.80,784.50 L 448.60,783.40 L 448.20,781.60 L 448.50,779.50 L 447.90,776.90 L 446.50,776.10 L 445.60,776.70 L 444.20,777.60 L 443.00,778.40 L 440.90,778.40 L 434.10,774.70 L 430.60,773.40 L 428.50,773.70 L 428.50,773.90 L 428.50,774.20 L 428.00,774.20 L 427.90,774.20 L 427.50,774.20 L 427.50,774.30 L 427.30,774.60 L 427.00,774.80 L 426.70,775.10 L 426.20,775.50 L 425.00,776.60 L 423.70,776.80 L 421.90,775.30 L 421.40,774.40 L 420.70,772.20 L 420.40,771.40 L 419.30,770.60 L 417.20,770.20 L 416.10,769.70 L 413.20,767.20 L 411.80,766.50 L 406.10,765.40 L 404.90,764.00 L 405.50,761.40 L 401.60,758.90 L 400.80,758.40 L 400.20,757.90 L 398.90,757.60 L 399.00,755.90 L 399.00,755.50 L 399.00,755.20 L 404.40,744.60 L 415.80,742.20 L 421.30,738.10 L 430.10,734.00 L 431.00,729.90 L 431.10,722.60 L 429.60,704.40 L 430.40,701.40 L 432.40,701.10 L 434.40,700.10 L 434.50,697.60 L 433.50,695.00 L 434.70,691.80 L 437.40,691.20 L 450.60,691.30 L 449.50,686.20 L 446.60,683.10 L 443.70,680.80 L 441.30,677.50 L 439.50,672.10 L 441.70,666.20 L 443.30,657.20 L 445.70,652.10 L 452.80,647.50 L 453.50,642.40 L 452.30,639.80 L 451.70,636.50 L 452.40,634.30 L 453.50,632.90 L 456.60,621.90 L 461.20,619.60 L 474.00,619.20 L 477.00,617.80 L 479.80,615.80 L 483.00,616.40 L 485.80,619.30 L 497.70,625.70 L 503.60,626.90 L 510.80,626.90 L 513.90,624.20 L 520.00,625.30 L 525.50,630.30 L 534.00,643.90 L 537.00,644.80 L 546.10,644.30 L 556.00,649.30 L 563.70,650.80 L 564.90,651.50 L 565.20,653.10 L 565.20,654.80 L 564.80,656.00 L 558.60,657.00 L 555.20,663.50 L 557.70,666.40 L 564.50,668.40 L 567.60,670.80 L 570.20,676.40 L 574.50,681.70 L 570.80,682.30 L 564.60,687.50 L 562.80,691.50 L 565.90,693.20 L 572.10,694.10 L 574.70,695.10 L 575.30,698.20 L 575.50,700.70 L 564.00,707.90 L 561.20,708.40 L 556.10,708.00 L 551.10,708.80 L 543.10,715.00 L 540.80,715.50 L 538.40,715.60 L 533.40,712.70 L 531.00,716.30 L 528.40,721.40 L 524.50,727.00 L 518.40,726.10 L 515.60,728.40 L 520.40,733.20 L 524.60,739.10 L 503.10,763.30 L 501.10,766.20 L 499.10,770.40 L 498.10,775.10 L 499.90,777.50 L 502.30,777.70 L 504.30,780.20 L 504.50,784.90 L 507.20,789.80 L 511.80,791.60 L 513.60,794.90 L 515.00,799.30 L 517.90,802.00 L 521.30,803.60 L 527.50,804.70 L 527.20,808.30 L 525.60,811.50 L 524.90,814.40 L 526.00,816.90 L 528.10,818.40 L 528.60,820.00"/>
  <path id="Lesser Poland" d="M 528.60,820.00 L 528.10,818.40 L 526.00,816.90 L 524.90,814.40 L 525.60,811.50 L 527.20,808.30 L 527.50,804.70 L 521.30,803.60 L 517.90,802.00 L 515.00,799.30 L 513.60,794.90 L 511.80,791.60 L 507.20,789.80 L 504.50,784.90 L 504.30,780.20 L 502.30,777.70 L 499.90,777.50 L 498.10,775.10 L 499.10,770.40 L 501.10,766.20 L 503.10,763.30 L 524.60,739.10 L 520.40,733.20 L 515.60,728.40 L 518.40,726.10 L 524.50,727.00 L 528.40,721.40 L 531.00,716.30 L 533.40,712.70 L 538.40,715.60 L 540.80,715.50 L 543.10,715.00 L 551.10,708.80 L 556.10,708.00 L 561.20,708.40 L 564.00,707.90 L 575.50,700.70 L 575.30,698.20 L 574.70,695.10 L 583.20,695.10 L 586.80,697.00 L 589.80,700.20 L 597.50,702.60 L 604.40,707.30 L 608.60,715.50 L 610.10,722.10 L 611.70,725.40 L 615.80,731.20 L 617.50,734.80 L 624.20,738.80 L 636.10,739.20 L 638.80,736.30 L 639.20,734.80 L 640.30,733.00 L 643.20,731.60 L 644.50,730.30 L 644.80,729.60 L 644.90,728.10 L 645.20,727.40 L 645.60,727.10 L 646.40,727.10 L 646.70,726.90 L 648.60,725.00 L 649.20,722.50 L 649.70,721.70 L 653.20,725.00 L 654.70,724.30 L 655.90,723.00 L 657.10,722.20 L 658.50,723.10 L 659.80,722.30 L 662.30,722.10 L 663.10,721.60 L 664.00,720.40 L 664.80,719.70 L 665.70,719.40 L 672.40,719.20 L 673.80,718.80 L 674.80,717.90 L 675.70,717.00 L 676.50,716.20 L 680.30,714.40 L 681.20,714.20 L 682.50,714.80 L 683.30,715.80 L 684.20,716.60 L 685.80,716.20 L 685.80,716.00 L 687.40,713.80 L 688.00,713.30 L 688.50,713.30 L 688.80,713.00 L 689.00,711.80 L 689.40,711.00 L 690.50,710.50 L 691.60,709.50 L 692.10,707.50 L 692.90,708.20 L 693.50,708.30 L 694.50,707.50 L 694.60,707.10 L 694.50,706.40 L 694.50,705.80 L 694.80,705.50 L 696.10,705.60 L 695.10,717.50 L 692.40,724.30 L 689.00,730.10 L 688.40,738.10 L 690.90,759.40 L 690.10,765.70 L 690.00,771.10 L 690.90,772.80 L 691.60,774.70 L 693.50,777.00 L 696.10,777.20 L 699.50,779.00 L 700.70,783.10 L 691.70,790.00 L 690.10,793.50 L 692.80,796.00 L 702.60,800.20 L 708.00,806.10 L 711.20,815.90 L 711.50,820.80 L 711.00,825.70 L 712.60,835.90 L 715.90,845.20 L 716.00,845.50 L 716.00,845.60 L 714.40,846.30 L 713.00,845.90 L 709.70,846.60 L 708.20,846.60 L 699.30,844.10 L 694.20,841.40 L 693.00,841.10 L 691.40,842.20 L 688.50,846.40 L 687.00,847.90 L 685.00,848.20 L 683.60,847.30 L 682.30,845.80 L 680.70,844.70 L 679.30,844.60 L 675.60,845.30 L 674.20,846.00 L 672.40,848.00 L 673.50,849.30 L 675.60,850.60 L 676.70,852.70 L 675.90,854.00 L 674.30,854.30 L 672.30,854.30 L 670.90,854.60 L 669.10,856.40 L 666.10,860.80 L 664.10,862.50 L 662.00,863.30 L 660.30,863.00 L 658.90,861.90 L 657.40,860.30 L 655.70,859.10 L 654.30,858.90 L 652.70,858.90 L 650.70,858.60 L 649.20,857.60 L 641.20,847.90 L 639.80,847.70 L 636.30,848.20 L 634.40,847.90 L 633.50,848.00 L 632.60,848.50 L 631.20,850.30 L 630.10,851.30 L 628.00,852.10 L 626.00,851.60 L 618.30,847.60 L 616.90,848.00 L 616.90,850.40 L 612.20,850.50 L 608.50,849.10 L 607.40,849.20 L 606.50,849.90 L 606.20,850.70 L 606.00,852.00 L 605.50,854.00 L 604.90,855.90 L 604.40,856.50 L 597.40,857.20 L 596.00,857.90 L 594.10,860.30 L 593.20,861.10 L 591.20,860.90 L 590.90,860.70 L 590.40,861.40 L 588.70,865.30 L 588.20,866.90 L 587.60,868.50 L 586.40,869.80 L 585.90,874.70 L 585.00,878.20 L 583.20,879.50 L 580.20,878.10 L 575.50,873.60 L 573.00,872.30 L 570.10,872.70 L 568.40,873.90 L 566.70,875.70 L 565.40,877.00 L 563.40,877.80 L 559.20,877.50 L 556.90,876.60 L 555.70,875.00 L 556.10,873.20 L 559.50,867.60 L 559.90,867.20 L 560.50,867.10 L 561.00,866.80 L 561.30,866.00 L 561.10,865.40 L 561.10,865.30 L 560.40,864.60 L 560.30,864.60 L 560.20,864.20 L 558.90,863.30 L 558.60,862.80 L 558.70,862.30 L 559.40,861.20 L 559.50,860.60 L 559.00,853.90 L 558.50,851.60 L 557.70,849.00 L 557.70,848.90 L 556.80,848.30 L 553.80,849.50 L 552.00,849.70 L 550.00,849.50 L 544.80,847.70 L 545.00,846.10 L 544.90,843.90 L 545.10,843.10 L 545.50,842.20 L 541.90,842.20 L 540.00,841.70 L 538.40,840.50 L 537.90,839.50 L 536.50,835.00 L 534.80,828.00 L 533.70,825.20 L 531.60,823.80 L 530.90,823.00 L 529.40,820.30 L 528.60,820.00"/>
  <path id="Subcarpathia" d="M 716.00,845.60 L 716.00,845.50 L 715.90,845.20 L 712.60,835.90 L 711.00,825.70 L 711.50,820.80 L 711.20,815.90 L 708.00,806.10 L 702.60,800.20 L 692.80,796.00 L 690.10,793.50 L 691.70,790.00 L 700.70,783.10 L 699.50,779.00 L 696.10,777.20 L 693.50,777.00 L 691.60,774.70 L 690.90,772.80 L 690.00,771.10 L 690.10,765.70 L 690.90,759.40 L 688.40,738.10 L 689.00,730.10 L 692.40,724.30 L 695.10,717.50 L 696.10,705.60 L 696.50,705.50 L 702.00,700.60 L 703.70,701.40 L 706.00,700.90 L 708.40,699.50 L 710.10,697.70 L 709.20,695.40 L 708.80,694.80 L 717.50,690.90 L 723.30,689.40 L 725.00,688.00 L 727.80,684.60 L 728.90,682.40 L 729.40,679.60 L 730.00,677.40 L 734.30,672.30 L 736.90,667.90 L 738.50,666.80 L 740.90,666.40 L 742.50,665.50 L 743.90,663.40 L 745.00,660.80 L 745.60,658.60 L 746.40,652.90 L 746.20,647.60 L 746.00,645.70 L 757.90,653.80 L 764.70,654.20 L 770.70,650.00 L 774.30,649.80 L 777.80,651.10 L 781.00,653.10 L 783.90,655.70 L 782.60,659.30 L 778.50,667.10 L 780.20,670.10 L 801.30,675.50 L 815.60,683.20 L 816.50,684.50 L 816.40,686.40 L 816.60,688.40 L 818.70,692.40 L 819.80,695.90 L 817.30,697.30 L 814.50,697.00 L 811.60,697.90 L 809.40,700.90 L 807.90,703.90 L 808.50,707.40 L 810.90,711.00 L 814.10,712.50 L 826.70,710.00 L 829.10,711.70 L 827.70,712.50 L 824.60,713.30 L 825.50,715.40 L 837.90,718.90 L 858.30,719.60 L 865.20,718.10 L 871.10,713.40 L 878.50,704.90 L 880.90,703.80 L 886.10,703.30 L 892.80,704.10 L 898.50,707.70 L 901.40,712.10 L 910.50,717.50 L 910.60,717.50 L 910.50,717.70 L 910.50,717.80 L 910.30,717.90 L 909.60,718.10 L 909.00,718.40 L 908.80,718.40 L 908.70,718.90 L 908.50,719.50 L 908.30,720.10 L 908.20,720.20 L 908.10,720.60 L 908.10,720.70 L 908.00,720.70 L 907.40,721.00 L 907.00,721.10 L 906.70,721.30 L 906.40,721.40 L 906.30,721.40 L 906.10,721.80 L 905.90,722.10 L 905.80,722.30 L 905.70,722.50 L 905.60,722.60 L 905.50,722.80 L 905.10,723.60 L 904.90,723.80 L 904.80,724.00 L 904.20,725.00 L 904.10,725.10 L 902.70,726.70 L 902.50,726.80 L 901.50,727.40 L 901.50,727.50 L 901.20,727.70 L 901.00,727.90 L 900.60,728.10 L 900.40,728.30 L 899.60,728.90 L 899.00,729.30 L 899.00,729.40 L 898.90,729.40 L 898.80,729.50 L 898.70,729.60 L 898.40,729.80 L 898.20,730.00 L 898.10,730.10 L 897.70,730.50 L 897.60,730.50 L 897.40,730.70 L 897.10,731.00 L 896.80,731.20 L 896.70,731.30 L 896.60,731.30 L 896.20,731.50 L 895.90,731.70 L 895.40,732.00 L 895.30,732.00 L 895.10,732.20 L 894.80,732.30 L 894.10,732.70 L 893.70,732.90 L 893.60,733.00 L 893.50,733.00 L 893.00,733.60 L 892.10,734.80 L 891.80,735.10 L 891.70,735.30 L 891.40,735.70 L 890.40,736.50 L 887.60,739.60 L 887.30,739.70 L 886.80,740.10 L 886.60,740.30 L 886.10,740.70 L 885.50,741.10 L 885.30,741.30 L 885.20,741.40 L 885.00,741.60 L 885.00,741.70 L 884.30,742.30 L 884.10,742.50 L 884.00,742.70 L 883.80,742.90 L 883.60,743.20 L 883.40,743.40 L 882.80,744.00 L 882.50,744.20 L 882.30,744.50 L 882.20,744.60 L 881.80,745.00 L 881.50,745.40 L 881.10,745.80 L 880.70,746.30 L 880.50,746.60 L 880.10,747.00 L 879.90,747.20 L 879.60,747.60 L 879.50,747.80 L 879.30,748.00 L 878.80,748.10 L 878.80,748.20 L 878.40,748.40 L 877.90,748.70 L 877.80,748.90 L 877.70,749.30 L 877.60,749.40 L 876.90,749.70 L 876.80,749.80 L 876.60,749.80 L 876.50,749.80 L 876.20,749.60 L 876.10,749.70 L 876.20,750.00 L 876.20,750.40 L 876.20,750.70 L 876.20,751.00 L 876.20,751.40 L 876.20,751.60 L 876.00,751.70 L 875.70,752.00 L 875.30,752.30 L 875.00,752.60 L 874.80,752.70 L 874.60,753.00 L 874.30,753.40 L 874.00,753.90 L 873.80,754.30 L 873.50,754.70 L 873.20,755.20 L 873.00,755.40 L 872.20,756.30 L 872.00,756.40 L 871.40,756.70 L 870.70,757.00 L 870.40,757.10 L 870.30,757.90 L 870.30,758.40 L 869.70,759.00 L 867.00,763.30 L 863.60,765.90 L 860.00,769.90 L 850.20,784.30 L 846.40,788.30 L 845.90,789.40 L 845.20,792.20 L 844.90,792.90 L 844.70,793.00 L 844.40,793.40 L 844.00,793.90 L 843.90,794.10 L 842.40,794.60 L 841.60,795.20 L 840.70,796.20 L 835.10,806.40 L 834.80,806.70 L 834.70,806.80 L 834.60,806.80 L 834.00,806.90 L 833.40,807.00 L 833.20,807.00 L 833.10,807.10 L 832.30,808.20 L 832.10,808.50 L 830.60,808.80 L 829.60,809.70 L 829.00,810.90 L 827.40,815.30 L 820.50,824.60 L 818.30,829.80 L 818.20,829.80 L 818.20,829.90 L 818.30,830.00 L 818.40,830.20 L 818.50,830.40 L 818.60,830.80 L 818.60,830.90 L 818.70,831.20 L 818.90,831.80 L 818.90,832.00 L 819.00,832.30 L 819.20,832.90 L 819.30,833.00 L 820.00,835.00 L 820.60,837.10 L 821.20,843.00 L 821.50,844.60 L 821.70,845.40 L 822.90,847.20 L 824.90,849.30 L 825.40,850.40 L 825.80,852.60 L 827.00,865.30 L 826.70,867.40 L 825.70,870.00 L 825.50,870.10 L 825.30,870.40 L 825.10,870.90 L 825.10,871.20 L 825.00,871.60 L 824.90,872.10 L 825.00,872.20 L 823.90,876.50 L 822.40,879.50 L 821.90,881.20 L 822.50,881.90 L 822.90,881.70 L 824.10,880.10 L 825.50,881.20 L 825.40,881.20 L 825.10,881.30 L 828.00,883.40 L 830.70,886.90 L 832.40,888.10 L 836.40,890.40 L 837.50,891.80 L 837.50,893.00 L 836.70,895.70 L 836.60,897.60 L 837.00,898.90 L 838.50,901.40 L 838.60,901.70 L 838.70,902.20 L 838.20,903.20 L 837.70,904.40 L 835.90,903.60 L 833.80,901.80 L 832.20,900.90 L 831.20,900.60 L 829.50,898.20 L 828.70,897.50 L 828.60,897.40 L 828.00,897.30 L 827.70,897.20 L 827.60,897.20 L 827.60,897.30 L 825.60,897.90 L 822.70,897.60 L 822.30,897.60 L 821.20,897.70 L 820.40,897.80 L 818.40,897.60 L 816.20,896.00 L 812.80,892.30 L 811.40,891.80 L 811.00,891.70 L 809.10,893.50 L 805.90,892.00 L 798.80,891.70 L 795.50,890.70 L 790.90,886.00 L 789.00,885.30 L 783.90,885.50 L 779.70,884.10 L 779.00,883.60 L 778.80,882.70 L 779.10,881.80 L 779.00,880.80 L 778.00,879.70 L 777.30,879.60 L 775.10,879.80 L 774.20,879.80 L 773.20,879.30 L 770.20,877.40 L 763.80,876.20 L 761.20,874.30 L 760.60,869.90 L 759.50,865.00 L 756.90,860.70 L 753.60,857.60 L 748.70,855.20 L 745.40,852.10 L 743.70,851.20 L 741.90,851.50 L 740.30,852.90 L 739.00,854.50 L 738.10,855.10 L 736.70,854.00 L 733.60,849.30 L 732.10,847.70 L 731.20,847.40 L 729.80,847.70 L 729.10,847.70 L 728.20,847.00 L 726.50,845.40 L 725.60,844.70 L 723.90,844.30 L 717.40,845.00 L 716.00,845.60"/>
  <path id="Lower Silesia" d="M 120.50,563.70 L 122.20,562.70 L 136.70,555.20 L 139.30,555.10 L 144.60,559.70 L 147.30,560.00 L 151.90,552.00 L 154.90,548.40 L 161.50,546.10 L 174.30,553.10 L 180.70,551.50 L 190.80,538.20 L 199.70,520.80 L 201.60,519.30 L 204.80,518.30 L 207.60,515.50 L 208.90,511.70 L 210.70,509.20 L 224.40,511.80 L 226.90,514.40 L 227.20,519.50 L 232.20,525.90 L 239.40,524.30 L 244.90,519.50 L 249.40,512.30 L 257.30,510.70 L 261.00,511.70 L 271.20,517.30 L 272.80,521.00 L 273.10,525.70 L 277.00,532.70 L 285.80,537.60 L 290.80,543.10 L 301.20,546.80 L 320.00,543.50 L 323.40,535.70 L 327.20,534.90 L 337.90,535.00 L 347.90,537.70 L 356.90,543.60 L 356.00,547.80 L 354.80,551.40 L 352.60,552.80 L 351.30,555.90 L 351.80,562.20 L 354.00,567.60 L 359.30,568.80 L 364.90,567.70 L 368.30,568.70 L 371.60,571.30 L 369.00,577.40 L 370.10,592.30 L 371.30,599.50 L 368.20,601.30 L 365.10,602.10 L 362.00,601.90 L 359.00,602.90 L 356.70,605.40 L 351.40,617.60 L 350.40,621.10 L 349.80,624.90 L 348.40,629.20 L 345.50,631.20 L 341.20,636.80 L 337.90,644.30 L 330.40,655.50 L 323.90,668.00 L 321.80,676.00 L 318.50,681.60 L 313.00,682.50 L 308.30,686.20 L 301.70,702.50 L 301.30,704.20 L 298.80,702.70 L 296.70,702.40 L 294.90,703.60 L 294.20,703.90 L 294.20,705.50 L 294.20,705.90 L 294.80,706.70 L 295.00,707.00 L 295.20,707.30 L 297.20,710.20 L 298.20,712.80 L 298.90,715.90 L 299.70,718.60 L 301.40,720.40 L 303.70,721.70 L 305.30,723.50 L 306.30,726.00 L 306.40,729.50 L 307.60,731.00 L 307.70,732.40 L 307.80,732.90 L 307.20,734.10 L 306.10,733.70 L 305.70,733.10 L 305.30,732.50 L 305.10,732.30 L 305.00,732.00 L 304.70,731.40 L 304.10,731.00 L 302.80,731.00 L 302.60,731.40 L 302.60,733.10 L 302.40,733.60 L 301.50,733.70 L 299.90,733.10 L 299.10,733.10 L 298.00,733.90 L 296.50,736.00 L 295.60,736.70 L 294.60,737.00 L 293.90,737.20 L 293.50,737.30 L 291.70,737.10 L 289.90,737.40 L 288.10,738.90 L 287.90,739.10 L 287.80,739.20 L 287.50,739.60 L 286.20,741.60 L 285.20,743.60 L 284.70,744.30 L 284.60,744.50 L 284.20,745.00 L 284.10,745.10 L 282.10,746.60 L 281.80,747.00 L 281.50,747.40 L 279.80,749.70 L 279.70,749.80 L 279.40,750.30 L 279.30,750.40 L 275.60,750.70 L 271.80,748.70 L 268.70,745.80 L 267.10,743.70 L 266.50,742.50 L 266.20,741.90 L 265.20,737.10 L 264.20,734.40 L 261.50,731.60 L 260.30,729.50 L 259.00,727.70 L 256.70,723.50 L 255.40,721.60 L 253.40,720.20 L 249.30,718.70 L 247.70,716.60 L 247.50,715.30 L 247.60,714.00 L 247.50,712.70 L 246.90,711.40 L 246.00,711.10 L 241.90,711.10 L 241.60,711.20 L 241.10,711.40 L 240.80,711.50 L 240.20,712.00 L 239.50,712.20 L 238.30,711.20 L 237.90,710.40 L 236.70,706.80 L 233.80,706.20 L 232.90,703.70 L 233.50,701.90 L 233.50,701.50 L 233.40,701.20 L 233.40,700.90 L 233.60,700.90 L 234.10,700.80 L 234.00,700.40 L 234.00,700.20 L 234.70,700.20 L 234.90,700.10 L 234.80,699.80 L 235.40,699.80 L 235.90,699.40 L 236.20,699.20 L 236.70,699.00 L 238.10,697.90 L 239.70,696.90 L 241.10,695.70 L 241.30,695.30 L 241.80,693.90 L 243.20,693.40 L 243.90,693.60 L 246.10,694.20 L 247.70,693.90 L 248.30,693.00 L 248.40,692.90 L 248.50,692.70 L 248.90,692.30 L 249.00,692.30 L 250.40,690.90 L 251.20,689.80 L 250.90,689.80 L 250.90,689.60 L 250.90,689.00 L 251.00,687.90 L 251.20,687.20 L 251.60,686.40 L 251.80,686.00 L 251.80,685.50 L 251.50,684.40 L 252.40,684.00 L 254.30,683.20 L 254.30,683.00 L 253.50,680.50 L 245.80,672.30 L 243.00,670.70 L 240.00,670.00 L 236.70,669.90 L 236.30,670.00 L 235.60,670.10 L 234.90,671.60 L 234.20,673.40 L 233.90,673.80 L 233.40,674.50 L 233.10,674.80 L 231.60,675.10 L 230.20,674.50 L 227.40,672.30 L 223.50,671.90 L 221.70,673.70 L 221.50,673.90 L 221.10,674.30 L 218.00,677.30 L 217.90,677.40 L 214.00,678.10 L 213.90,677.60 L 213.80,677.20 L 213.90,676.70 L 214.00,676.30 L 214.80,675.70 L 214.90,675.50 L 215.30,675.20 L 215.40,675.00 L 215.60,673.50 L 215.40,672.90 L 215.10,671.50 L 214.30,669.60 L 213.10,667.30 L 211.90,666.20 L 210.40,665.90 L 208.50,666.70 L 207.80,666.90 L 206.00,667.60 L 205.70,667.70 L 205.00,668.00 L 204.70,668.00 L 204.10,668.00 L 202.50,668.00 L 201.90,667.80 L 197.30,660.00 L 197.00,659.10 L 196.80,658.20 L 195.20,658.00 L 194.60,657.90 L 194.50,658.00 L 191.90,658.60 L 190.70,658.90 L 187.00,659.80 L 186.10,659.50 L 185.40,658.80 L 184.20,657.00 L 183.20,656.30 L 173.60,652.90 L 172.30,652.50 L 172.00,652.40 L 171.60,652.20 L 169.50,651.50 L 168.90,651.30 L 168.30,651.10 L 165.00,649.90 L 163.10,650.10 L 161.30,650.20 L 160.40,651.30 L 159.50,652.80 L 159.40,652.90 L 158.50,653.90 L 158.40,653.80 L 157.30,653.50 L 156.70,652.30 L 156.70,650.90 L 157.00,649.50 L 157.00,648.10 L 155.90,645.40 L 154.50,644.20 L 152.90,643.50 L 151.10,642.10 L 150.10,640.50 L 149.00,638.10 L 148.20,635.60 L 147.90,633.50 L 148.50,630.90 L 149.30,629.40 L 149.40,628.00 L 148.00,625.60 L 145.60,624.40 L 140.40,624.30 L 139.50,622.20 L 139.10,620.00 L 138.00,619.50 L 137.80,619.70 L 137.20,620.10 L 136.90,620.30 L 136.10,622.20 L 135.80,623.70 L 134.70,623.90 L 133.50,623.30 L 132.40,622.20 L 131.60,620.80 L 127.00,619.80 L 125.80,618.60 L 125.50,618.60 L 125.50,619.30 L 125.10,619.30 L 125.10,619.40 L 124.60,620.00 L 123.30,621.00 L 123.00,621.10 L 122.80,621.10 L 122.30,621.40 L 121.80,621.70 L 121.40,622.20 L 121.80,623.90 L 123.30,625.00 L 124.60,627.00 L 124.70,631.10 L 124.70,631.20 L 124.50,632.00 L 123.90,632.60 L 123.60,633.00 L 123.30,633.50 L 123.20,634.30 L 123.30,634.80 L 123.40,635.20 L 123.50,639.60 L 123.50,640.20 L 123.30,641.50 L 113.00,640.70 L 109.70,641.60 L 108.50,641.60 L 107.70,641.50 L 107.80,638.90 L 109.00,636.70 L 112.30,633.10 L 116.80,622.20 L 120.90,611.90 L 121.20,610.30 L 121.20,607.50 L 121.30,606.10 L 121.80,605.10 L 122.50,604.40 L 123.10,603.40 L 123.30,601.60 L 123.40,597.90 L 124.20,593.90 L 125.40,590.00 L 126.90,586.90 L 126.60,586.50 L 126.20,586.10 L 126.70,581.90 L 125.40,579.00 L 123.30,576.60 L 121.70,573.70 L 121.40,572.70 L 121.00,570.00 L 121.00,569.90 L 120.50,563.70"/>
  <path id="Opole" d="M 456.60,621.90 L 453.50,632.90 L 452.40,634.30 L 451.70,636.50 L 452.30,639.80 L 453.50,642.40 L 452.80,647.50 L 445.70,652.10 L 443.30,657.20 L 441.70,666.20 L 439.50,672.10 L 441.30,677.50 L 443.70,680.80 L 446.60,683.10 L 449.50,686.20 L 450.60,691.30 L 437.40,691.20 L 434.70,691.80 L 433.50,695.00 L 434.50,697.60 L 434.40,700.10 L 432.40,701.10 L 430.40,701.40 L 429.60,704.40 L 431.10,722.60 L 431.00,729.90 L 430.10,734.00 L 421.30,738.10 L 415.80,742.20 L 404.40,744.60 L 399.00,755.20 L 399.00,755.50 L 399.00,755.90 L 398.90,757.60 L 397.80,757.30 L 397.40,757.20 L 397.80,760.40 L 398.30,760.60 L 399.00,760.40 L 399.80,760.40 L 400.40,761.40 L 400.50,762.80 L 400.10,763.40 L 399.90,763.50 L 397.10,764.30 L 393.50,764.40 L 392.90,764.60 L 391.80,764.80 L 389.50,767.00 L 389.20,767.20 L 385.90,768.20 L 382.60,767.50 L 376.70,761.70 L 375.70,760.30 L 375.00,758.60 L 374.50,756.80 L 373.80,755.30 L 372.80,754.10 L 372.00,753.20 L 371.70,752.40 L 372.00,751.60 L 372.80,750.90 L 372.90,750.80 L 372.90,750.70 L 372.90,750.60 L 372.80,750.40 L 371.60,750.10 L 369.10,748.90 L 367.90,748.60 L 366.90,748.80 L 366.20,749.30 L 365.20,749.40 L 363.80,748.80 L 359.40,743.20 L 359.20,742.20 L 359.90,740.70 L 360.30,740.50 L 360.90,740.20 L 361.80,740.20 L 365.30,740.10 L 367.70,739.10 L 369.00,738.30 L 370.60,737.40 L 371.60,736.80 L 372.90,735.60 L 373.40,735.20 L 374.20,733.10 L 372.80,730.40 L 371.90,729.50 L 371.70,728.00 L 371.80,726.70 L 372.80,724.10 L 373.00,723.60 L 373.10,723.20 L 373.10,722.80 L 372.80,722.50 L 371.20,720.30 L 370.70,719.80 L 369.10,719.20 L 368.70,719.40 L 368.50,719.60 L 368.30,720.60 L 367.80,721.70 L 366.40,723.70 L 366.30,723.70 L 365.90,724.30 L 365.70,724.60 L 365.40,725.00 L 365.10,725.40 L 363.50,726.70 L 361.40,727.30 L 354.40,726.00 L 354.30,726.00 L 353.30,725.80 L 349.20,726.20 L 349.00,726.20 L 347.40,728.20 L 346.30,729.50 L 345.90,729.80 L 345.40,729.90 L 344.90,729.80 L 344.40,729.50 L 344.10,728.40 L 343.60,726.80 L 341.60,725.20 L 339.60,725.40 L 339.10,726.60 L 338.90,727.30 L 338.60,728.00 L 337.40,727.10 L 336.80,725.60 L 336.60,723.80 L 336.70,722.00 L 336.30,721.60 L 335.90,721.20 L 335.60,720.70 L 335.40,720.20 L 336.60,719.70 L 336.30,719.70 L 336.30,719.20 L 335.20,718.70 L 330.90,718.80 L 328.70,718.20 L 325.50,716.20 L 324.70,715.20 L 324.10,714.00 L 323.50,712.10 L 323.50,711.90 L 323.20,710.60 L 323.40,710.20 L 322.40,709.90 L 319.60,710.40 L 318.40,710.40 L 317.20,709.80 L 315.10,708.00 L 314.10,707.40 L 304.80,704.80 L 302.70,705.00 L 301.30,704.20 L 301.70,702.50 L 308.30,686.20 L 313.00,682.50 L 318.50,681.60 L 321.80,676.00 L 323.90,668.00 L 330.40,655.50 L 337.90,644.30 L 341.20,636.80 L 345.50,631.20 L 348.40,629.20 L 349.80,624.90 L 350.40,621.10 L 351.40,617.60 L 356.70,605.40 L 359.00,602.90 L 362.00,601.90 L 365.10,602.10 L 368.20,601.30 L 371.30,599.50 L 374.40,599.30 L 377.40,600.90 L 378.60,604.00 L 379.10,607.50 L 383.90,611.40 L 389.70,611.70 L 400.40,607.70 L 410.80,601.50 L 412.80,605.20 L 415.50,607.30 L 435.80,612.60 L 442.20,612.40 L 443.40,611.40 L 444.20,609.90 L 445.30,609.20 L 447.70,612.20 L 449.80,616.30 L 456.60,621.90"/>
  <path id="Podlachia" d="M 866.80,433.20 L 866.10,433.80 L 864.50,433.80 L 861.60,432.10 L 859.90,431.60 L 858.70,432.20 L 857.30,433.10 L 855.90,433.60 L 854.40,432.70 L 854.60,432.00 L 855.10,430.40 L 855.50,429.60 L 853.00,426.50 L 851.30,425.50 L 849.40,426.60 L 848.60,423.20 L 846.50,421.20 L 843.80,420.30 L 836.70,421.30 L 822.60,418.40 L 817.80,418.60 L 815.60,418.10 L 814.50,416.30 L 813.00,417.00 L 811.10,415.60 L 809.60,413.40 L 809.00,411.80 L 809.50,406.90 L 809.30,406.20 L 808.00,406.00 L 807.30,405.30 L 806.80,404.00 L 806.50,402.10 L 806.60,400.80 L 807.00,399.60 L 807.30,398.40 L 807.10,396.90 L 806.40,396.00 L 804.40,394.30 L 802.50,391.70 L 797.50,386.30 L 797.70,383.00 L 797.50,377.50 L 796.40,372.20 L 795.80,364.40 L 794.40,357.30 L 789.10,358.80 L 784.00,361.40 L 781.20,359.40 L 778.90,356.20 L 780.30,347.90 L 775.90,344.60 L 771.40,349.50 L 764.50,350.50 L 758.10,347.10 L 755.70,342.70 L 754.40,337.20 L 753.10,333.50 L 750.90,331.20 L 747.40,329.30 L 745.10,325.10 L 744.70,321.30 L 746.20,318.60 L 742.00,315.30 L 737.00,314.60 L 732.20,312.00 L 728.90,305.50 L 723.80,292.80 L 721.50,275.30 L 720.10,269.40 L 718.00,264.40 L 716.80,259.10 L 723.40,256.20 L 736.40,257.00 L 742.10,255.00 L 744.70,252.90 L 747.60,251.60 L 754.40,250.60 L 770.10,239.90 L 778.90,229.90 L 804.10,214.10 L 809.40,208.60 L 812.50,199.70 L 816.20,192.60 L 816.50,185.40 L 806.90,171.90 L 802.30,167.40 L 801.30,163.10 L 800.80,158.50 L 791.70,146.20 L 800.20,134.00 L 820.50,131.20 L 826.50,127.10 L 831.70,121.60 L 833.90,114.10 L 833.70,112.90 L 833.80,112.70 L 836.10,111.60 L 838.00,111.90 L 843.50,114.70 L 844.40,114.80 L 846.50,114.40 L 847.40,114.60 L 848.40,115.60 L 848.90,116.80 L 849.30,118.00 L 849.90,119.00 L 850.90,119.70 L 854.00,120.10 L 854.60,120.90 L 854.30,122.40 L 853.70,124.20 L 853.70,125.80 L 855.40,128.10 L 857.40,128.10 L 859.60,127.20 L 861.40,126.80 L 863.10,127.60 L 868.70,132.30 L 872.20,134.40 L 879.50,137.20 L 881.30,138.80 L 883.00,140.20 L 883.90,141.60 L 885.50,144.70 L 886.30,145.90 L 887.30,146.60 L 889.20,147.10 L 890.10,147.60 L 891.60,149.80 L 892.80,152.90 L 893.80,156.40 L 894.50,159.70 L 895.80,166.90 L 895.90,170.40 L 894.50,172.80 L 893.40,173.70 L 892.90,174.30 L 892.50,175.00 L 892.40,176.60 L 892.80,178.00 L 893.60,179.20 L 894.50,180.00 L 895.10,180.60 L 895.30,181.40 L 895.30,182.30 L 894.90,183.20 L 895.00,187.70 L 895.90,191.40 L 897.10,195.00 L 898.10,198.90 L 898.90,207.00 L 899.90,210.20 L 902.10,213.40 L 902.30,222.90 L 904.40,233.50 L 912.10,257.30 L 916.40,266.20 L 918.20,271.00 L 921.90,285.40 L 923.50,289.70 L 925.10,291.90 L 926.00,294.00 L 926.70,296.20 L 927.80,298.60 L 929.40,300.40 L 931.00,301.60 L 931.90,303.40 L 931.70,307.10 L 930.90,309.20 L 929.80,311.10 L 928.90,313.10 L 928.80,316.10 L 929.60,318.70 L 932.30,322.20 L 933.40,324.40 L 933.50,325.60 L 933.30,327.40 L 933.30,328.40 L 934.10,332.60 L 934.10,333.80 L 933.80,334.70 L 932.80,336.70 L 932.60,337.90 L 932.70,339.50 L 933.00,340.40 L 933.30,341.20 L 933.60,342.30 L 934.30,360.50 L 934.50,365.00 L 933.30,371.40 L 929.70,375.90 L 917.60,384.20 L 902.50,388.50 L 894.40,393.20 L 886.40,399.90 L 875.40,416.90 L 871.70,421.40 L 870.10,424.00 L 865.90,432.60 L 866.10,432.70 L 866.80,433.20"/>
  <path id="Warmia-Masuria" d="M 833.70,112.90 L 833.90,114.10 L 831.70,121.60 L 826.50,127.10 L 820.50,131.20 L 800.20,134.00 L 791.70,146.20 L 800.80,158.50 L 801.30,163.10 L 802.30,167.40 L 806.90,171.90 L 816.50,185.40 L 816.20,192.60 L 812.50,199.70 L 809.40,208.60 L 804.10,214.10 L 778.90,229.90 L 770.10,239.90 L 754.40,250.60 L 747.60,251.60 L 744.70,252.90 L 742.10,255.00 L 736.40,257.00 L 723.40,256.20 L 716.80,259.10 L 705.80,260.00 L 703.60,261.20 L 701.00,266.40 L 697.30,269.00 L 693.20,269.60 L 685.10,268.90 L 678.20,277.10 L 670.10,279.70 L 661.40,279.70 L 654.80,283.50 L 649.00,284.70 L 642.50,284.60 L 639.20,287.30 L 636.20,290.90 L 623.50,298.20 L 620.20,299.20 L 616.70,298.90 L 613.90,301.10 L 612.40,306.20 L 610.00,308.90 L 607.30,310.30 L 600.40,311.60 L 571.80,307.10 L 571.00,306.20 L 570.40,304.80 L 569.00,303.90 L 567.40,303.50 L 563.80,304.70 L 561.50,309.30 L 558.90,311.50 L 555.70,312.30 L 554.40,298.50 L 549.70,286.60 L 544.60,283.00 L 534.30,280.30 L 524.60,274.40 L 517.60,272.10 L 515.90,272.10 L 513.80,271.20 L 512.40,269.10 L 509.60,263.90 L 507.40,257.30 L 499.50,242.00 L 512.90,217.00 L 516.10,213.50 L 519.90,211.10 L 527.30,211.60 L 532.40,209.30 L 532.60,206.80 L 533.60,205.10 L 535.10,200.70 L 536.70,199.10 L 537.80,197.00 L 537.80,194.40 L 538.20,192.00 L 533.60,190.70 L 524.70,191.50 L 521.40,189.90 L 523.20,183.80 L 520.80,180.60 L 516.20,180.00 L 511.80,177.40 L 508.80,172.30 L 507.10,165.70 L 506.90,162.70 L 508.30,160.50 L 512.30,156.50 L 513.70,154.00 L 514.70,151.10 L 513.80,147.30 L 511.90,144.00 L 509.90,138.00 L 510.50,132.70 L 512.70,130.20 L 520.80,131.20 L 522.90,131.00 L 522.90,132.10 L 522.10,132.90 L 521.40,134.30 L 521.10,136.20 L 521.00,138.50 L 522.20,137.30 L 523.80,133.00 L 524.50,132.10 L 525.00,131.50 L 527.30,127.80 L 529.60,125.60 L 530.80,124.90 L 531.90,124.60 L 539.00,120.10 L 540.50,119.50 L 544.10,119.00 L 549.90,114.70 L 551.20,114.20 L 552.50,114.00 L 553.30,113.10 L 553.70,111.40 L 554.40,109.90 L 555.90,109.60 L 555.70,108.90 L 555.50,107.20 L 555.30,106.50 L 556.30,106.60 L 556.70,106.40 L 575.40,107.40 L 610.60,109.30 L 636.80,110.70 L 663.00,112.10 L 695.40,113.80 L 734.80,115.90 L 760.00,117.30 L 785.20,118.60 L 806.40,119.70 L 823.50,120.60 L 829.70,118.60 L 831.40,117.20 L 833.70,112.90"/>
  <path id="Lubusz" d="M 120.50,563.70 L 120.10,559.90 L 120.90,558.10 L 120.00,556.10 L 118.30,554.30 L 116.90,553.20 L 114.80,552.20 L 110.60,551.00 L 108.50,549.80 L 106.60,548.40 L 100.60,546.40 L 98.60,544.30 L 98.30,542.70 L 98.10,541.70 L 98.90,538.90 L 100.60,536.00 L 101.70,533.10 L 101.60,529.30 L 100.70,525.60 L 99.50,523.00 L 95.10,519.40 L 93.00,517.00 L 92.10,513.20 L 91.80,509.40 L 90.50,507.70 L 88.90,506.50 L 87.40,504.20 L 87.10,501.10 L 88.30,498.60 L 93.50,493.30 L 95.20,491.00 L 96.60,488.40 L 97.30,485.50 L 97.60,476.50 L 98.10,475.10 L 100.10,471.50 L 100.50,470.10 L 100.60,468.80 L 100.90,467.40 L 101.60,466.20 L 103.30,464.10 L 97.40,459.70 L 96.50,457.50 L 97.00,453.70 L 98.00,451.00 L 98.40,448.90 L 97.10,446.80 L 97.10,445.90 L 98.80,443.60 L 98.90,440.50 L 97.40,437.90 L 94.90,436.80 L 92.30,436.20 L 89.20,434.60 L 87.20,432.30 L 87.80,429.60 L 85.90,425.30 L 83.70,418.80 L 83.20,412.90 L 87.90,408.80 L 90.10,405.30 L 91.60,401.80 L 91.20,400.20 L 89.50,398.60 L 90.20,395.20 L 92.70,389.80 L 89.90,387.50 L 89.40,386.90 L 91.60,378.90 L 93.60,375.90 L 101.30,374.70 L 105.90,372.80 L 113.00,362.70 L 118.80,350.00 L 127.60,345.10 L 142.70,350.10 L 147.50,349.50 L 153.10,343.00 L 156.50,336.40 L 154.00,336.00 L 152.30,333.50 L 157.40,333.30 L 172.80,328.00 L 191.50,328.00 L 196.00,324.70 L 204.20,314.20 L 208.90,310.40 L 213.90,309.80 L 218.40,310.80 L 220.80,318.20 L 219.20,325.30 L 217.40,334.00 L 217.70,343.60 L 208.80,355.00 L 211.60,357.60 L 213.60,365.00 L 212.70,367.30 L 211.00,368.50 L 202.40,371.20 L 201.00,371.00 L 200.40,372.40 L 200.30,375.80 L 199.90,379.00 L 200.20,387.30 L 203.40,396.10 L 204.50,401.30 L 205.20,406.80 L 205.20,411.20 L 202.80,411.20 L 200.90,412.60 L 204.70,419.40 L 206.50,423.80 L 206.70,433.00 L 203.80,441.70 L 203.30,443.80 L 203.10,446.10 L 202.10,450.50 L 202.00,455.40 L 202.70,460.10 L 204.80,463.30 L 207.30,465.80 L 212.30,468.50 L 213.90,473.10 L 216.00,476.90 L 219.30,480.20 L 222.60,480.20 L 224.20,479.60 L 225.70,480.50 L 225.80,483.50 L 225.00,486.30 L 224.60,491.40 L 225.90,495.30 L 229.80,498.00 L 234.00,499.30 L 240.60,494.80 L 246.50,501.30 L 249.40,512.30 L 244.90,519.50 L 239.40,524.30 L 232.20,525.90 L 227.20,519.50 L 226.90,514.40 L 224.40,511.80 L 210.70,509.20 L 208.90,511.70 L 207.60,515.50 L 204.80,518.30 L 201.60,519.30 L 199.70,520.80 L 190.80,538.20 L 180.70,551.50 L 174.30,553.10 L 161.50,546.10 L 154.90,548.40 L 151.90,552.00 L 147.30,560.00 L 144.60,559.70 L 139.30,555.10 L 136.70,555.20 L 122.20,562.70 L 120.50,563.70"/>
  <path id="West Pomerania" d="M 219.20,325.30 L 220.80,318.20 L 218.40,310.80 L 213.90,309.80 L 208.90,310.40 L 204.20,314.20 L 196.00,324.70 L 191.50,328.00 L 172.80,328.00 L 157.40,333.30 L 152.30,333.50 L 154.00,336.00 L 156.50,336.40 L 153.10,343.00 L 147.50,349.50 L 142.70,350.10 L 127.60,345.10 L 118.80,350.00 L 113.00,362.70 L 105.90,372.80 L 101.30,374.70 L 93.60,375.90 L 91.60,378.90 L 89.40,386.90 L 84.10,381.00 L 78.70,378.80 L 76.10,375.20 L 74.30,374.40 L 73.40,373.50 L 70.30,367.40 L 68.90,365.70 L 59.20,358.60 L 56.80,357.20 L 53.80,353.70 L 52.00,352.90 L 50.00,352.80 L 48.10,352.20 L 46.50,350.90 L 45.50,348.80 L 47.90,346.70 L 48.80,344.90 L 49.20,342.10 L 49.00,340.20 L 47.90,334.80 L 47.30,333.30 L 47.30,332.40 L 51.70,329.10 L 57.20,326.20 L 62.60,321.90 L 65.40,319.00 L 66.60,316.30 L 66.80,315.00 L 69.60,306.50 L 69.40,304.30 L 68.80,302.10 L 68.50,299.70 L 68.70,297.70 L 69.40,295.80 L 70.30,294.50 L 71.30,293.90 L 71.90,292.90 L 74.30,288.30 L 73.10,287.20 L 72.70,286.30 L 71.40,285.10 L 70.80,284.20 L 70.50,282.70 L 70.50,279.90 L 70.30,278.60 L 69.70,275.80 L 67.80,266.90 L 66.90,259.00 L 65.00,255.80 L 64.00,252.60 L 61.80,249.20 L 61.20,246.10 L 61.10,242.70 L 61.30,237.10 L 61.20,235.60 L 59.30,229.70 L 57.90,226.70 L 58.30,224.30 L 58.20,220.00 L 58.20,219.90 L 59.00,219.80 L 60.70,219.10 L 61.90,218.00 L 62.00,216.80 L 60.40,215.70 L 61.30,215.10 L 61.60,214.60 L 61.30,214.10 L 60.40,213.60 L 60.90,212.40 L 61.80,213.20 L 63.10,213.90 L 64.20,214.70 L 65.20,217.70 L 66.50,218.70 L 69.00,219.80 L 70.80,221.80 L 71.80,222.60 L 75.80,223.30 L 80.70,225.10 L 82.40,226.40 L 83.80,228.40 L 86.80,234.10 L 87.80,235.50 L 88.30,235.10 L 88.40,232.60 L 88.80,231.20 L 89.60,230.20 L 90.80,229.30 L 90.70,228.70 L 90.70,228.10 L 90.80,227.20 L 89.80,226.90 L 87.50,226.70 L 86.50,226.10 L 83.70,219.30 L 84.20,215.90 L 86.50,209.30 L 87.50,210.20 L 88.40,209.90 L 89.40,209.40 L 90.80,209.30 L 90.20,205.40 L 90.50,202.30 L 91.10,199.60 L 91.40,196.70 L 90.80,196.70 L 90.60,198.50 L 89.90,199.70 L 87.70,201.90 L 88.30,203.00 L 87.50,202.70 L 86.80,202.20 L 86.30,201.70 L 85.80,200.90 L 86.30,200.40 L 87.10,199.30 L 87.70,198.80 L 86.50,196.20 L 84.30,194.90 L 74.20,193.90 L 72.80,192.30 L 74.00,189.30 L 73.70,189.00 L 73.60,189.00 L 73.60,188.80 L 73.40,188.30 L 72.50,189.80 L 71.80,190.00 L 71.00,189.60 L 69.90,189.30 L 69.20,189.60 L 68.50,190.40 L 67.90,191.40 L 67.20,192.40 L 69.90,192.90 L 71.30,193.60 L 72.10,194.60 L 71.90,196.50 L 71.00,197.80 L 69.80,198.30 L 69.00,197.70 L 66.50,199.30 L 65.30,199.70 L 64.00,199.80 L 64.00,200.90 L 65.20,201.40 L 65.20,201.70 L 64.00,201.90 L 63.10,201.80 L 61.70,201.10 L 60.60,200.90 L 59.10,199.90 L 54.80,193.50 L 52.60,192.60 L 52.40,192.60 L 51.70,190.20 L 50.10,188.20 L 51.00,188.00 L 51.70,187.40 L 53.30,183.30 L 54.80,184.00 L 55.80,184.80 L 58.50,185.90 L 67.50,186.60 L 71.10,185.90 L 74.60,184.00 L 81.20,179.20 L 105.20,168.50 L 125.90,163.00 L 151.10,152.30 L 167.50,147.90 L 185.40,143.10 L 203.00,135.10 L 217.60,133.30 L 227.60,129.90 L 226.50,131.00 L 222.00,133.10 L 223.90,134.50 L 231.90,133.10 L 231.90,132.10 L 231.30,132.10 L 231.30,131.00 L 235.60,131.00 L 235.60,130.20 L 235.50,130.10 L 235.30,130.10 L 235.00,129.90 L 235.20,127.40 L 233.10,127.30 L 228.20,128.80 L 231.30,127.30 L 235.10,124.80 L 240.70,118.20 L 239.50,120.50 L 237.50,122.70 L 236.70,123.80 L 237.50,123.50 L 239.20,123.20 L 240.60,122.60 L 241.90,121.10 L 245.10,119.60 L 246.20,118.20 L 245.20,115.90 L 243.40,115.90 L 242.60,116.90 L 241.20,118.20 L 245.10,111.50 L 255.60,98.00 L 255.60,98.90 L 255.10,100.50 L 256.00,100.90 L 257.50,100.30 L 258.60,98.90 L 259.20,96.80 L 258.70,96.20 L 257.50,96.70 L 256.20,98.00 L 258.00,94.20 L 261.20,91.10 L 267.40,87.20 L 286.30,84.40 L 286.90,84.20 L 287.10,84.50 L 293.40,97.30 L 300.90,108.10 L 303.70,113.80 L 304.40,121.30 L 303.40,125.50 L 301.00,127.90 L 300.30,130.70 L 301.30,133.00 L 303.00,135.40 L 303.40,139.20 L 301.90,141.40 L 289.30,144.60 L 295.10,162.20 L 295.80,170.70 L 295.80,179.20 L 299.70,182.00 L 301.90,184.60 L 305.30,191.60 L 307.80,193.90 L 309.90,196.90 L 311.60,200.50 L 306.60,199.90 L 302.10,202.00 L 302.20,205.00 L 304.00,205.90 L 305.60,208.50 L 306.60,211.80 L 303.90,216.60 L 300.10,220.50 L 301.70,237.10 L 298.30,236.00 L 294.80,236.10 L 291.60,237.50 L 289.20,241.70 L 287.40,246.70 L 285.10,256.40 L 282.40,257.00 L 265.70,256.50 L 263.60,259.40 L 263.70,265.50 L 265.10,270.90 L 270.80,276.50 L 277.70,278.20 L 281.00,280.00 L 283.90,283.60 L 284.40,288.00 L 281.70,291.40 L 279.50,295.20 L 276.90,297.70 L 270.20,299.80 L 257.10,307.50 L 249.70,319.10 L 241.00,327.40 L 235.40,329.60 L 229.70,330.30 L 224.20,327.00 L 219.20,325.30"/>
  <path id="Lublin" d="M 866.80,433.20 L 867.50,433.80 L 868.50,435.30 L 868.80,437.20 L 868.00,439.90 L 870.10,441.20 L 876.60,442.90 L 878.00,442.40 L 879.20,443.60 L 884.80,445.70 L 886.70,445.90 L 886.70,446.80 L 886.10,448.20 L 886.30,448.50 L 887.60,447.90 L 888.80,448.50 L 889.60,449.30 L 890.40,449.50 L 891.70,447.90 L 892.10,448.60 L 893.00,449.40 L 893.60,450.10 L 895.10,448.60 L 895.40,449.70 L 895.20,451.50 L 894.80,452.00 L 897.30,457.00 L 899.10,457.60 L 903.40,457.50 L 905.10,458.50 L 905.70,459.70 L 906.20,460.90 L 906.70,461.80 L 907.60,462.20 L 908.70,462.90 L 909.00,464.70 L 909.10,466.40 L 909.90,468.20 L 911.20,473.80 L 912.20,476.30 L 910.80,477.30 L 909.60,479.20 L 907.90,483.30 L 907.30,486.00 L 907.20,490.80 L 906.60,492.40 L 907.00,492.60 L 907.10,492.60 L 907.20,492.80 L 907.20,493.40 L 906.20,494.10 L 905.80,497.20 L 904.80,498.50 L 906.20,501.10 L 907.90,503.40 L 906.90,506.80 L 905.10,508.50 L 903.20,509.70 L 901.70,511.50 L 901.30,512.50 L 900.90,514.10 L 900.40,517.50 L 900.70,518.20 L 901.40,519.30 L 901.60,520.20 L 900.70,520.60 L 900.40,521.00 L 900.70,521.90 L 901.20,522.90 L 901.70,523.60 L 900.50,525.00 L 899.90,525.40 L 899.10,525.50 L 899.10,526.60 L 900.20,527.70 L 900.30,529.10 L 899.80,533.10 L 900.10,535.20 L 900.90,537.20 L 902.90,540.60 L 902.30,540.70 L 901.70,540.60 L 902.80,542.90 L 904.20,543.50 L 905.50,544.20 L 905.80,546.20 L 906.00,547.10 L 906.60,549.10 L 908.00,550.10 L 908.60,550.30 L 909.70,550.70 L 909.80,550.80 L 911.00,551.60 L 909.50,554.50 L 909.60,554.60 L 909.60,555.20 L 909.70,555.40 L 909.80,555.60 L 910.60,556.80 L 913.40,560.90 L 914.10,562.60 L 913.10,563.10 L 912.90,563.40 L 912.70,563.70 L 912.60,563.90 L 912.40,564.10 L 912.40,564.50 L 912.30,565.60 L 912.50,566.20 L 912.60,566.50 L 912.80,567.20 L 912.80,567.30 L 912.90,567.60 L 912.40,567.80 L 912.30,567.80 L 911.70,568.00 L 911.20,568.20 L 911.20,568.30 L 909.60,569.90 L 908.40,572.10 L 907.90,574.00 L 908.50,577.10 L 909.90,577.80 L 910.00,577.80 L 911.60,577.90 L 913.20,578.90 L 913.60,579.70 L 916.70,586.70 L 916.90,587.10 L 917.90,589.30 L 918.20,589.90 L 918.70,590.50 L 920.30,592.40 L 921.80,593.40 L 922.70,594.00 L 924.50,595.10 L 924.90,595.30 L 927.10,597.70 L 927.30,597.80 L 927.40,598.00 L 927.80,598.40 L 928.20,598.70 L 929.20,599.80 L 929.60,600.60 L 930.20,601.50 L 929.70,601.80 L 928.70,602.30 L 928.60,602.50 L 928.40,603.60 L 928.60,604.10 L 928.90,604.80 L 929.00,605.00 L 929.70,606.50 L 932.10,610.20 L 932.90,612.10 L 933.90,618.20 L 933.90,619.10 L 933.50,620.20 L 934.20,620.80 L 935.40,621.20 L 936.50,622.00 L 937.50,623.50 L 937.70,624.70 L 937.80,626.00 L 938.30,627.90 L 939.70,630.20 L 945.80,635.90 L 946.30,636.10 L 947.40,636.70 L 950.20,638.30 L 951.60,639.10 L 951.80,639.20 L 952.60,639.60 L 952.70,639.70 L 953.40,640.00 L 953.50,640.20 L 954.50,641.70 L 954.50,641.80 L 953.40,644.30 L 950.70,644.90 L 949.00,644.90 L 948.60,644.90 L 948.50,644.90 L 947.70,644.90 L 945.80,645.80 L 943.40,644.40 L 940.90,644.70 L 939.90,645.50 L 938.80,646.30 L 937.70,648.80 L 937.80,650.50 L 937.80,650.90 L 937.90,651.50 L 938.50,652.30 L 939.20,653.40 L 941.40,654.40 L 943.40,654.60 L 943.90,654.70 L 943.90,655.60 L 943.80,655.70 L 943.70,655.90 L 943.30,656.90 L 943.20,656.90 L 943.00,657.60 L 942.70,658.10 L 943.10,658.70 L 943.20,658.90 L 943.30,659.10 L 944.00,660.30 L 946.10,661.60 L 946.20,661.70 L 946.30,661.70 L 946.50,661.80 L 948.30,662.30 L 948.90,662.40 L 948.40,665.70 L 948.90,667.90 L 948.90,668.20 L 949.00,668.40 L 949.10,668.70 L 949.30,669.30 L 949.50,669.80 L 949.60,670.10 L 951.10,673.60 L 951.40,674.30 L 950.10,676.60 L 949.30,678.00 L 949.80,681.60 L 950.20,684.80 L 950.90,686.60 L 951.30,687.00 L 951.20,687.40 L 950.10,689.00 L 948.40,690.80 L 948.20,690.90 L 942.50,693.90 L 942.30,695.60 L 942.40,698.40 L 942.30,700.20 L 941.80,701.80 L 940.30,705.30 L 939.90,706.40 L 935.10,708.40 L 918.60,708.60 L 915.90,709.50 L 915.50,709.60 L 913.90,710.40 L 912.70,711.60 L 911.70,713.70 L 910.60,717.50 L 910.50,717.50 L 901.40,712.10 L 898.50,707.70 L 892.80,704.10 L 886.10,703.30 L 880.90,703.80 L 878.50,704.90 L 871.10,713.40 L 865.20,718.10 L 858.30,719.60 L 837.90,718.90 L 825.50,715.40 L 824.60,713.30 L 827.70,712.50 L 829.10,711.70 L 826.70,710.00 L 814.10,712.50 L 810.90,711.00 L 808.50,707.40 L 807.90,703.90 L 809.40,700.90 L 811.60,697.90 L 814.50,697.00 L 817.30,697.30 L 819.80,695.90 L 818.70,692.40 L 816.60,688.40 L 816.40,686.40 L 816.50,684.50 L 815.60,683.20 L 801.30,675.50 L 780.20,670.10 L 778.50,667.10 L 782.60,659.30 L 783.90,655.70 L 781.00,653.10 L 777.80,651.10 L 774.30,649.80 L 770.70,650.00 L 764.70,654.20 L 757.90,653.80 L 746.00,645.70 L 745.50,642.60 L 743.20,633.80 L 743.00,632.40 L 742.80,631.90 L 742.40,631.70 L 742.00,631.30 L 741.80,630.50 L 741.90,629.60 L 742.10,629.10 L 742.40,628.90 L 742.50,628.40 L 743.10,622.20 L 742.80,619.40 L 741.20,618.10 L 741.20,617.10 L 741.80,617.00 L 742.60,616.60 L 743.30,616.00 L 743.70,615.20 L 743.30,613.20 L 741.10,607.70 L 740.40,603.00 L 739.60,600.40 L 739.40,599.30 L 739.50,597.60 L 739.80,596.40 L 740.60,594.30 L 742.30,585.30 L 743.40,582.90 L 744.20,582.20 L 745.20,582.10 L 745.00,579.00 L 746.10,574.60 L 746.70,570.50 L 743.10,566.10 L 743.30,562.60 L 745.40,560.80 L 747.60,557.80 L 747.70,551.80 L 744.90,551.50 L 744.90,550.50 L 746.30,548.90 L 745.90,547.10 L 744.30,544.60 L 744.10,542.50 L 744.20,540.80 L 743.90,539.60 L 742.50,538.60 L 741.60,538.50 L 739.40,539.50 L 737.80,539.70 L 733.10,538.70 L 730.60,537.50 L 729.20,535.90 L 728.10,534.00 L 728.00,532.50 L 728.90,528.70 L 732.20,527.80 L 735.40,529.20 L 742.00,530.20 L 748.50,527.90 L 750.70,525.80 L 751.30,522.50 L 746.80,515.40 L 750.30,510.50 L 755.30,507.40 L 752.10,502.60 L 749.90,497.10 L 749.50,493.20 L 747.70,489.40 L 746.30,485.30 L 745.70,481.50 L 752.10,476.70 L 759.00,474.70 L 772.20,474.80 L 784.60,472.30 L 789.20,473.20 L 792.40,472.20 L 801.00,465.70 L 804.50,465.30 L 814.50,466.20 L 819.50,462.10 L 820.00,459.90 L 820.60,458.00 L 822.10,456.40 L 823.70,455.30 L 827.40,456.20 L 838.10,461.70 L 841.60,460.30 L 844.60,456.50 L 847.20,450.40 L 855.80,437.70 L 858.70,432.20 L 859.90,431.60 L 861.60,432.10 L 864.50,433.80 L 866.10,433.80 L 866.80,433.20"/>
  <path id="Pomerania" d="M 556.70,106.40 L 556.30,106.60 L 555.30,106.50 L 555.50,107.20 L 555.70,108.90 L 555.90,109.60 L 554.40,109.90 L 553.70,111.40 L 553.30,113.10 L 552.50,114.00 L 551.20,114.20 L 549.90,114.70 L 544.10,119.00 L 540.50,119.50 L 539.00,120.10 L 531.90,124.60 L 530.80,124.90 L 529.60,125.60 L 527.30,127.80 L 525.00,131.50 L 524.50,132.10 L 523.80,133.00 L 522.20,137.30 L 521.00,138.50 L 521.10,136.20 L 521.40,134.30 L 522.10,132.90 L 522.90,132.10 L 522.90,131.00 L 520.80,131.20 L 512.70,130.20 L 510.50,132.70 L 509.90,138.00 L 511.90,144.00 L 513.80,147.30 L 514.70,151.10 L 513.70,154.00 L 512.30,156.50 L 508.30,160.50 L 506.90,162.70 L 507.10,165.70 L 508.80,172.30 L 511.80,177.40 L 516.20,180.00 L 520.80,180.60 L 523.20,183.80 L 521.40,189.90 L 524.70,191.50 L 533.60,190.70 L 538.20,192.00 L 537.80,194.40 L 537.80,197.00 L 536.70,199.10 L 535.10,200.70 L 533.60,205.10 L 532.60,206.80 L 532.40,209.30 L 527.30,211.60 L 519.90,211.10 L 516.10,213.50 L 512.90,217.00 L 499.50,242.00 L 494.60,244.20 L 484.30,244.80 L 479.30,242.80 L 476.50,241.00 L 470.50,234.80 L 469.10,233.90 L 467.80,232.40 L 466.10,231.40 L 458.70,230.30 L 453.40,232.20 L 450.00,234.40 L 442.30,229.80 L 426.00,227.10 L 423.00,224.30 L 420.30,220.80 L 417.20,220.60 L 401.80,222.90 L 390.30,220.60 L 387.80,222.50 L 384.10,229.30 L 377.90,231.60 L 375.00,234.40 L 374.50,236.40 L 374.10,238.50 L 374.10,241.80 L 368.40,244.10 L 355.80,240.80 L 352.50,241.10 L 349.90,244.60 L 347.70,249.50 L 345.00,259.10 L 342.50,260.60 L 338.40,255.80 L 333.60,253.10 L 315.10,252.30 L 309.80,249.10 L 306.00,242.50 L 301.70,237.10 L 300.10,220.50 L 303.90,216.60 L 306.60,211.80 L 305.60,208.50 L 304.00,205.90 L 302.20,205.00 L 302.10,202.00 L 306.60,199.90 L 311.60,200.50 L 309.90,196.90 L 307.80,193.90 L 305.30,191.60 L 301.90,184.60 L 299.70,182.00 L 295.80,179.20 L 295.80,170.70 L 295.10,162.20 L 289.30,144.60 L 301.90,141.40 L 303.40,139.20 L 303.00,135.40 L 301.30,133.00 L 300.30,130.70 L 301.00,127.90 L 303.40,125.50 L 304.40,121.30 L 303.70,113.80 L 300.90,108.10 L 293.40,97.30 L 287.10,84.50 L 286.90,84.20 L 293.70,81.50 L 297.50,80.80 L 301.00,79.60 L 309.70,70.00 L 337.00,57.10 L 371.40,50.60 L 386.80,45.30 L 411.00,43.10 L 425.90,43.10 L 428.00,43.80 L 431.20,46.70 L 432.50,47.40 L 434.40,47.80 L 465.40,66.40 L 471.00,73.70 L 471.90,75.50 L 472.90,77.90 L 472.90,80.00 L 471.30,80.80 L 470.90,80.30 L 470.50,79.10 L 469.90,78.00 L 468.30,76.80 L 467.20,73.90 L 465.70,72.00 L 461.40,64.60 L 460.50,64.20 L 457.30,63.60 L 456.50,63.20 L 455.70,61.80 L 453.10,60.90 L 447.70,57.10 L 442.40,54.50 L 441.50,53.30 L 438.60,51.00 L 437.80,50.70 L 436.70,51.20 L 436.10,52.00 L 434.80,56.50 L 434.60,57.50 L 434.60,59.80 L 435.10,60.40 L 437.30,61.40 L 437.80,62.00 L 438.90,63.90 L 440.20,66.80 L 440.10,68.00 L 439.80,69.00 L 439.80,70.00 L 440.90,71.20 L 440.30,74.20 L 441.40,75.50 L 443.10,75.20 L 444.60,73.20 L 444.10,75.80 L 444.80,77.90 L 445.90,79.60 L 448.20,86.80 L 448.90,88.30 L 448.60,91.90 L 448.60,98.00 L 449.20,103.90 L 450.50,106.50 L 451.90,107.00 L 454.70,109.10 L 456.10,109.60 L 457.30,109.70 L 458.90,110.20 L 460.10,111.00 L 460.70,112.40 L 462.20,114.60 L 477.50,119.50 L 480.90,119.80 L 483.70,118.20 L 484.50,119.00 L 485.60,119.60 L 488.10,120.30 L 522.10,115.20 L 529.60,111.60 L 533.20,110.80 L 536.10,109.40 L 541.60,103.60 L 543.20,102.90 L 545.10,104.50 L 549.60,106.00 L 556.70,106.40"/>
  <path id="Masovia" d="M 716.80,259.10 L 718.00,264.40 L 720.10,269.40 L 721.50,275.30 L 723.80,292.80 L 728.90,305.50 L 732.20,312.00 L 737.00,314.60 L 742.00,315.30 L 746.20,318.60 L 744.70,321.30 L 745.10,325.10 L 747.40,329.30 L 750.90,331.20 L 753.10,333.50 L 754.40,337.20 L 755.70,342.70 L 758.10,347.10 L 764.50,350.50 L 771.40,349.50 L 775.90,344.60 L 780.30,347.90 L 778.90,356.20 L 781.20,359.40 L 784.00,361.40 L 789.10,358.80 L 794.40,357.30 L 795.80,364.40 L 796.40,372.20 L 797.50,377.50 L 797.70,383.00 L 797.50,386.30 L 802.50,391.70 L 804.40,394.30 L 806.40,396.00 L 807.10,396.90 L 807.30,398.40 L 807.00,399.60 L 806.60,400.80 L 806.50,402.10 L 806.80,404.00 L 807.30,405.30 L 808.00,406.00 L 809.30,406.20 L 809.50,406.90 L 809.00,411.80 L 809.60,413.40 L 811.10,415.60 L 813.00,417.00 L 814.50,416.30 L 815.60,418.10 L 817.80,418.60 L 822.60,418.40 L 836.70,421.30 L 843.80,420.30 L 846.50,421.20 L 848.60,423.20 L 849.40,426.60 L 851.30,425.50 L 853.00,426.50 L 855.50,429.60 L 855.10,430.40 L 854.60,432.00 L 854.40,432.70 L 855.90,433.60 L 857.30,433.10 L 858.70,432.20 L 855.80,437.70 L 847.20,450.40 L 844.60,456.50 L 841.60,460.30 L 838.10,461.70 L 827.40,456.20 L 823.70,455.30 L 822.10,456.40 L 820.60,458.00 L 820.00,459.90 L 819.50,462.10 L 814.50,466.20 L 804.50,465.30 L 801.00,465.70 L 792.40,472.20 L 789.20,473.20 L 784.60,472.30 L 772.20,474.80 L 759.00,474.70 L 752.10,476.70 L 745.70,481.50 L 746.30,485.30 L 747.70,489.40 L 749.50,493.20 L 749.90,497.10 L 752.10,502.60 L 755.30,507.40 L 750.30,510.50 L 746.80,515.40 L 751.30,522.50 L 750.70,525.80 L 748.50,527.90 L 742.00,530.20 L 735.40,529.20 L 732.20,527.80 L 728.90,528.70 L 728.00,532.50 L 728.10,534.00 L 729.20,535.90 L 730.60,537.50 L 733.10,538.70 L 737.80,539.70 L 739.40,539.50 L 741.60,538.50 L 742.50,538.60 L 743.90,539.60 L 744.20,540.80 L 744.10,542.50 L 744.30,544.60 L 745.90,547.10 L 746.30,548.90 L 744.90,550.50 L 744.90,551.50 L 747.70,551.80 L 747.60,557.80 L 745.40,560.80 L 743.30,562.60 L 743.10,566.10 L 746.70,570.50 L 746.10,574.60 L 745.00,579.00 L 745.20,582.10 L 744.20,582.20 L 743.40,582.90 L 742.30,585.30 L 740.60,594.30 L 739.80,596.40 L 739.50,597.60 L 739.40,599.30 L 739.60,600.40 L 740.40,603.00 L 741.10,607.70 L 743.30,613.20 L 714.30,619.30 L 699.30,614.60 L 692.30,614.00 L 686.10,609.90 L 685.50,607.70 L 685.10,605.30 L 682.40,602.20 L 681.70,597.40 L 678.90,596.40 L 676.10,599.10 L 673.40,602.90 L 670.40,604.60 L 657.80,606.60 L 646.80,604.30 L 644.50,602.50 L 642.60,599.50 L 640.50,597.10 L 625.50,587.90 L 622.80,581.00 L 617.80,579.20 L 617.50,575.00 L 618.70,571.00 L 624.50,565.60 L 626.00,561.60 L 626.00,556.90 L 624.80,555.60 L 621.50,553.90 L 620.80,551.60 L 620.50,546.90 L 619.60,542.40 L 616.90,536.00 L 619.20,527.70 L 626.30,527.70 L 631.70,530.70 L 638.30,531.60 L 639.50,529.20 L 639.70,525.70 L 638.30,522.00 L 633.50,516.90 L 632.60,512.70 L 633.10,510.80 L 634.00,509.50 L 634.80,507.80 L 634.20,505.40 L 628.90,498.20 L 622.30,493.10 L 616.30,490.30 L 606.70,491.50 L 603.40,490.40 L 602.60,488.00 L 602.80,485.20 L 600.70,482.00 L 598.20,479.20 L 597.50,476.10 L 600.50,474.30 L 601.50,466.90 L 600.20,465.30 L 596.70,462.90 L 590.40,460.40 L 589.00,460.80 L 587.70,460.10 L 585.90,455.90 L 585.60,450.80 L 584.40,447.00 L 581.90,445.20 L 578.70,444.30 L 575.80,442.80 L 573.70,439.00 L 571.20,435.80 L 567.80,436.10 L 564.90,439.10 L 546.10,443.00 L 537.70,436.20 L 533.00,434.00 L 523.50,432.00 L 514.70,426.00 L 515.30,423.40 L 515.70,420.90 L 522.40,409.80 L 522.00,407.10 L 520.20,405.20 L 520.60,399.40 L 523.10,394.50 L 529.20,376.70 L 533.10,375.70 L 533.00,370.70 L 530.40,364.40 L 528.80,361.60 L 527.80,358.40 L 528.60,355.40 L 530.40,353.40 L 530.90,347.80 L 529.50,341.70 L 533.90,342.20 L 537.70,339.00 L 539.40,336.50 L 541.30,334.60 L 543.10,335.40 L 544.80,336.60 L 546.50,336.80 L 547.30,334.20 L 547.80,331.30 L 548.10,328.30 L 547.40,323.80 L 547.30,320.90 L 546.70,318.00 L 551.40,315.80 L 555.70,312.30 L 558.90,311.50 L 561.50,309.30 L 563.80,304.70 L 567.40,303.50 L 569.00,303.90 L 570.40,304.80 L 571.00,306.20 L 571.80,307.10 L 600.40,311.60 L 607.30,310.30 L 610.00,308.90 L 612.40,306.20 L 613.90,301.10 L 616.70,298.90 L 620.20,299.20 L 623.50,298.20 L 636.20,290.90 L 639.20,287.30 L 642.50,284.60 L 649.00,284.70 L 654.80,283.50 L 661.40,279.70 L 670.10,279.70 L 678.20,277.10 L 685.10,268.90 L 693.20,269.60 L 697.30,269.00 L 701.00,266.40 L 703.60,261.20 L 705.80,260.00 L 716.80,259.10"/>
  <path id="Łódź" d="M 556.00,649.30 L 546.10,644.30 L 537.00,644.80 L 534.00,643.90 L 525.50,630.30 L 520.00,625.30 L 513.90,624.20 L 510.80,626.90 L 503.60,626.90 L 497.70,625.70 L 485.80,619.30 L 483.00,616.40 L 479.80,615.80 L 477.00,617.80 L 474.00,619.20 L 461.20,619.60 L 456.60,621.90 L 449.80,616.30 L 447.70,612.20 L 445.30,609.20 L 444.20,609.90 L 443.40,611.40 L 442.20,612.40 L 435.80,612.60 L 415.50,607.30 L 412.80,605.20 L 410.80,601.50 L 410.20,594.80 L 409.30,590.80 L 404.10,586.10 L 402.40,582.10 L 402.10,577.40 L 403.60,574.20 L 410.20,572.70 L 412.50,569.10 L 414.00,564.50 L 418.50,563.20 L 423.50,565.60 L 427.80,562.50 L 430.30,555.60 L 430.20,547.80 L 429.30,539.80 L 429.70,530.20 L 432.10,521.20 L 436.30,511.10 L 438.60,507.90 L 443.80,505.50 L 457.00,506.90 L 458.00,505.80 L 462.40,498.10 L 462.70,493.40 L 461.00,488.70 L 460.00,483.50 L 460.60,478.50 L 461.90,474.00 L 464.80,473.70 L 467.90,474.10 L 474.00,472.70 L 478.60,467.20 L 479.40,458.00 L 480.30,453.80 L 489.40,450.00 L 495.00,444.60 L 494.80,443.10 L 493.40,442.70 L 491.70,439.00 L 491.50,434.20 L 492.40,433.10 L 493.10,431.70 L 494.60,430.80 L 505.80,430.60 L 509.30,429.60 L 510.10,427.90 L 511.20,426.20 L 513.00,425.90 L 514.70,426.00 L 523.50,432.00 L 533.00,434.00 L 537.70,436.20 L 546.10,443.00 L 564.90,439.10 L 567.80,436.10 L 571.20,435.80 L 573.70,439.00 L 575.80,442.80 L 578.70,444.30 L 581.90,445.20 L 584.40,447.00 L 585.60,450.80 L 585.90,455.90 L 587.70,460.10 L 589.00,460.80 L 590.40,460.40 L 596.70,462.90 L 600.20,465.30 L 601.50,466.90 L 600.50,474.30 L 597.50,476.10 L 598.20,479.20 L 600.70,482.00 L 602.80,485.20 L 602.60,488.00 L 603.40,490.40 L 606.70,491.50 L 616.30,490.30 L 622.30,493.10 L 628.90,498.20 L 634.20,505.40 L 634.80,507.80 L 634.00,509.50 L 633.10,510.80 L 632.60,512.70 L 633.50,516.90 L 638.30,522.00 L 639.70,525.70 L 639.50,529.20 L 638.30,531.60 L 631.70,530.70 L 626.30,527.70 L 619.20,527.70 L 616.90,536.00 L 619.60,542.40 L 620.50,546.90 L 620.80,551.60 L 621.50,553.90 L 624.80,555.60 L 626.00,556.90 L 626.00,561.60 L 624.50,565.60 L 618.70,571.00 L 617.50,575.00 L 617.80,579.20 L 615.20,581.20 L 611.90,589.40 L 608.90,590.80 L 605.90,591.30 L 603.00,592.70 L 596.70,598.70 L 593.80,599.50 L 583.70,598.10 L 580.90,599.20 L 578.70,602.10 L 576.40,610.80 L 580.60,617.10 L 583.40,619.40 L 584.20,624.20 L 583.50,628.90 L 581.50,631.30 L 569.50,622.50 L 566.30,623.10 L 565.10,627.80 L 565.00,632.40 L 565.40,636.90 L 563.90,641.20 L 560.70,643.30 L 558.10,645.80 L 556.00,649.30"/>
  <path id="Kuyavia-Pomerania" d="M 499.50,242.00 L 507.40,257.30 L 509.60,263.90 L 512.40,269.10 L 513.80,271.20 L 515.90,272.10 L 517.60,272.10 L 524.60,274.40 L 534.30,280.30 L 544.60,283.00 L 549.70,286.60 L 554.40,298.50 L 555.70,312.30 L 551.40,315.80 L 546.70,318.00 L 547.30,320.90 L 547.40,323.80 L 548.10,328.30 L 547.80,331.30 L 547.30,334.20 L 546.50,336.80 L 544.80,336.60 L 543.10,335.40 L 541.30,334.60 L 539.40,336.50 L 537.70,339.00 L 533.90,342.20 L 529.50,341.70 L 530.90,347.80 L 530.40,353.40 L 528.60,355.40 L 527.80,358.40 L 528.80,361.60 L 530.40,364.40 L 533.00,370.70 L 533.10,375.70 L 529.20,376.70 L 523.10,394.50 L 520.60,399.40 L 520.20,405.20 L 522.00,407.10 L 522.40,409.80 L 515.70,420.90 L 515.30,423.40 L 514.70,426.00 L 513.00,425.90 L 511.20,426.20 L 510.10,427.90 L 509.30,429.60 L 505.80,430.60 L 494.60,430.80 L 493.10,431.70 L 492.40,433.10 L 491.50,434.20 L 482.90,427.60 L 479.70,428.10 L 470.20,432.10 L 466.90,432.40 L 464.40,426.70 L 449.40,414.40 L 446.70,411.20 L 443.50,409.70 L 441.80,409.90 L 440.10,410.60 L 439.30,412.30 L 437.90,413.10 L 435.70,412.40 L 434.00,409.80 L 432.90,407.40 L 432.20,404.70 L 430.90,403.80 L 429.10,403.30 L 423.80,409.50 L 420.70,410.90 L 411.50,408.50 L 408.60,405.70 L 406.00,402.40 L 402.90,401.20 L 399.60,400.90 L 396.30,399.30 L 387.00,390.70 L 380.20,387.00 L 373.90,386.70 L 368.10,384.70 L 367.10,384.10 L 366.40,383.20 L 366.00,380.70 L 365.20,378.70 L 362.40,376.30 L 360.80,377.80 L 357.10,379.00 L 353.40,378.30 L 351.60,375.40 L 350.20,371.90 L 346.90,368.70 L 347.50,364.90 L 349.10,363.70 L 350.70,363.80 L 352.20,363.30 L 353.20,361.20 L 355.20,350.60 L 350.70,340.80 L 343.90,335.60 L 336.50,332.90 L 340.60,323.50 L 341.80,314.10 L 339.00,308.70 L 338.20,302.30 L 346.50,295.30 L 342.20,285.40 L 334.40,279.40 L 333.40,274.80 L 339.90,266.20 L 342.50,260.60 L 345.00,259.10 L 347.70,249.50 L 349.90,244.60 L 352.50,241.10 L 355.80,240.80 L 368.40,244.10 L 374.10,241.80 L 374.10,238.50 L 374.50,236.40 L 375.00,234.40 L 377.90,231.60 L 384.10,229.30 L 387.80,222.50 L 390.30,220.60 L 401.80,222.90 L 417.20,220.60 L 420.30,220.80 L 423.00,224.30 L 426.00,227.10 L 442.30,229.80 L 450.00,234.40 L 453.40,232.20 L 458.70,230.30 L 466.10,231.40 L 467.80,232.40 L 469.10,233.90 L 470.50,234.80 L 476.50,241.00 L 479.30,242.80 L 484.30,244.80 L 494.60,244.20 L 499.50,242.00"/>
  <path id="Greater Poland" d="M 371.30,599.50 L 370.10,592.30 L 369.00,577.40 L 371.60,571.30 L 368.30,568.70 L 364.90,567.70 L 359.30,568.80 L 354.00,567.60 L 351.80,562.20 L 351.30,555.90 L 352.60,552.80 L 354.80,551.40 L 356.00,547.80 L 356.90,543.60 L 347.90,537.70 L 337.90,535.00 L 327.20,534.90 L 323.40,535.70 L 320.00,543.50 L 301.20,546.80 L 290.80,543.10 L 285.80,537.60 L 277.00,532.70 L 273.10,525.70 L 272.80,521.00 L 271.20,517.30 L 261.00,511.70 L 257.30,510.70 L 249.40,512.30 L 246.50,501.30 L 240.60,494.80 L 234.00,499.30 L 229.80,498.00 L 225.90,495.30 L 224.60,491.40 L 225.00,486.30 L 225.80,483.50 L 225.70,480.50 L 224.20,479.60 L 222.60,480.20 L 219.30,480.20 L 216.00,476.90 L 213.90,473.10 L 212.30,468.50 L 207.30,465.80 L 204.80,463.30 L 202.70,460.10 L 202.00,455.40 L 202.10,450.50 L 203.10,446.10 L 203.30,443.80 L 203.80,441.70 L 206.70,433.00 L 206.50,423.80 L 204.70,419.40 L 200.90,412.60 L 202.80,411.20 L 205.20,411.20 L 205.20,406.80 L 204.50,401.30 L 203.40,396.10 L 200.20,387.30 L 199.90,379.00 L 200.30,375.80 L 200.40,372.40 L 201.00,371.00 L 202.40,371.20 L 211.00,368.50 L 212.70,367.30 L 213.60,365.00 L 211.60,357.60 L 208.80,355.00 L 217.70,343.60 L 217.40,334.00 L 219.20,325.30 L 224.20,327.00 L 229.70,330.30 L 235.40,329.60 L 241.00,327.40 L 249.70,319.10 L 257.10,307.50 L 270.20,299.80 L 276.90,297.70 L 279.50,295.20 L 281.70,291.40 L 284.40,288.00 L 283.90,283.60 L 281.00,280.00 L 277.70,278.20 L 270.80,276.50 L 265.10,270.90 L 263.70,265.50 L 263.60,259.40 L 265.70,256.50 L 282.40,257.00 L 285.10,256.40 L 287.40,246.70 L 289.20,241.70 L 291.60,237.50 L 294.80,236.10 L 298.30,236.00 L 301.70,237.10 L 306.00,242.50 L 309.80,249.10 L 315.10,252.30 L 333.60,253.10 L 338.40,255.80 L 342.50,260.60 L 339.90,266.20 L 333.40,274.80 L 334.40,279.40 L 342.20,285.40 L 346.50,295.30 L 338.20,302.30 L 339.00,308.70 L 341.80,314.10 L 340.60,323.50 L 336.50,332.90 L 343.90,335.60 L 350.70,340.80 L 355.20,350.60 L 353.20,361.20 L 352.20,363.30 L 350.70,363.80 L 349.10,363.70 L 347.50,364.90 L 346.90,368.70 L 350.20,371.90 L 351.60,375.40 L 353.40,378.30 L 357.10,379.00 L 360.80,377.80 L 362.40,376.30 L 365.20,378.70 L 366.00,380.70 L 366.40,383.20 L 367.10,384.10 L 368.10,384.70 L 373.90,386.70 L 380.20,387.00 L 387.00,390.70 L 396.30,399.30 L 399.60,400.90 L 402.90,401.20 L 406.00,402.40 L 408.60,405.70 L 411.50,408.50 L 420.70,410.90 L 423.80,409.50 L 429.10,403.30 L 430.90,403.80 L 432.20,404.70 L 432.90,407.40 L 434.00,409.80 L 435.70,412.40 L 437.90,413.10 L 439.30,412.30 L 440.10,410.60 L 441.80,409.90 L 443.50,409.70 L 446.70,411.20 L 449.40,414.40 L 464.40,426.70 L 466.90,432.40 L 470.20,432.10 L 479.70,428.10 L 482.90,427.60 L 491.50,434.20 L 491.70,439.00 L 493.40,442.70 L 494.80,443.10 L 495.00,444.60 L 489.40,450.00 L 480.30,453.80 L 479.40,458.00 L 478.60,467.20 L 474.00,472.70 L 467.90,474.10 L 464.80,473.70 L 461.90,474.00 L 460.60,478.50 L 460.00,483.50 L 461.00,488.70 L 462.70,493.40 L 462.40,498.10 L 458.00,505.80 L 457.00,506.90 L 443.80,505.50 L 438.60,507.90 L 436.30,511.10 L 432.10,521.20 L 429.70,530.20 L 429.30,539.80 L 430.20,547.80 L 430.30,555.60 L 427.80,562.50 L 423.50,565.60 L 418.50,563.20 L 414.00,564.50 L 412.50,569.10 L 410.20,572.70 L 403.60,574.20 L 402.10,577.40 L 402.40,582.10 L 404.10,586.10 L 409.30,590.80 L 410.20,594.80 L 410.80,601.50 L 400.40,607.70 L 389.70,611.70 L 383.90,611.40 L 379.10,607.50 L 378.60,604.00 L 377.40,600.90 L 374.40,599.30 L 371.30,599.50"/>
  <path id="Świętokrzyskie" d="M 574.70,695.10 L 572.10,694.10 L 565.90,693.20 L 562.80,691.50 L 564.60,687.50 L 570.80,682.30 L 574.50,681.70 L 570.20,676.40 L 567.60,670.80 L 564.50,668.40 L 557.70,666.40 L 555.20,663.50 L 558.60,657.00 L 564.80,656.00 L 565.20,654.80 L 565.20,653.10 L 564.90,651.50 L 563.70,650.80 L 556.00,649.30 L 558.10,645.80 L 560.70,643.30 L 563.90,641.20 L 565.40,636.90 L 565.00,632.40 L 565.10,627.80 L 566.30,623.10 L 569.50,622.50 L 581.50,631.30 L 583.50,628.90 L 584.20,624.20 L 583.40,619.40 L 580.60,617.10 L 576.40,610.80 L 578.70,602.10 L 580.90,599.20 L 583.70,598.10 L 593.80,599.50 L 596.70,598.70 L 603.00,592.70 L 605.90,591.30 L 608.90,590.80 L 611.90,589.40 L 615.20,581.20 L 617.80,579.20 L 622.80,581.00 L 625.50,587.90 L 640.50,597.10 L 642.60,599.50 L 644.50,602.50 L 646.80,604.30 L 657.80,606.60 L 670.40,604.60 L 673.40,602.90 L 676.10,599.10 L 678.90,596.40 L 681.70,597.40 L 682.40,602.20 L 685.10,605.30 L 685.50,607.70 L 686.10,609.90 L 692.30,614.00 L 699.30,614.60 L 714.30,619.30 L 743.30,613.20 L 743.70,615.20 L 743.30,616.00 L 742.60,616.60 L 741.80,617.00 L 741.20,617.10 L 741.20,618.10 L 742.80,619.40 L 743.10,622.20 L 742.50,628.40 L 742.40,628.90 L 742.10,629.10 L 741.90,629.60 L 741.80,630.50 L 742.00,631.30 L 742.40,631.70 L 742.80,631.90 L 743.00,632.40 L 743.20,633.80 L 745.50,642.60 L 746.00,645.70 L 746.20,647.60 L 746.40,652.90 L 745.60,658.60 L 745.00,660.80 L 743.90,663.40 L 742.50,665.50 L 740.90,666.40 L 738.50,666.80 L 736.90,667.90 L 734.30,672.30 L 730.00,677.40 L 729.40,679.60 L 728.90,682.40 L 727.80,684.60 L 725.00,688.00 L 723.30,689.40 L 717.50,690.90 L 708.80,694.80 L 709.20,695.40 L 710.10,697.70 L 708.40,699.50 L 706.00,700.90 L 703.70,701.40 L 702.00,700.60 L 696.50,705.50 L 696.10,705.60 L 694.80,705.50 L 694.50,705.80 L 694.50,706.40 L 694.60,707.10 L 694.50,707.50 L 693.50,708.30 L 692.90,708.20 L 692.10,707.50 L 691.60,709.50 L 690.50,710.50 L 689.40,711.00 L 689.00,711.80 L 688.80,713.00 L 688.50,713.30 L 688.00,713.30 L 687.40,713.80 L 685.80,716.00 L 685.80,716.20 L 684.20,716.60 L 683.30,715.80 L 682.50,714.80 L 681.20,714.20 L 680.30,714.40 L 676.50,716.20 L 675.70,717.00 L 674.80,717.90 L 673.80,718.80 L 672.40,719.20 L 665.70,719.40 L 664.80,719.70 L 664.00,720.40 L 663.10,721.60 L 662.30,722.10 L 659.80,722.30 L 658.50,723.10 L 657.10,722.20 L 655.90,723.00 L 654.70,724.30 L 653.20,725.00 L 649.70,721.70 L 649.20,722.50 L 648.60,725.00 L 646.70,726.90 L 646.40,727.10 L 645.60,727.10 L 645.20,727.40 L 644.90,728.10 L 644.80,729.60 L 644.50,730.30 L 643.20,731.60 L 640.30,733.00 L 639.20,734.80 L 638.80,736.30 L 636.10,739.20 L 624.20,738.80 L 617.50,734.80 L 615.80,731.20 L 611.70,725.40 L 610.10,722.10 L 608.60,715.50 L 604.40,707.30 L 597.50,702.60 L 589.80,700.20 L 586.80,697.00 L 583.20,695.10 L 574.70,695.10"/>
</svg>
