<?xml version="1.0" encoding="UTF-8"?>
<svg xmlns="http://www.w3.org/2000/svg" viewBox="0 0 700 743.482">
  <path id="A Coruña" d="M 451.6,41.1 L 451.6,45.0 L 449.8,45.0 L 445.7,47.0 L 443.9,47.0 L 443.9,50.9 L 441.8,50.9 L 441.8,52.9 L 439.7,52.9 L 438.0,52.9 L 435.9,52.9 L 433.8,55.0 L 431.8,55.0 L 430.0,55.0 L 430.0,56.8 L 427.9,56.8 L 425.9,56.8 L 424.1,58.9 L 424.1,60.9 L 422.0,60.9 L 422.0,58.9 L 420.0,58.9 L 420.0,60.9 L 422.0,62.7 L 420.0,62.7 L 418.2,62.7 L 416.1,62.7 L 416.1,64.8 L 416.1,66.8 L 418.2,66.8 L 418.2,68.6 L 420.0,68.6 L 417.4,69.9 L 416.1,68.6 L 414.0,68.6 L 412.2,66.8 L 410.2,64.8 L 406.3,66.8 L 408.1,70.7 L 408.1,72.7 L 410.2,72.7 L 410.2,74.5 L 412.2,74.5 L 412.2,76.6 L 412.2,78.6 L 410.2,78.6 L 410.2,76.6 L 408.1,76.6 L 406.3,78.6 L 406.3,80.4 L 404.3,78.6 L 404.3,80.4 L 402.2,78.6 L 400.4,78.6 L 398.4,78.6 L 396.3,76.6 L 398.4,76.6 L 400.4,74.5 L 402.2,74.5 L 404.3,76.6 L 404.3,74.5 L 404.3,72.7 L 400.4,72.7 L 400.4,70.7 L 402.2,70.7 L 402.2,68.6 L 404.3,68.6 L 404.3,66.8 L 404.3,64.8 L 406.3,64.8 L 406.3,62.7 L 404.3,62.7 L 404.3,60.9 L 406.3,62.7 L 408.1,62.7 L 410.2,64.8 L 410.2,62.7 L 410.2,60.9 L 410.2,58.9 L 408.1,58.9 L 406.3,56.8 L 406.3,55.0 L 408.1,55.0 L 408.1,52.9 L 408.1,50.9 L 408.1,49.1 L 408.1,47.0 L 410.2,47.0 L 408.1,43.2 L 406.3,45.0 L 402.2,45.0 L 400.4,45.0 L 398.4,43.2 L 398.4,45.0 L 396.3,47.0 L 394.5,49.1 L 396.3,50.9 L 394.5,50.9 L 394.5,52.9 L 392.5,52.9 L 390.4,52.9 L 386.5,52.9 L 388.6,55.0 L 386.5,56.8 L 384.5,58.9 L 380.6,58.9 L 380.6,60.9 L 376.5,62.7 L 374.7,62.7 L 372.7,62.7 L 370.6,60.9 L 368.8,60.9 L 366.8,60.9 L 364.7,60.9 L 362.9,60.9 L 360.8,60.9 L 360.8,62.7 L 358.8,62.7 L 358.8,64.8 L 358.8,66.8 L 357.0,68.6 L 358.8,68.6 L 358.8,70.7 L 357.0,68.6 L 357.0,70.7 L 357.0,72.7 L 354.9,72.7 L 357.0,74.5 L 354.9,76.6 L 357.0,78.6 L 357.0,76.6 L 358.8,78.6 L 360.8,76.6 L 360.8,80.4 L 357.0,80.4 L 357.0,82.5 L 354.9,82.5 L 352.9,82.5 L 352.9,80.4 L 352.9,78.6 L 352.9,76.6 L 351.1,76.6 L 351.1,78.6 L 349.0,78.6 L 349.0,80.4 L 349.0,82.5 L 347.0,80.4 L 347.0,82.5 L 345.2,82.5 L 343.1,82.5 L 343.1,84.6 L 341.1,84.6 L 339.3,86.4 L 337.2,86.4 L 337.2,88.4 L 337.2,90.5 L 335.1,90.5 L 331.3,92.5 L 329.2,90.5 L 329.2,88.4 L 327.2,88.4 L 327.2,90.5 L 325.4,90.5 L 325.4,92.5 L 327.2,92.5 L 325.4,94.3 L 323.3,94.3 L 323.3,96.4 L 321.3,96.4 L 321.3,98.4 L 319.5,98.4 L 319.5,100.2 L 317.4,102.3 L 315.4,104.3 L 313.6,106.2 L 311.5,106.2 L 309.4,108.2 L 305.6,110.3 L 303.5,108.2 L 299.7,108.2 L 297.6,106.2 L 297.6,104.3 L 295.8,104.3 L 293.8,104.3 L 293.8,106.2 L 293.8,108.2 L 295.8,108.2 L 295.8,110.3 L 295.8,112.1 L 297.6,112.1 L 299.7,114.1 L 299.7,116.2 L 297.6,118.0 L 295.8,118.0 L 293.8,118.0 L 291.7,118.0 L 289.9,122.1 L 291.7,122.1 L 291.7,123.9 L 291.7,125.9 L 293.8,125.9 L 291.7,129.8 L 291.7,131.9 L 289.9,133.9 L 287.9,133.9 L 287.9,135.7 L 285.8,135.7 L 287.9,137.8 L 285.8,137.8 L 287.9,139.8 L 289.9,137.8 L 291.7,137.8 L 293.8,135.7 L 293.8,137.8 L 295.8,137.8 L 297.6,137.8 L 297.6,139.8 L 299.7,139.8 L 301.7,139.8 L 301.7,137.8 L 305.6,137.8 L 305.6,135.7 L 307.6,135.7 L 307.6,133.9 L 307.6,131.9 L 309.4,131.9 L 309.4,129.8 L 311.5,129.8 L 311.5,131.9 L 309.4,133.9 L 309.4,135.7 L 311.5,135.7 L 313.6,133.9 L 313.6,135.7 L 315.4,135.7 L 317.4,135.7 L 317.4,133.9 L 319.5,133.9 L 319.5,135.7 L 321.3,135.7 L 323.3,135.7 L 323.3,133.9 L 321.3,133.9 L 321.3,131.9 L 323.3,133.9 L 325.4,131.9 L 327.2,129.8 L 329.2,129.8 L 329.2,128.0 L 331.3,125.9 L 329.2,123.9 L 331.3,123.9 L 332.8,123.9 L 333.1,125.9 L 331.3,128.0 L 331.3,129.8 L 331.3,131.9 L 329.2,133.9 L 329.2,135.7 L 327.2,137.8 L 325.4,137.8 L 325.4,139.8 L 323.3,139.8 L 323.3,141.9 L 321.3,141.9 L 319.5,141.9 L 317.4,141.9 L 315.4,141.9 L 313.6,141.9 L 311.5,139.8 L 311.5,141.9 L 309.4,139.8 L 307.6,139.8 L 305.6,139.8 L 305.6,141.9 L 303.5,141.9 L 303.5,139.8 L 301.7,141.9 L 301.7,139.8 L 299.7,141.9 L 295.8,141.9 L 293.8,141.9 L 293.8,143.7 L 295.8,143.7 L 295.8,145.7 L 293.8,145.7 L 291.7,145.7 L 293.8,147.8 L 297.6,147.8 L 299.7,147.8 L 301.7,147.8 L 301.7,149.6 L 305.6,151.6 L 307.6,153.7 L 309.4,155.5 L 311.5,155.5 L 309.4,153.7 L 311.5,151.6 L 315.4,153.7 L 317.4,155.5 L 319.5,155.5 L 319.5,153.7 L 321.3,153.7 L 323.3,153.7 L 323.3,155.5 L 325.4,155.5 L 327.2,155.5 L 327.2,157.6 L 323.3,157.6 L 321.3,157.6 L 319.5,159.6 L 317.4,159.6 L 317.4,161.4 L 315.4,163.5 L 315.4,165.5 L 313.6,165.5 L 315.4,167.3 L 315.4,169.4 L 315.4,171.4 L 315.4,173.2 L 317.4,173.2 L 317.4,175.3 L 315.4,175.3 L 313.6,177.3 L 315.4,179.1 L 317.4,183.3 L 315.4,181.2 L 317.4,185.3 L 315.4,185.3 L 313.6,183.3 L 311.5,181.2 L 309.4,179.1 L 307.6,177.3 L 307.6,179.1 L 305.6,175.3 L 307.6,175.3 L 307.6,173.2 L 305.6,171.4 L 303.5,169.4 L 303.5,167.3 L 303.5,165.5 L 301.7,165.5 L 299.7,165.5 L 297.6,165.5 L 295.8,165.5 L 295.8,163.5 L 295.8,161.4 L 293.8,159.6 L 291.7,159.6 L 289.9,159.6 L 287.8,159.6 L 285.8,159.6 L 283.7,161.4 L 285.8,163.5 L 283.7,163.5 L 281.9,165.5 L 283.7,165.5 L 285.8,165.5 L 285.8,169.4 L 283.7,171.4 L 281.9,173.2 L 283.7,175.3 L 281.9,175.3 L 283.7,177.3 L 281.9,177.3 L 279.9,177.3 L 279.9,179.1 L 277.8,179.1 L 277.8,177.3 L 276.0,179.1 L 274.0,179.1 L 274.0,177.3 L 274.0,175.3 L 271.9,173.2 L 271.9,171.4 L 270.1,171.4 L 270.1,169.4 L 271.9,169.4 L 274.0,169.4 L 271.9,167.3 L 271.9,165.5 L 274.0,163.5 L 270.1,161.4 L 271.9,163.5 L 270.1,163.5 L 268.1,163.5 L 268.1,165.5 L 270.1,165.5 L 270.1,167.3 L 268.1,169.4 L 266.0,167.3 L 266.0,165.5 L 264.2,165.5 L 262.1,165.5 L 262.1,163.5 L 260.1,165.5 L 260.1,167.3 L 258.3,167.3 L 256.2,167.3 L 256.2,169.4 L 256.2,171.4 L 254.2,171.4 L 252.4,171.4 L 252.4,173.2 L 250.3,173.2 L 248.3,173.2 L 246.5,177.3 L 244.4,179.1 L 244.4,181.2 L 242.4,181.2 L 240.6,181.2 L 240.6,183.3 L 234.4,185.3 L 230.5,185.3 L 228.5,185.3 L 228.5,183.3 L 224.6,183.3 L 222.6,183.3 L 222.6,181.2 L 220.8,183.3 L 218.7,181.2 L 218.7,183.3 L 216.7,183.3 L 214.9,183.3 L 210.7,185.3 L 206.9,187.1 L 203.0,187.1 L 197.1,191.2 L 193.0,191.2 L 191.2,189.2 L 191.2,187.1 L 189.2,189.2 L 185.0,189.2 L 183.3,187.1 L 181.2,185.3 L 179.1,185.3 L 177.3,185.3 L 175.3,185.3 L 175.3,183.3 L 173.2,181.2 L 171.4,181.2 L 171.4,179.1 L 169.4,177.3 L 167.3,175.3 L 165.5,175.3 L 165.5,171.4 L 165.5,169.4 L 163.5,169.4 L 163.5,171.4 L 161.4,171.4 L 161.4,175.3 L 161.4,177.3 L 161.4,179.1 L 159.6,177.3 L 157.6,179.1 L 157.6,177.3 L 155.5,177.3 L 155.5,179.1 L 153.7,179.1 L 151.6,177.3 L 149.6,177.3 L 147.8,177.3 L 145.7,177.3 L 145.7,179.1 L 145.7,181.2 L 145.7,183.3 L 145.7,185.3 L 143.7,185.3 L 141.9,185.3 L 139.8,187.1 L 141.9,189.2 L 139.8,189.2 L 137.8,187.1 L 135.7,185.3 L 133.9,185.3 L 131.9,187.1 L 129.8,187.1 L 125.9,189.2 L 125.9,191.2 L 128.0,193.0 L 128.0,195.1 L 129.8,195.1 L 131.9,195.1 L 133.9,195.1 L 133.9,197.1 L 133.9,198.9 L 133.9,203.0 L 135.7,201.0 L 135.7,203.0 L 137.8,204.8 L 135.7,206.9 L 133.9,206.9 L 131.9,206.9 L 129.8,206.9 L 128.0,206.9 L 125.9,206.9 L 125.9,209.0 L 123.9,209.0 L 123.9,210.8 L 122.1,209.0 L 120.0,209.0 L 122.1,206.9 L 120.0,204.8 L 118.0,203.0 L 118.0,204.8 L 120.0,206.9 L 118.0,206.9 L 116.2,209.0 L 116.2,210.8 L 114.1,210.8 L 114.1,209.0 L 112.1,210.8 L 112.1,212.8 L 112.1,216.7 L 106.2,218.7 L 104.3,218.7 L 102.3,218.7 L 102.3,220.8 L 100.2,220.8 L 100.2,218.7 L 98.4,218.7 L 98.4,216.7 L 96.4,216.7 L 94.3,218.7 L 92.5,216.7 L 92.5,214.9 L 90.5,214.9 L 88.4,212.8 L 88.4,214.9 L 86.4,214.9 L 84.6,214.9 L 84.6,216.7 L 82.5,218.7 L 80.4,218.7 L 80.4,216.7 L 78.6,216.7 L 76.6,218.7 L 76.6,222.6 L 74.5,222.6 L 74.5,224.6 L 72.7,224.6 L 72.7,226.7 L 70.7,226.7 L 68.6,226.7 L 68.6,228.5 L 70.7,230.5 L 70.7,234.7 L 68.6,234.7 L 70.7,236.4 L 72.7,238.5 L 72.7,236.4 L 74.5,236.4 L 74.5,234.7 L 76.6,234.7 L 76.6,232.6 L 78.6,232.6 L 78.6,230.5 L 80.4,228.5 L 80.4,230.5 L 78.6,234.7 L 78.6,236.4 L 80.4,236.4 L 80.4,238.5 L 78.6,242.4 L 78.6,244.4 L 76.6,244.4 L 74.5,244.4 L 74.5,248.3 L 72.7,248.3 L 70.7,248.3 L 70.7,246.5 L 70.7,244.4 L 68.6,244.4 L 66.8,244.4 L 66.8,242.4 L 64.8,240.6 L 64.8,242.4 L 64.8,244.4 L 64.8,246.5 L 64.8,248.3 L 62.7,248.3 L 60.9,246.5 L 58.9,248.3 L 58.9,246.5 L 56.8,246.5 L 56.8,248.3 L 56.8,250.3 L 56.8,252.4 L 56.8,254.2 L 55.0,258.3 L 52.9,260.1 L 50.9,260.1 L 50.9,262.2 L 49.1,262.2 L 49.1,260.1 L 47.0,262.2 L 49.1,264.2 L 49.1,271.9 L 49.1,274.0 L 50.9,274.0 L 50.9,271.9 L 52.9,274.0 L 52.9,276.0 L 52.9,277.8 L 52.9,279.9 L 52.9,281.9 L 50.9,284.0 L 52.9,285.8 L 50.9,285.8 L 49.1,289.9 L 47.0,291.7 L 47.0,295.8 L 45.0,295.8 L 45.0,297.6 L 43.2,297.6 L 43.2,299.7 L 41.1,301.7 L 43.2,301.7 L 43.2,303.5 L 45.0,303.5 L 47.0,305.6 L 47.0,307.6 L 45.0,311.5 L 45.0,313.6 L 47.0,313.6 L 47.0,317.4 L 49.1,315.4 L 49.1,311.5 L 50.9,309.4 L 50.9,307.6 L 49.1,305.6 L 50.9,303.5 L 55.0,301.7 L 56.8,301.7 L 58.9,299.7 L 56.8,299.7 L 58.9,297.6 L 60.9,297.6 L 62.7,299.7 L 60.9,301.7 L 62.7,301.7 L 64.8,301.7 L 62.7,305.6 L 64.8,305.6 L 66.8,305.6 L 68.6,305.6 L 70.7,305.6 L 68.6,303.5 L 70.7,301.7 L 68.6,299.7 L 68.6,297.6 L 68.6,295.8 L 68.6,293.8 L 68.6,291.7 L 70.7,295.8 L 72.7,297.6 L 72.7,299.7 L 72.7,301.7 L 72.7,303.5 L 74.5,303.5 L 74.5,305.6 L 74.5,307.6 L 76.6,307.6 L 76.6,309.4 L 78.6,307.6 L 78.6,309.4 L 80.4,309.4 L 82.5,309.4 L 82.5,311.5 L 80.4,313.6 L 78.6,313.6 L 78.6,315.4 L 80.4,315.4 L 78.6,317.4 L 76.6,319.5 L 78.6,319.5 L 76.6,321.3 L 76.6,323.3 L 78.6,323.3 L 76.6,325.4 L 78.6,325.4 L 78.6,327.4 L 78.6,329.2 L 80.4,329.2 L 80.4,331.3 L 82.5,329.2 L 82.5,331.3 L 84.6,331.3 L 86.4,333.3 L 86.4,335.1 L 86.4,339.3 L 86.4,341.1 L 84.6,343.1 L 82.5,343.1 L 80.4,345.2 L 78.6,345.2 L 78.6,343.1 L 76.6,345.2 L 74.5,345.2 L 74.5,347.0 L 76.6,347.0 L 76.6,349.0 L 78.6,349.0 L 80.4,352.9 L 80.4,354.9 L 80.4,357.0 L 82.5,358.8 L 82.5,360.8 L 84.6,360.8 L 86.4,360.8 L 88.4,364.7 L 88.4,366.8 L 90.5,366.8 L 92.5,366.8 L 92.5,364.7 L 90.5,362.9 L 92.5,360.8 L 94.3,360.8 L 96.4,360.8 L 98.4,358.8 L 98.4,357.0 L 98.4,354.9 L 96.4,354.9 L 96.4,352.9 L 94.3,352.9 L 96.4,351.1 L 96.4,352.9 L 98.4,351.1 L 100.2,351.1 L 102.3,351.1 L 104.3,351.1 L 104.3,349.0 L 106.2,349.0 L 106.2,347.0 L 108.2,349.0 L 108.2,351.1 L 108.2,352.9 L 110.3,354.9 L 112.1,354.9 L 114.1,354.9 L 116.2,354.9 L 116.2,352.9 L 118.0,351.1 L 118.0,352.9 L 120.0,352.9 L 120.0,354.9 L 120.0,357.0 L 122.1,354.9 L 123.9,354.9 L 123.9,352.9 L 125.9,351.1 L 123.9,351.1 L 125.9,349.0 L 128.0,349.0 L 129.8,349.0 L 129.8,351.1 L 131.9,351.1 L 133.9,349.0 L 135.7,343.1 L 137.8,341.1 L 137.8,343.1 L 139.8,345.2 L 137.8,345.2 L 137.8,347.0 L 135.7,349.0 L 135.7,351.1 L 137.8,351.1 L 137.8,352.9 L 137.8,354.9 L 135.7,354.9 L 133.9,354.9 L 133.9,352.9 L 131.9,352.9 L 128.0,354.9 L 128.0,357.0 L 125.9,357.0 L 125.9,358.8 L 125.9,360.8 L 123.9,362.9 L 122.1,362.9 L 122.1,364.7 L 120.0,366.8 L 118.0,368.8 L 116.2,368.8 L 116.2,366.8 L 114.1,366.8 L 112.1,368.8 L 112.1,370.6 L 110.3,372.7 L 108.2,372.7 L 108.2,374.7 L 106.2,378.6 L 104.3,378.6 L 102.3,380.6 L 102.3,382.7 L 100.2,388.6 L 100.2,390.4 L 98.4,390.4 L 98.4,392.5 L 98.4,394.5 L 98.4,396.3 L 98.4,398.4 L 98.4,400.4 L 96.4,406.3 L 94.3,406.3 L 92.5,408.1 L 92.5,410.2 L 92.5,412.2 L 90.5,414.0 L 88.4,414.0 L 86.4,416.1 L 88.4,416.1 L 88.4,418.2 L 86.4,420.0 L 84.6,420.0 L 84.6,422.0 L 86.4,424.1 L 88.4,424.1 L 88.4,422.0 L 90.5,422.0 L 92.5,422.0 L 94.3,422.0 L 96.4,427.9 L 98.4,432.0 L 98.4,433.8 L 96.4,433.8 L 96.4,435.9 L 94.3,435.9 L 96.4,437.9 L 94.3,437.9 L 94.3,439.7 L 96.4,441.8 L 96.4,439.7 L 98.4,441.8 L 100.2,441.8 L 100.2,439.7 L 102.3,439.7 L 104.3,437.9 L 106.2,437.9 L 108.2,435.9 L 110.3,433.8 L 110.3,432.0 L 108.2,430.0 L 108.2,427.9 L 110.3,426.1 L 114.1,426.1 L 116.2,426.1 L 116.2,424.1 L 116.2,422.0 L 118.0,420.0 L 120.0,420.0 L 120.0,422.0 L 122.1,420.0 L 122.1,422.0 L 123.9,420.0 L 125.9,420.0 L 125.9,418.2 L 123.9,416.1 L 122.1,414.0 L 123.9,412.2 L 125.9,410.2 L 128.0,408.1 L 129.8,406.3 L 131.9,406.3 L 131.9,404.3 L 131.9,402.2 L 133.9,402.2 L 137.8,404.3 L 137.8,406.3 L 137.8,408.1 L 135.7,408.1 L 135.7,410.2 L 135.7,412.2 L 137.8,412.2 L 139.8,414.0 L 141.9,416.1 L 141.9,414.0 L 141.9,412.2 L 141.9,410.2 L 141.9,408.1 L 143.7,408.1 L 145.7,408.1 L 147.8,408.1 L 147.8,406.3 L 145.7,404.3 L 143.7,404.3 L 141.9,402.2 L 143.7,402.2 L 145.7,398.4 L 145.7,396.3 L 147.8,396.3 L 147.8,392.5 L 147.8,390.4 L 149.6,392.5 L 149.6,396.3 L 151.6,396.3 L 153.7,396.3 L 153.7,398.4 L 151.6,400.4 L 151.6,402.2 L 153.7,402.2 L 153.7,404.3 L 155.5,406.3 L 157.6,406.3 L 159.6,404.3 L 161.4,404.3 L 163.5,402.2 L 165.5,400.4 L 165.5,402.2 L 167.3,402.2 L 169.4,402.2 L 169.4,400.4 L 171.4,398.4 L 173.2,396.3 L 175.3,394.5 L 175.3,392.5 L 175.3,390.4 L 177.3,390.4 L 177.3,388.6 L 177.3,386.5 L 179.1,384.5 L 181.2,384.5 L 189.2,382.7 L 189.2,380.6 L 191.2,380.6 L 195.1,380.6 L 195.1,378.6 L 197.1,378.6 L 197.1,380.6 L 201.0,380.6 L 201.0,382.7 L 203.0,382.7 L 204.8,382.7 L 206.9,382.7 L 206.9,380.6 L 209.0,374.7 L 210.7,374.7 L 212.8,374.7 L 214.9,374.7 L 216.7,372.7 L 218.7,372.7 L 218.7,370.6 L 218.7,368.8 L 220.8,368.8 L 222.6,370.6 L 222.6,372.7 L 224.6,372.7 L 224.6,370.6 L 226.7,370.6 L 226.7,372.7 L 228.5,372.7 L 230.5,370.6 L 234.4,370.6 L 236.5,372.7 L 240.6,376.8 L 242.4,374.7 L 244.4,374.7 L 246.5,374.7 L 248.3,376.8 L 250.3,374.7 L 252.4,372.7 L 254.2,372.7 L 256.2,372.7 L 254.2,370.6 L 254.2,368.8 L 256.2,368.8 L 256.2,366.8 L 258.3,364.7 L 260.1,366.8 L 260.1,364.7 L 260.1,362.9 L 262.1,362.9 L 264.2,364.7 L 266.0,362.9 L 268.1,364.7 L 270.1,366.8 L 270.1,364.7 L 270.1,362.9 L 274.0,360.8 L 276.0,360.8 L 274.0,358.8 L 276.0,358.8 L 276.0,354.9 L 276.0,352.9 L 276.0,351.1 L 276.0,349.0 L 274.0,349.0 L 271.9,349.0 L 271.9,347.0 L 274.0,345.2 L 276.0,347.0 L 276.0,345.2 L 277.8,349.0 L 277.8,347.0 L 279.9,345.2 L 281.9,347.0 L 279.9,349.0 L 281.9,349.0 L 283.7,349.0 L 285.8,351.1 L 283.7,351.1 L 283.7,352.9 L 285.8,354.9 L 287.9,357.0 L 289.9,354.9 L 289.9,352.9 L 291.7,351.1 L 293.8,349.0 L 295.8,349.0 L 297.6,349.0 L 295.8,351.1 L 297.6,351.1 L 299.7,349.0 L 299.7,351.1 L 301.7,352.9 L 305.6,352.9 L 307.6,351.1 L 305.6,349.0 L 303.5,347.0 L 305.6,345.2 L 305.6,347.0 L 307.6,347.0 L 309.4,345.2 L 313.6,341.1 L 313.6,343.1 L 315.4,343.1 L 317.4,343.1 L 317.4,345.2 L 319.5,345.2 L 319.5,347.0 L 321.3,347.0 L 323.3,347.0 L 327.2,345.2 L 327.2,347.0 L 329.2,349.0 L 329.2,347.0 L 331.3,347.0 L 333.1,347.0 L 335.1,345.2 L 337.2,345.2 L 339.3,345.2 L 341.1,349.0 L 341.1,351.1 L 343.1,351.1 L 343.1,352.9 L 345.2,352.9 L 347.0,351.1 L 349.0,351.1 L 351.1,349.0 L 352.9,349.0 L 354.9,347.0 L 357.0,349.0 L 358.8,347.0 L 358.8,345.2 L 360.8,343.1 L 360.8,341.1 L 362.9,341.1 L 362.9,339.3 L 366.8,339.3 L 368.8,337.2 L 368.8,335.1 L 374.7,331.3 L 372.7,325.4 L 374.7,323.3 L 378.6,321.3 L 382.4,315.4 L 382.4,307.6 L 382.4,303.5 L 380.6,299.7 L 380.6,295.8 L 378.6,287.8 L 378.6,284.0 L 378.6,281.9 L 376.5,277.8 L 374.7,276.0 L 380.6,271.9 L 382.4,270.1 L 382.4,268.1 L 380.6,266.0 L 378.6,262.2 L 376.5,256.2 L 376.5,252.4 L 374.7,244.4 L 376.5,240.6 L 374.7,238.5 L 372.7,234.7 L 378.6,226.7 L 378.6,224.6 L 382.4,218.7 L 384.5,209.0 L 384.5,206.9 L 380.6,206.9 L 378.6,203.0 L 380.6,203.0 L 382.4,198.9 L 386.5,197.1 L 388.6,195.1 L 390.4,191.2 L 392.5,189.2 L 394.5,187.1 L 396.3,183.3 L 394.5,177.3 L 396.3,175.3 L 394.5,171.4 L 392.5,171.4 L 392.5,169.4 L 394.5,169.4 L 394.5,167.3 L 398.4,163.5 L 400.4,165.5 L 400.4,163.5 L 402.2,165.5 L 406.3,167.3 L 408.1,167.3 L 412.2,167.3 L 414.0,161.4 L 416.1,159.6 L 414.0,157.6 L 416.1,155.5 L 420.0,151.6 L 420.0,153.7 L 422.0,153.7 L 422.0,151.6 L 424.1,147.8 L 424.1,145.7 L 424.1,143.7 L 425.9,143.7 L 425.9,139.8 L 430.0,135.7 L 427.9,133.9 L 430.0,131.9 L 431.8,131.9 L 431.8,129.8 L 431.8,128.0 L 431.8,125.9 L 431.8,123.9 L 430.0,123.9 L 431.8,122.1 L 431.8,120.0 L 430.0,120.0 L 430.0,118.0 L 431.8,118.0 L 430.0,116.2 L 431.8,116.2 L 431.8,114.1 L 433.8,112.1 L 433.8,110.3 L 431.8,110.3 L 433.8,108.2 L 438.0,108.2 L 439.7,110.3 L 439.7,108.2 L 439.7,106.2 L 439.7,102.3 L 438.0,102.3 L 438.0,100.2 L 439.7,100.2 L 438.0,98.4 L 439.7,98.4 L 438.0,96.4 L 435.9,94.3 L 438.0,94.3 L 439.7,94.3 L 439.7,92.5 L 441.8,90.5 L 441.8,88.4 L 441.8,86.4 L 443.9,88.4 L 443.9,86.4 L 445.7,88.4 L 447.7,86.4 L 447.7,84.6 L 445.7,80.4 L 443.9,78.6 L 443.9,76.6 L 441.8,72.7 L 443.9,74.5 L 445.7,74.5 L 445.7,72.7 L 447.7,70.7 L 445.7,70.7 L 445.7,68.6 L 445.7,66.8 L 445.7,64.8 L 447.7,64.8 L 447.7,62.7 L 447.7,60.9 L 447.7,56.8 L 449.8,55.0 L 451.6,55.0 L 449.8,52.9 L 451.6,52.9 L 449.8,50.9 L 453.6,49.1 L 453.6,47.0 L 455.7,45.0 L 457.5,45.0 L 453.6,41.1 Z"/>
  <path id="Lugo" d="M 447.7,56.9 L 449.7,58.8 L 451.6,58.8 L 453.6,58.8 L 453.6,56.9 L 453.6,54.9 L 455.6,52.9 L 455.6,54.9 L 457.6,54.9 L 459.5,54.9 L 459.5,52.9 L 463.5,52.9 L 463.5,54.9 L 463.5,56.9 L 463.5,58.8 L 463.5,60.8 L 465.5,60.8 L 463.5,62.8 L 465.5,64.8 L 467.4,64.8 L 469.4,64.8 L 469.4,66.7 L 467.4,66.7 L 469.4,66.7 L 467.4,68.7 L 467.4,70.7 L 469.4,70.7 L 469.4,72.7 L 467.4,74.6 L 467.4,78.6 L 469.4,80.6 L 471.4,80.6 L 471.4,78.6 L 471.4,82.5 L 471.4,84.5 L 471.4,82.5 L 471.4,78.6 L 471.4,76.6 L 473.3,76.6 L 473.3,74.6 L 475.3,74.6 L 477.3,72.7 L 475.3,72.7 L 475.3,70.7 L 475.3,68.7 L 475.3,66.7 L 477.3,66.7 L 481.2,66.7 L 483.2,66.7 L 483.2,64.8 L 483.2,62.8 L 483.2,60.8 L 485.2,60.8 L 487.2,62.8 L 489.1,58.8 L 491.1,62.8 L 491.1,64.8 L 493.1,64.8 L 493.1,62.8 L 495.1,64.8 L 497.0,62.8 L 499.0,64.8 L 503.0,64.8 L 503.0,66.7 L 501.0,66.7 L 503.0,66.7 L 501.0,66.7 L 499.0,68.7 L 501.0,70.7 L 503.0,70.7 L 503.0,72.7 L 504.9,72.7 L 506.9,72.7 L 508.9,72.7 L 508.9,74.6 L 506.9,74.6 L 508.9,74.6 L 508.9,72.7 L 510.9,72.7 L 508.9,74.6 L 510.9,74.6 L 512.8,74.6 L 512.8,76.6 L 514.8,76.6 L 516.8,76.6 L 516.8,78.6 L 518.7,78.6 L 516.8,78.6 L 518.7,78.6 L 520.7,80.6 L 524.7,82.5 L 524.7,80.6 L 526.6,82.5 L 528.6,82.5 L 528.6,86.5 L 530.6,88.5 L 528.6,86.5 L 528.6,88.5 L 530.6,90.4 L 530.6,92.4 L 532.6,92.4 L 532.6,94.4 L 534.5,94.4 L 534.5,96.4 L 532.6,96.4 L 534.5,98.3 L 534.5,96.4 L 534.5,98.3 L 536.5,98.3 L 536.5,100.3 L 538.5,102.3 L 540.5,106.2 L 542.4,108.2 L 542.4,110.2 L 544.4,110.2 L 546.4,112.1 L 548.4,112.1 L 548.4,114.1 L 552.3,116.1 L 554.3,116.1 L 552.3,118.1 L 554.3,118.1 L 550.3,120.0 L 550.3,122.0 L 548.4,122.0 L 548.4,120.0 L 550.3,122.0 L 552.3,122.0 L 552.3,124.0 L 550.3,124.0 L 550.3,126.0 L 554.3,124.0 L 554.3,122.0 L 554.3,120.0 L 556.2,120.0 L 556.2,118.1 L 560.2,120.0 L 562.2,122.0 L 564.1,122.0 L 566.1,122.0 L 568.1,122.0 L 570.1,122.0 L 570.1,124.0 L 572.0,124.0 L 574.0,124.0 L 574.0,126.0 L 581.9,124.0 L 583.9,126.0 L 583.9,124.0 L 585.9,124.0 L 583.9,124.0 L 585.9,122.0 L 587.8,124.0 L 589.8,124.0 L 591.8,126.0 L 591.8,124.0 L 593.8,124.0 L 595.7,126.0 L 597.7,126.0 L 597.7,124.0 L 599.7,126.0 L 597.7,124.0 L 599.7,124.0 L 599.7,126.0 L 601.6,126.0 L 601.6,127.9 L 601.6,126.0 L 603.6,126.0 L 605.6,127.9 L 603.6,127.9 L 603.6,129.9 L 605.6,129.9 L 605.6,131.9 L 603.6,135.8 L 601.6,139.8 L 599.7,143.7 L 601.6,145.7 L 599.7,147.7 L 599.7,151.6 L 597.7,153.6 L 595.7,153.6 L 593.8,155.6 L 591.8,155.6 L 589.8,159.5 L 589.8,161.5 L 589.8,163.5 L 589.8,161.5 L 587.8,163.5 L 587.8,165.4 L 585.9,165.4 L 585.9,167.4 L 583.9,167.4 L 581.9,167.4 L 579.9,169.4 L 579.9,167.4 L 576.0,165.4 L 574.0,167.4 L 572.0,165.4 L 570.1,165.4 L 568.1,167.4 L 570.1,169.4 L 568.1,171.4 L 570.1,173.3 L 570.1,175.3 L 568.1,173.3 L 568.1,175.3 L 566.1,177.3 L 566.1,179.3 L 568.1,179.3 L 568.1,181.2 L 570.1,183.2 L 572.0,185.2 L 574.0,183.2 L 576.0,181.2 L 578.0,181.2 L 578.0,183.2 L 579.9,185.2 L 578.0,189.1 L 578.0,191.1 L 578.0,193.1 L 578.0,195.0 L 578.0,199.0 L 579.9,199.0 L 581.9,201.0 L 581.9,204.9 L 583.9,204.9 L 583.9,208.9 L 585.9,208.9 L 587.8,210.8 L 589.8,210.8 L 591.8,208.9 L 593.8,208.9 L 593.8,210.8 L 593.8,214.8 L 591.8,216.8 L 591.8,218.7 L 591.8,220.7 L 591.8,226.6 L 593.8,228.6 L 595.7,230.6 L 595.7,232.6 L 597.7,234.5 L 599.7,234.5 L 603.6,240.5 L 603.6,238.5 L 603.6,236.5 L 605.6,236.5 L 607.6,242.4 L 609.5,242.4 L 611.5,244.4 L 615.5,242.4 L 615.5,246.4 L 615.5,248.3 L 613.5,252.3 L 611.5,256.2 L 613.5,262.2 L 615.5,262.2 L 617.4,264.1 L 617.4,266.1 L 621.4,268.1 L 621.4,266.1 L 623.4,264.1 L 625.3,264.1 L 627.3,262.2 L 629.3,262.2 L 631.3,260.2 L 633.2,260.2 L 635.2,260.2 L 635.2,258.2 L 635.2,256.2 L 637.2,254.3 L 637.2,250.3 L 639.1,250.3 L 639.1,248.3 L 639.1,252.3 L 641.1,252.3 L 643.1,256.2 L 645.1,256.2 L 647.0,258.2 L 647.0,260.2 L 649.0,262.2 L 649.0,264.1 L 651.0,266.1 L 649.0,266.1 L 649.0,268.1 L 649.0,270.1 L 649.0,272.0 L 645.1,274.0 L 643.1,276.0 L 641.1,276.0 L 641.1,278.0 L 639.1,278.0 L 637.2,281.9 L 633.2,281.9 L 631.3,281.9 L 629.3,283.9 L 627.3,285.9 L 625.3,287.8 L 623.4,283.9 L 621.4,283.9 L 621.4,281.9 L 619.4,283.9 L 619.4,285.9 L 617.4,285.9 L 617.4,289.8 L 615.5,287.8 L 615.5,289.8 L 615.5,291.8 L 613.5,291.8 L 613.5,293.7 L 613.5,295.7 L 613.5,299.7 L 611.5,299.7 L 611.5,301.6 L 611.5,299.7 L 609.5,297.7 L 607.6,301.6 L 605.6,301.6 L 605.6,303.6 L 607.6,305.6 L 607.6,309.5 L 609.5,309.5 L 609.5,311.5 L 611.5,311.5 L 611.5,313.5 L 613.5,315.5 L 613.5,313.5 L 615.5,313.5 L 613.5,311.5 L 613.5,309.5 L 613.5,307.6 L 613.5,305.6 L 613.5,303.6 L 613.5,301.6 L 615.5,301.6 L 615.5,299.7 L 617.4,301.6 L 619.4,307.6 L 621.4,309.5 L 623.4,311.5 L 625.3,315.5 L 629.3,315.5 L 633.2,315.5 L 635.2,315.5 L 637.2,317.4 L 637.2,319.4 L 643.1,327.3 L 643.1,333.2 L 641.1,337.2 L 643.1,341.1 L 645.1,341.1 L 639.1,341.1 L 641.1,343.1 L 643.1,347.0 L 645.1,349.0 L 645.1,353.0 L 647.0,356.9 L 643.1,354.9 L 643.1,353.0 L 641.1,353.0 L 643.1,353.0 L 633.2,354.9 L 637.2,362.8 L 637.2,366.8 L 639.1,368.8 L 641.1,368.8 L 639.1,370.7 L 641.1,370.7 L 637.2,372.7 L 637.2,374.7 L 635.2,376.7 L 633.2,378.6 L 635.2,380.6 L 633.2,382.6 L 631.3,384.6 L 629.3,386.5 L 627.3,386.5 L 625.3,388.5 L 625.3,390.5 L 623.4,392.4 L 615.5,398.4 L 613.5,398.4 L 611.5,392.4 L 609.5,392.4 L 607.6,394.4 L 609.5,396.4 L 607.6,398.4 L 607.6,400.3 L 607.6,402.3 L 603.6,404.3 L 601.6,402.3 L 599.7,402.3 L 597.7,402.3 L 593.8,406.3 L 595.7,406.3 L 593.8,406.3 L 591.8,406.3 L 589.8,410.2 L 587.8,412.2 L 591.8,416.1 L 591.8,418.1 L 593.8,420.1 L 593.8,422.1 L 595.7,422.1 L 593.8,424.0 L 595.7,424.0 L 593.8,426.0 L 595.7,428.0 L 597.7,429.9 L 595.7,429.9 L 593.8,428.0 L 593.8,429.9 L 591.8,429.9 L 589.8,431.9 L 587.8,431.9 L 585.9,433.9 L 587.8,435.9 L 585.9,439.8 L 587.8,441.8 L 585.9,443.8 L 587.8,447.7 L 589.8,447.7 L 589.8,449.7 L 585.9,451.7 L 583.9,453.6 L 583.9,455.6 L 581.9,459.6 L 579.9,457.6 L 581.9,459.6 L 579.9,463.5 L 581.9,463.5 L 581.9,467.5 L 579.9,469.4 L 579.9,471.4 L 578.0,473.4 L 578.0,477.3 L 576.0,479.3 L 574.0,481.3 L 574.0,485.2 L 572.0,487.2 L 572.0,489.2 L 568.1,489.2 L 566.1,491.1 L 566.1,493.1 L 564.1,493.1 L 564.1,495.1 L 562.2,495.1 L 558.2,497.1 L 558.2,499.0 L 558.2,501.0 L 556.2,505.0 L 554.3,505.0 L 554.3,506.9 L 554.3,508.9 L 554.3,510.9 L 552.3,514.8 L 550.3,516.8 L 548.4,516.8 L 550.3,518.8 L 546.4,520.8 L 546.4,524.7 L 546.4,526.7 L 544.4,530.6 L 544.4,532.6 L 540.5,528.6 L 536.5,520.8 L 538.5,516.8 L 538.5,514.8 L 540.5,512.9 L 536.5,510.9 L 534.5,510.9 L 532.6,508.9 L 532.6,506.9 L 530.6,506.9 L 530.6,505.0 L 528.6,503.0 L 526.6,503.0 L 522.7,501.0 L 522.7,499.0 L 520.7,497.1 L 516.8,497.1 L 514.8,497.1 L 512.8,497.1 L 510.9,497.1 L 508.9,497.1 L 510.9,497.1 L 508.9,497.1 L 506.9,497.1 L 504.9,499.0 L 501.0,495.1 L 499.0,495.1 L 497.0,493.1 L 497.0,495.1 L 493.1,497.1 L 491.1,499.0 L 487.2,499.0 L 485.2,503.0 L 481.2,503.0 L 479.3,503.0 L 477.3,505.0 L 471.4,506.9 L 463.5,508.9 L 461.5,508.9 L 459.5,506.9 L 455.6,503.0 L 453.6,501.0 L 447.7,503.0 L 445.7,506.9 L 441.8,506.9 L 441.8,505.0 L 439.8,505.0 L 439.8,501.0 L 437.8,499.0 L 435.8,497.1 L 433.9,497.1 L 431.9,495.1 L 429.9,495.1 L 427.9,495.1 L 424.0,493.1 L 422.0,491.1 L 422.0,487.2 L 420.1,483.2 L 416.1,483.2 L 414.1,481.3 L 410.2,483.2 L 408.2,483.2 L 408.2,481.3 L 404.3,479.3 L 404.3,477.3 L 402.3,477.3 L 402.3,479.3 L 402.3,477.3 L 402.3,475.4 L 404.3,477.3 L 406.2,475.4 L 408.2,475.4 L 410.2,475.4 L 412.2,475.4 L 412.2,473.4 L 410.2,471.4 L 408.2,471.4 L 408.2,469.4 L 406.2,469.4 L 404.3,469.4 L 402.3,471.4 L 400.3,473.4 L 398.3,473.4 L 396.4,471.4 L 394.4,469.4 L 392.4,469.4 L 388.5,469.4 L 388.5,467.5 L 384.5,465.5 L 380.6,465.5 L 380.6,463.5 L 380.6,461.5 L 378.6,461.5 L 376.6,463.5 L 372.7,461.5 L 374.7,461.5 L 374.7,457.6 L 368.7,457.6 L 372.7,455.6 L 374.7,455.6 L 376.6,455.6 L 374.7,453.6 L 376.6,451.7 L 378.6,453.6 L 378.6,449.7 L 372.7,445.7 L 372.7,443.8 L 370.7,439.8 L 368.7,439.8 L 372.7,437.8 L 374.7,433.9 L 374.7,431.9 L 374.7,429.9 L 376.6,428.0 L 376.6,426.0 L 378.6,426.0 L 378.6,422.1 L 378.6,420.1 L 380.6,412.2 L 380.6,408.2 L 380.6,406.3 L 382.6,404.3 L 384.5,402.3 L 384.5,400.3 L 386.5,400.3 L 388.5,398.4 L 386.5,394.4 L 388.5,392.4 L 386.5,392.4 L 378.6,388.5 L 374.7,386.5 L 370.7,384.6 L 368.7,382.6 L 368.7,380.6 L 366.8,380.6 L 364.8,374.7 L 360.8,370.7 L 360.8,368.8 L 360.8,360.9 L 362.8,358.9 L 364.8,354.9 L 368.7,351.0 L 366.8,351.0 L 364.8,349.0 L 362.8,349.0 L 360.8,351.0 L 358.9,349.0 L 356.9,349.0 L 358.9,347.0 L 358.9,345.1 L 360.8,343.1 L 360.8,341.1 L 362.8,341.1 L 362.8,339.2 L 366.8,339.2 L 368.7,337.2 L 368.7,335.2 L 374.7,331.3 L 372.7,325.3 L 374.7,323.4 L 378.6,321.4 L 382.6,315.5 L 382.6,307.6 L 382.6,303.6 L 380.6,299.7 L 380.6,295.7 L 378.6,287.8 L 378.6,283.9 L 378.6,281.9 L 376.6,278.0 L 374.7,276.0 L 380.6,272.0 L 382.6,270.1 L 382.6,268.1 L 380.6,266.1 L 378.6,262.2 L 376.6,256.2 L 376.6,252.3 L 374.7,244.4 L 376.6,240.5 L 374.7,238.5 L 372.7,234.5 L 378.6,226.6 L 378.6,224.7 L 382.6,218.7 L 384.5,208.9 L 384.5,206.9 L 380.6,206.9 L 378.6,202.9 L 380.6,202.9 L 382.6,199.0 L 386.5,197.0 L 388.5,195.0 L 390.4,191.1 L 392.4,189.1 L 394.4,187.2 L 396.4,183.2 L 394.4,177.3 L 396.4,175.3 L 394.4,171.4 L 392.4,171.4 L 392.4,169.4 L 394.4,169.4 L 394.4,167.4 L 398.3,163.5 L 400.3,165.4 L 400.3,163.5 L 402.3,165.4 L 406.2,167.4 L 408.2,167.4 L 412.2,167.4 L 414.1,161.5 L 416.1,159.5 L 414.1,157.5 L 416.1,157.5 L 414.1,157.5 L 416.1,155.6 L 420.1,151.6 L 420.1,153.6 L 422.0,153.6 L 422.0,151.6 L 424.0,147.7 L 424.0,145.7 L 424.0,143.7 L 426.0,143.7 L 426.0,139.8 L 429.9,135.8 L 427.9,133.9 L 429.9,131.9 L 431.9,131.9 L 431.9,129.9 L 431.9,127.9 L 431.9,126.0 L 431.9,124.0 L 429.9,124.0 L 431.9,122.0 L 431.9,120.0 L 429.9,120.0 L 429.9,118.1 L 431.9,118.1 L 429.9,118.1 L 431.9,118.1 L 429.9,116.1 L 431.9,116.1 L 431.9,114.1 L 433.9,112.1 L 433.9,110.2 L 431.9,110.2 L 433.9,108.2 L 437.8,108.2 L 439.8,110.2 L 439.8,108.2 L 439.8,106.2 L 439.8,102.3 L 437.8,102.3 L 437.8,100.3 L 439.8,100.3 L 437.8,98.3 L 439.8,98.3 L 437.8,96.4 L 435.8,94.4 L 437.8,94.4 L 439.8,94.4 L 439.8,92.4 L 441.8,90.4 L 441.8,88.5 L 441.8,86.5 L 443.7,88.5 L 443.7,86.5 L 445.7,88.5 L 447.7,86.5 L 447.7,84.5 L 445.7,80.6 L 443.7,78.6 L 443.7,76.6 L 441.8,72.7 L 443.7,74.6 L 445.7,74.6 L 445.7,72.7 L 447.7,70.7 L 445.7,70.7 L 445.7,68.7 L 445.7,66.7 L 445.7,64.8 L 447.7,64.8 L 447.7,62.8 L 447.7,60.8 L 447.7,56.9 Z"/>
  <path id="Ourense" d="M 645.1,562.2 L 645.1,560.2 L 643.1,562.2 L 643.1,564.2 L 641.1,566.2 L 641.1,568.1 L 643.1,570.1 L 643.1,574.1 L 645.1,574.1 L 643.1,576.0 L 641.1,572.1 L 637.2,572.1 L 633.2,570.1 L 631.3,570.1 L 627.3,570.1 L 625.3,570.1 L 623.4,570.1 L 619.4,574.1 L 617.4,576.0 L 619.4,578.0 L 615.5,581.9 L 613.5,581.9 L 607.6,585.9 L 605.6,585.9 L 605.6,587.9 L 603.6,595.8 L 603.6,597.7 L 601.6,601.7 L 599.7,601.7 L 597.7,601.7 L 595.7,601.7 L 593.8,601.7 L 593.8,603.7 L 593.8,605.6 L 591.8,605.6 L 593.8,605.6 L 593.8,607.6 L 591.8,607.6 L 591.8,609.6 L 589.8,609.6 L 589.8,611.6 L 589.8,613.5 L 589.8,615.5 L 587.8,615.5 L 585.9,615.5 L 581.9,617.5 L 581.9,619.5 L 581.9,621.4 L 583.9,623.4 L 585.9,625.4 L 589.8,625.4 L 595.7,625.4 L 595.7,631.3 L 597.7,633.3 L 599.7,635.2 L 597.7,635.2 L 595.7,639.2 L 593.8,641.2 L 593.8,643.1 L 591.8,645.1 L 591.8,647.1 L 589.8,647.1 L 589.8,649.1 L 591.8,653.0 L 589.8,655.0 L 587.8,655.0 L 585.9,658.9 L 583.9,658.9 L 578.0,658.9 L 578.0,657.0 L 576.0,657.0 L 576.0,658.9 L 574.0,658.9 L 572.0,658.9 L 568.1,658.9 L 568.1,655.0 L 566.1,651.0 L 560.2,647.1 L 558.2,647.1 L 556.2,645.1 L 554.3,645.1 L 550.3,645.1 L 550.3,649.1 L 548.4,649.1 L 544.4,647.1 L 542.4,651.0 L 542.4,653.0 L 542.4,655.0 L 542.4,657.0 L 540.5,658.9 L 542.4,658.9 L 540.5,660.9 L 542.4,660.9 L 542.4,662.9 L 544.4,666.8 L 542.4,666.8 L 544.4,668.8 L 542.4,670.8 L 542.4,672.7 L 540.5,672.7 L 540.5,674.7 L 538.5,680.6 L 536.5,680.6 L 534.5,680.6 L 532.6,682.6 L 528.6,684.6 L 526.6,684.6 L 522.7,684.6 L 518.7,686.6 L 516.8,688.5 L 510.9,688.5 L 508.9,690.5 L 506.9,692.5 L 506.9,690.5 L 503.0,690.5 L 501.0,690.5 L 497.0,692.5 L 495.1,688.5 L 489.1,690.5 L 489.1,692.5 L 487.2,694.5 L 487.2,696.4 L 485.2,696.4 L 485.2,698.4 L 483.2,700.4 L 481.2,700.4 L 479.3,702.4 L 479.3,700.4 L 481.2,698.4 L 479.3,696.4 L 481.2,694.5 L 479.3,694.5 L 475.3,690.5 L 475.3,688.5 L 475.3,686.6 L 475.3,684.6 L 473.3,682.6 L 471.4,682.6 L 469.4,682.6 L 465.5,682.6 L 465.5,680.6 L 461.5,680.6 L 459.5,680.6 L 459.5,682.6 L 459.5,684.6 L 461.5,686.6 L 457.6,688.5 L 451.6,690.5 L 449.7,690.5 L 449.7,692.5 L 447.7,690.5 L 443.7,692.5 L 437.8,690.5 L 433.9,692.5 L 433.9,690.5 L 433.9,686.6 L 435.8,686.6 L 435.8,684.6 L 437.8,682.6 L 437.8,680.6 L 437.8,678.7 L 439.8,678.7 L 441.8,676.7 L 441.8,674.7 L 439.8,676.7 L 439.8,674.7 L 435.8,676.7 L 433.9,674.7 L 431.9,674.7 L 429.9,674.7 L 424.0,674.7 L 422.0,672.7 L 420.1,670.8 L 418.1,670.8 L 416.1,666.8 L 414.1,664.8 L 412.2,664.8 L 404.3,668.8 L 402.3,668.8 L 400.3,668.8 L 400.3,666.8 L 398.3,666.8 L 394.4,670.8 L 390.4,670.8 L 388.5,672.7 L 386.5,672.7 L 380.6,672.7 L 376.6,672.7 L 376.6,676.7 L 374.7,678.7 L 372.7,678.7 L 370.7,678.7 L 370.7,680.6 L 368.7,682.6 L 366.8,680.6 L 364.8,678.7 L 366.8,676.7 L 366.8,670.8 L 366.8,662.9 L 368.7,658.9 L 368.7,657.0 L 366.8,657.0 L 362.8,655.0 L 362.8,657.0 L 360.8,662.9 L 358.9,670.8 L 356.9,670.8 L 354.9,672.7 L 352.9,672.7 L 351.0,674.7 L 349.0,672.7 L 345.0,672.7 L 343.1,672.7 L 341.1,674.7 L 341.1,676.7 L 339.1,676.7 L 339.1,678.7 L 337.2,680.6 L 335.2,684.6 L 333.2,686.6 L 329.3,686.6 L 327.3,686.6 L 327.3,688.5 L 325.3,688.5 L 323.3,688.5 L 323.3,690.5 L 321.4,690.5 L 319.4,690.5 L 317.4,690.5 L 315.4,692.5 L 315.4,690.5 L 313.5,692.5 L 311.5,692.5 L 311.5,690.5 L 309.5,690.5 L 307.5,690.5 L 305.6,692.5 L 299.7,688.5 L 295.7,688.5 L 297.7,674.7 L 297.7,672.7 L 295.7,668.8 L 293.7,668.8 L 291.8,668.8 L 287.8,668.8 L 287.8,666.8 L 289.8,666.8 L 287.8,666.8 L 289.8,664.8 L 287.8,662.9 L 285.8,660.9 L 285.8,658.9 L 285.8,655.0 L 287.8,653.0 L 289.8,647.1 L 295.7,643.1 L 295.7,641.2 L 297.7,639.2 L 299.7,635.2 L 299.7,633.3 L 305.6,631.3 L 309.5,627.3 L 309.5,625.4 L 311.5,627.3 L 313.5,625.4 L 315.4,625.4 L 317.4,625.4 L 319.4,623.4 L 321.4,619.5 L 321.4,613.5 L 319.4,611.6 L 317.4,605.6 L 315.4,603.7 L 313.5,601.7 L 311.5,601.7 L 307.5,603.7 L 305.6,601.7 L 303.6,601.7 L 299.7,605.6 L 297.7,605.6 L 295.7,601.7 L 295.7,597.7 L 295.7,595.8 L 295.7,583.9 L 295.7,581.9 L 295.7,580.0 L 297.7,580.0 L 295.7,580.0 L 293.7,576.0 L 299.7,574.1 L 299.7,572.1 L 301.6,570.1 L 303.6,570.1 L 303.6,568.1 L 301.6,566.2 L 301.6,562.2 L 301.6,560.2 L 299.7,558.3 L 297.7,558.3 L 297.7,556.3 L 299.7,556.3 L 301.6,554.3 L 303.6,554.3 L 305.6,552.3 L 303.6,550.4 L 303.6,548.4 L 305.6,546.4 L 303.6,546.4 L 299.7,546.4 L 295.7,546.4 L 293.7,548.4 L 289.8,548.4 L 287.8,548.4 L 285.8,546.4 L 285.8,544.4 L 283.9,544.4 L 281.9,542.5 L 279.9,542.5 L 279.9,538.5 L 279.9,536.5 L 277.9,532.6 L 279.9,530.6 L 279.9,526.7 L 281.9,524.7 L 281.9,520.8 L 279.9,520.8 L 277.9,520.8 L 276.0,520.8 L 276.0,518.8 L 276.0,516.8 L 272.0,514.8 L 272.0,512.9 L 270.1,510.9 L 268.1,510.9 L 268.1,508.9 L 270.1,506.9 L 268.1,503.0 L 270.1,501.0 L 270.1,499.0 L 268.1,485.2 L 266.1,481.3 L 266.1,479.3 L 266.1,475.4 L 266.1,473.4 L 266.1,469.4 L 264.1,469.4 L 260.2,463.5 L 264.1,465.5 L 266.1,463.5 L 266.1,461.5 L 268.1,461.5 L 270.1,461.5 L 274.0,461.5 L 276.0,463.5 L 277.9,461.5 L 279.9,459.6 L 279.9,457.6 L 283.9,457.6 L 283.9,455.6 L 283.9,453.6 L 285.8,453.6 L 285.8,451.7 L 289.8,449.7 L 291.8,447.7 L 293.7,447.7 L 295.7,447.7 L 297.7,449.7 L 301.6,443.8 L 305.6,441.8 L 305.6,439.8 L 307.5,439.8 L 309.5,437.8 L 311.5,439.8 L 311.5,441.8 L 315.4,445.7 L 317.4,443.8 L 319.4,443.8 L 323.3,443.8 L 327.3,445.7 L 329.3,443.8 L 333.2,445.7 L 335.2,445.7 L 337.2,447.7 L 339.1,445.7 L 341.1,445.7 L 343.1,447.7 L 345.0,449.7 L 347.0,449.7 L 349.0,449.7 L 349.0,445.7 L 351.0,443.8 L 351.0,441.8 L 352.9,439.8 L 354.9,439.8 L 358.9,441.8 L 360.8,441.8 L 364.8,441.8 L 364.8,439.8 L 368.7,439.8 L 370.7,439.8 L 372.7,443.8 L 372.7,445.7 L 378.6,449.7 L 378.6,453.6 L 376.6,451.7 L 374.7,453.6 L 376.6,455.6 L 374.7,455.6 L 372.7,455.6 L 368.7,457.6 L 374.7,457.6 L 374.7,461.5 L 372.7,461.5 L 376.6,463.5 L 378.6,461.5 L 380.6,461.5 L 380.6,463.5 L 380.6,465.5 L 384.5,465.5 L 388.5,467.5 L 388.5,469.4 L 392.4,469.4 L 394.4,469.4 L 396.4,471.4 L 398.3,473.4 L 400.3,473.4 L 402.3,471.4 L 404.3,469.4 L 406.2,469.4 L 408.2,469.4 L 408.2,471.4 L 410.2,471.4 L 412.2,473.4 L 412.2,475.4 L 410.2,475.4 L 408.2,475.4 L 406.2,475.4 L 404.3,477.3 L 402.3,475.4 L 402.3,477.3 L 402.3,479.3 L 402.3,477.3 L 404.3,477.3 L 404.3,479.3 L 408.2,481.3 L 408.2,483.2 L 410.2,483.2 L 414.1,481.3 L 416.1,483.2 L 420.1,483.2 L 422.0,487.2 L 422.0,491.1 L 424.0,493.1 L 427.9,495.1 L 429.9,495.1 L 431.9,495.1 L 433.9,497.1 L 435.8,497.1 L 437.8,499.0 L 439.8,501.0 L 439.8,505.0 L 441.8,505.0 L 441.8,506.9 L 445.7,506.9 L 447.7,503.0 L 453.6,501.0 L 455.6,503.0 L 459.5,506.9 L 461.5,508.9 L 463.5,508.9 L 471.4,506.9 L 477.3,505.0 L 479.3,503.0 L 481.2,503.0 L 485.2,503.0 L 487.2,499.0 L 491.1,499.0 L 493.1,497.1 L 497.0,495.1 L 497.0,493.1 L 499.0,495.1 L 501.0,495.1 L 504.9,499.0 L 506.9,497.1 L 508.9,497.1 L 510.9,497.1 L 508.9,497.1 L 510.9,497.1 L 512.8,497.1 L 514.8,497.1 L 516.8,497.1 L 520.7,497.1 L 522.7,499.0 L 522.7,501.0 L 526.6,503.0 L 528.6,503.0 L 530.6,505.0 L 530.6,506.9 L 532.6,506.9 L 532.6,508.9 L 534.5,510.9 L 536.5,510.9 L 540.5,512.9 L 538.5,514.8 L 538.5,516.8 L 536.5,520.8 L 540.5,528.6 L 544.4,532.6 L 544.4,530.6 L 546.4,526.7 L 546.4,524.7 L 546.4,520.8 L 550.3,518.8 L 548.4,516.8 L 550.3,516.8 L 552.3,514.8 L 554.3,510.9 L 554.3,508.9 L 554.3,506.9 L 554.3,505.0 L 556.2,505.0 L 558.2,501.0 L 558.2,499.0 L 558.2,497.1 L 562.2,495.1 L 564.1,495.1 L 564.1,493.1 L 566.1,493.1 L 566.1,491.1 L 568.1,489.2 L 572.0,489.2 L 572.0,487.2 L 574.0,485.2 L 574.0,481.3 L 576.0,479.3 L 578.0,477.3 L 578.0,473.4 L 581.9,473.4 L 583.9,473.4 L 585.9,473.4 L 587.8,475.4 L 589.8,477.3 L 591.8,477.3 L 595.7,475.4 L 595.7,477.3 L 597.7,477.3 L 601.6,479.3 L 603.6,479.3 L 605.6,473.4 L 605.6,471.4 L 613.5,471.4 L 615.5,471.4 L 617.4,475.4 L 619.4,475.4 L 621.4,477.3 L 627.3,479.3 L 631.3,483.2 L 633.2,483.2 L 635.2,483.2 L 637.2,481.3 L 639.1,481.3 L 639.1,483.2 L 641.1,485.2 L 641.1,487.2 L 643.1,489.2 L 643.1,493.1 L 639.1,495.1 L 639.1,499.0 L 639.1,501.0 L 641.1,503.0 L 639.1,503.0 L 639.1,505.0 L 637.2,506.9 L 637.2,508.9 L 635.2,508.9 L 633.2,510.9 L 635.2,512.9 L 639.1,514.8 L 639.1,516.8 L 641.1,516.8 L 643.1,516.8 L 643.1,518.8 L 645.1,518.8 L 647.0,518.8 L 651.0,520.8 L 651.0,522.7 L 651.0,524.7 L 654.9,524.7 L 656.9,524.7 L 658.9,526.7 L 658.9,530.6 L 658.9,532.6 L 656.9,536.5 L 658.9,538.5 L 658.9,540.5 L 656.9,538.5 L 658.9,540.5 L 658.9,542.5 L 656.9,544.4 L 656.9,546.4 L 654.9,550.4 L 653.0,552.3 L 651.0,556.3 L 651.0,560.2 L 649.0,560.2 L 649.0,562.2 L 647.0,560.2 L 645.1,562.2 Z"/>
  <path id="Pontevedra" d="M 151.6,548.4 L 153.6,548.4 L 153.6,544.4 L 155.6,542.5 L 155.6,544.4 L 157.5,544.4 L 159.5,542.5 L 159.5,540.5 L 161.5,542.5 L 161.5,540.5 L 161.5,542.5 L 159.5,542.5 L 159.5,544.4 L 159.5,542.5 L 159.5,544.4 L 161.5,542.5 L 161.5,544.4 L 161.5,542.5 L 163.5,542.5 L 163.5,540.5 L 163.5,538.5 L 163.5,540.5 L 165.4,538.5 L 165.4,540.5 L 165.4,538.5 L 167.4,538.5 L 169.4,538.5 L 171.4,538.5 L 171.4,536.5 L 171.4,534.6 L 171.4,532.6 L 173.3,532.6 L 173.3,534.6 L 175.3,534.6 L 175.3,532.6 L 175.3,534.6 L 175.3,532.6 L 177.3,532.6 L 179.3,532.6 L 181.2,528.6 L 181.2,526.7 L 183.2,526.7 L 183.2,524.7 L 185.2,524.7 L 187.2,524.7 L 189.1,524.7 L 191.1,526.7 L 191.1,524.7 L 193.1,524.7 L 195.0,526.7 L 195.0,524.7 L 193.1,524.7 L 193.1,522.7 L 195.0,522.7 L 195.0,520.8 L 195.0,518.8 L 193.1,516.8 L 193.1,518.8 L 193.1,516.8 L 195.0,512.9 L 197.0,512.9 L 195.0,510.9 L 197.0,508.9 L 195.0,506.9 L 197.0,505.0 L 195.0,505.0 L 193.1,505.0 L 193.1,503.0 L 191.1,505.0 L 189.1,506.9 L 189.1,508.9 L 191.1,508.9 L 191.1,512.9 L 187.2,512.9 L 187.2,514.8 L 185.2,512.9 L 183.2,514.8 L 183.2,516.8 L 185.2,516.8 L 185.2,518.8 L 185.2,520.8 L 183.2,522.7 L 179.3,522.7 L 179.3,524.7 L 177.3,524.7 L 175.3,526.7 L 173.3,524.7 L 173.3,526.7 L 171.4,526.7 L 169.4,526.7 L 169.4,522.7 L 169.4,524.7 L 167.4,524.7 L 165.4,524.7 L 165.4,522.7 L 165.4,524.7 L 163.5,526.7 L 165.4,526.7 L 163.5,528.6 L 159.5,528.6 L 159.5,530.6 L 157.5,532.6 L 155.6,530.6 L 151.6,530.6 L 153.6,530.6 L 151.6,530.6 L 151.6,532.6 L 153.6,532.6 L 151.6,532.6 L 151.6,534.6 L 149.6,534.6 L 149.6,536.5 L 149.6,534.6 L 147.7,534.6 L 145.7,530.6 L 143.7,530.6 L 143.7,532.6 L 141.8,534.6 L 139.8,532.6 L 137.8,530.6 L 133.9,530.6 L 133.9,532.6 L 131.9,534.6 L 131.9,532.6 L 129.9,532.6 L 131.9,526.7 L 131.9,524.7 L 133.9,520.8 L 135.8,516.8 L 133.9,514.8 L 135.8,514.8 L 135.8,512.9 L 135.8,514.8 L 137.8,516.8 L 137.8,518.8 L 139.8,520.8 L 141.8,522.7 L 141.8,524.7 L 143.7,526.7 L 143.7,524.7 L 143.7,522.7 L 143.7,520.8 L 143.7,518.8 L 143.7,516.8 L 145.7,512.9 L 143.7,512.9 L 143.7,510.9 L 143.7,508.9 L 141.8,508.9 L 143.7,506.9 L 141.8,506.9 L 141.8,505.0 L 139.8,505.0 L 141.8,503.0 L 143.7,503.0 L 143.7,505.0 L 145.7,505.0 L 147.7,505.0 L 149.6,505.0 L 149.6,506.9 L 151.6,508.9 L 153.6,508.9 L 155.6,508.9 L 157.5,506.9 L 159.5,506.9 L 159.5,505.0 L 161.5,505.0 L 161.5,503.0 L 163.5,501.0 L 163.5,499.0 L 163.5,497.1 L 165.4,497.1 L 167.4,493.1 L 167.4,495.1 L 167.4,493.1 L 169.4,491.1 L 171.4,491.1 L 171.4,489.2 L 175.3,487.2 L 177.3,489.2 L 177.3,487.2 L 179.3,487.2 L 177.3,485.2 L 177.3,487.2 L 177.3,485.2 L 179.3,485.2 L 179.3,483.2 L 181.2,485.2 L 185.2,479.3 L 187.2,479.3 L 189.1,477.3 L 187.2,477.3 L 187.2,479.3 L 187.2,477.3 L 187.2,479.3 L 185.2,479.3 L 183.2,479.3 L 181.2,479.3 L 179.3,479.3 L 181.2,477.3 L 179.3,475.4 L 179.3,473.4 L 177.3,475.4 L 175.3,475.4 L 175.3,477.3 L 173.3,479.3 L 171.4,479.3 L 167.4,481.3 L 165.4,481.3 L 163.5,485.2 L 161.5,485.2 L 161.5,487.2 L 159.5,487.2 L 157.5,489.2 L 155.6,487.2 L 153.6,485.2 L 151.6,485.2 L 149.6,485.2 L 147.7,483.2 L 147.7,485.2 L 145.7,485.2 L 145.7,487.2 L 143.7,489.2 L 143.7,487.2 L 141.8,489.2 L 139.8,489.2 L 141.8,487.2 L 139.8,487.2 L 139.8,485.2 L 137.8,485.2 L 137.8,483.2 L 135.8,479.3 L 133.9,479.3 L 131.9,479.3 L 131.9,477.3 L 131.9,475.4 L 133.9,475.4 L 133.9,473.4 L 131.9,473.4 L 133.9,473.4 L 133.9,471.4 L 133.9,467.5 L 131.9,465.5 L 131.9,463.5 L 129.9,463.5 L 127.9,463.5 L 126.0,461.5 L 124.0,461.5 L 124.0,463.5 L 122.0,465.5 L 120.0,465.5 L 120.0,463.5 L 120.0,465.5 L 118.1,461.5 L 120.0,459.6 L 120.0,457.6 L 118.1,457.6 L 120.0,455.6 L 122.0,455.6 L 124.0,457.6 L 124.0,455.6 L 124.0,457.6 L 126.0,457.6 L 129.9,455.6 L 129.9,453.6 L 131.9,455.6 L 131.9,453.6 L 133.9,453.6 L 131.9,451.7 L 131.9,453.6 L 131.9,451.7 L 133.9,449.7 L 133.9,451.7 L 135.8,449.7 L 135.8,451.7 L 137.8,449.7 L 137.8,451.7 L 139.8,453.6 L 137.8,455.6 L 139.8,457.6 L 137.8,459.6 L 139.8,459.6 L 137.8,459.6 L 135.8,461.5 L 135.8,463.5 L 133.9,463.5 L 135.8,467.5 L 137.8,467.5 L 139.8,465.5 L 139.8,463.5 L 139.8,465.5 L 141.8,465.5 L 139.8,463.5 L 141.8,463.5 L 141.8,465.5 L 143.7,465.5 L 143.7,463.5 L 143.7,465.5 L 145.7,463.5 L 145.7,465.5 L 147.7,467.5 L 147.7,465.5 L 147.7,463.5 L 147.7,461.5 L 145.7,461.5 L 145.7,459.6 L 145.7,457.6 L 145.7,455.6 L 147.7,455.6 L 145.7,453.6 L 147.7,451.7 L 147.7,453.6 L 149.6,453.6 L 151.6,453.6 L 151.6,451.7 L 153.6,451.7 L 151.6,451.7 L 149.6,451.7 L 149.6,449.7 L 149.6,447.7 L 147.7,449.7 L 147.7,447.7 L 149.6,447.7 L 149.6,445.7 L 149.6,443.8 L 151.6,443.8 L 149.6,443.8 L 151.6,441.8 L 149.6,441.8 L 147.7,443.8 L 147.7,445.7 L 147.7,443.8 L 147.7,439.8 L 147.7,437.8 L 147.7,435.9 L 145.7,433.9 L 145.7,431.9 L 145.7,429.9 L 147.7,429.9 L 149.6,431.9 L 147.7,433.9 L 149.6,433.9 L 149.6,431.9 L 149.6,429.9 L 147.7,431.9 L 147.7,429.9 L 147.7,428.0 L 147.7,426.0 L 149.6,426.0 L 149.6,424.0 L 149.6,426.0 L 153.6,426.0 L 155.6,424.0 L 157.5,426.0 L 155.6,424.0 L 157.5,422.1 L 157.5,424.0 L 157.5,422.1 L 159.5,422.1 L 159.5,420.1 L 159.5,418.1 L 159.5,420.1 L 161.5,420.1 L 163.5,420.1 L 163.5,418.1 L 163.5,420.1 L 163.5,418.1 L 163.5,416.1 L 161.5,414.2 L 163.5,412.2 L 163.5,410.2 L 165.4,410.2 L 165.4,408.2 L 167.4,406.3 L 167.4,404.3 L 169.4,404.3 L 171.4,402.3 L 173.3,398.4 L 175.3,396.4 L 177.3,392.4 L 175.3,392.4 L 175.3,390.5 L 177.3,390.5 L 177.3,388.5 L 177.3,386.5 L 179.3,384.6 L 181.2,384.6 L 189.1,382.6 L 189.1,380.6 L 191.1,380.6 L 195.0,380.6 L 195.0,378.6 L 197.0,378.6 L 197.0,380.6 L 201.0,380.6 L 201.0,382.6 L 202.9,382.6 L 204.9,382.6 L 206.9,382.6 L 206.9,380.6 L 208.9,374.7 L 210.8,374.7 L 212.8,374.7 L 214.8,374.7 L 216.8,372.7 L 218.7,372.7 L 218.7,370.7 L 218.7,368.8 L 220.7,368.8 L 222.7,370.7 L 222.7,372.7 L 224.7,372.7 L 224.7,370.7 L 226.6,370.7 L 226.6,372.7 L 228.6,372.7 L 230.6,370.7 L 234.5,370.7 L 236.5,372.7 L 240.4,376.7 L 242.4,374.7 L 244.4,374.7 L 246.4,374.7 L 248.3,376.7 L 250.3,374.7 L 252.3,372.7 L 254.3,372.7 L 256.2,372.7 L 254.3,370.7 L 254.3,368.8 L 256.2,368.8 L 256.2,366.8 L 258.2,364.8 L 260.2,366.8 L 260.2,364.8 L 260.2,362.8 L 262.2,362.8 L 264.1,364.8 L 266.1,362.8 L 268.1,364.8 L 270.1,366.8 L 270.1,364.8 L 270.1,362.8 L 274.0,360.9 L 276.0,360.9 L 274.0,358.9 L 276.0,358.9 L 276.0,354.9 L 276.0,353.0 L 276.0,351.0 L 276.0,349.0 L 274.0,349.0 L 272.0,349.0 L 272.0,347.0 L 274.0,345.1 L 276.0,347.0 L 276.0,345.1 L 277.9,349.0 L 277.9,347.0 L 279.9,345.1 L 281.9,347.0 L 279.9,349.0 L 281.9,349.0 L 283.9,349.0 L 285.8,351.0 L 283.9,351.0 L 283.9,353.0 L 285.8,354.9 L 287.8,356.9 L 289.8,354.9 L 289.8,353.0 L 291.8,351.0 L 293.7,349.0 L 295.7,349.0 L 297.7,349.0 L 295.7,351.0 L 297.7,351.0 L 299.7,349.0 L 299.7,351.0 L 301.6,353.0 L 305.6,353.0 L 307.5,351.0 L 305.6,349.0 L 303.6,347.0 L 305.6,345.1 L 305.6,347.0 L 307.5,347.0 L 309.5,345.1 L 313.5,341.1 L 313.5,343.1 L 315.4,343.1 L 317.4,343.1 L 317.4,345.1 L 319.4,345.1 L 319.4,347.0 L 321.4,347.0 L 323.3,347.0 L 327.3,345.1 L 327.3,347.0 L 329.3,349.0 L 329.3,347.0 L 331.2,347.0 L 333.2,347.0 L 335.2,345.1 L 337.2,345.1 L 339.1,345.1 L 341.1,349.0 L 343.1,349.0 L 341.1,349.0 L 341.1,351.0 L 343.1,351.0 L 343.1,353.0 L 345.0,353.0 L 347.0,351.0 L 349.0,351.0 L 351.0,349.0 L 352.9,349.0 L 354.9,347.0 L 356.9,349.0 L 358.9,349.0 L 360.8,351.0 L 362.8,349.0 L 364.8,349.0 L 366.8,351.0 L 368.7,351.0 L 364.8,354.9 L 362.8,358.9 L 360.8,360.9 L 360.8,368.8 L 360.8,370.7 L 364.8,374.7 L 366.8,380.6 L 368.7,380.6 L 368.7,382.6 L 370.7,384.6 L 374.7,386.5 L 378.6,388.5 L 386.5,392.4 L 388.5,392.4 L 386.5,394.4 L 388.5,398.4 L 386.5,400.3 L 384.5,400.3 L 384.5,402.3 L 382.6,404.3 L 380.6,406.3 L 380.6,408.2 L 380.6,412.2 L 378.6,420.1 L 378.6,422.1 L 378.6,426.0 L 376.6,426.0 L 376.6,428.0 L 374.7,429.9 L 374.7,431.9 L 374.7,433.9 L 372.7,437.8 L 368.7,439.8 L 364.8,439.8 L 364.8,441.8 L 360.8,441.8 L 358.9,441.8 L 354.9,439.8 L 352.9,439.8 L 351.0,441.8 L 351.0,443.8 L 349.0,445.7 L 349.0,449.7 L 347.0,449.7 L 345.0,449.7 L 343.1,447.7 L 341.1,445.7 L 339.1,445.7 L 337.2,447.7 L 335.2,445.7 L 333.2,445.7 L 329.3,443.8 L 327.3,445.7 L 323.3,443.8 L 319.4,443.8 L 317.4,443.8 L 315.4,445.7 L 311.5,441.8 L 311.5,439.8 L 309.5,437.8 L 307.5,439.8 L 305.6,439.8 L 305.6,441.8 L 301.6,443.8 L 297.7,449.7 L 295.7,447.7 L 293.7,447.7 L 291.8,447.7 L 289.8,449.7 L 285.8,451.7 L 285.8,453.6 L 283.9,453.6 L 283.9,455.6 L 283.9,457.6 L 279.9,457.6 L 279.9,459.6 L 277.9,461.5 L 276.0,463.5 L 274.0,461.5 L 270.1,461.5 L 268.1,461.5 L 266.1,461.5 L 266.1,463.5 L 264.1,465.5 L 260.2,463.5 L 264.1,469.4 L 266.1,469.4 L 266.1,473.4 L 266.1,475.4 L 266.1,479.3 L 266.1,481.3 L 268.1,485.2 L 270.1,499.0 L 270.1,501.0 L 268.1,503.0 L 270.1,506.9 L 268.1,508.9 L 268.1,510.9 L 270.1,510.9 L 272.0,512.9 L 272.0,514.8 L 276.0,516.8 L 276.0,518.8 L 276.0,520.8 L 277.9,520.8 L 279.9,520.8 L 281.9,520.8 L 281.9,524.7 L 279.9,526.7 L 279.9,530.6 L 277.9,532.6 L 279.9,536.5 L 279.9,538.5 L 279.9,542.5 L 281.9,542.5 L 283.9,544.4 L 285.8,544.4 L 285.8,546.4 L 287.8,548.4 L 289.8,548.4 L 293.7,548.4 L 295.7,546.4 L 299.7,546.4 L 303.6,546.4 L 305.6,546.4 L 303.6,548.4 L 303.6,550.4 L 305.6,552.3 L 303.6,554.3 L 301.6,554.3 L 299.7,556.3 L 297.7,556.3 L 297.7,558.3 L 299.7,558.3 L 301.6,560.2 L 301.6,562.2 L 301.6,566.2 L 303.6,568.1 L 303.6,570.1 L 301.6,570.1 L 299.7,572.1 L 299.7,574.1 L 293.7,576.0 L 293.7,578.0 L 291.8,580.0 L 289.8,581.9 L 287.8,581.9 L 285.8,581.9 L 283.9,580.0 L 279.9,581.9 L 279.9,583.9 L 279.9,585.9 L 277.9,585.9 L 276.0,585.9 L 272.0,587.9 L 270.1,587.9 L 270.1,589.8 L 268.1,589.8 L 264.1,591.8 L 264.1,589.8 L 262.2,591.8 L 262.2,595.8 L 260.2,597.7 L 258.2,595.8 L 254.3,595.8 L 250.3,595.8 L 248.3,599.7 L 246.4,599.7 L 244.4,597.7 L 242.4,597.7 L 238.5,599.7 L 236.5,599.7 L 232.5,595.8 L 230.6,595.8 L 224.7,595.8 L 222.7,595.8 L 218.7,595.8 L 210.8,595.8 L 210.8,597.7 L 212.8,599.7 L 206.9,603.7 L 204.9,603.7 L 202.9,603.7 L 199.0,603.7 L 195.0,603.7 L 185.2,603.7 L 183.2,605.6 L 181.2,607.6 L 179.3,609.6 L 177.3,611.6 L 177.3,613.5 L 177.3,619.5 L 171.4,623.4 L 169.4,623.4 L 167.4,625.4 L 163.5,625.4 L 159.5,627.3 L 155.6,631.3 L 153.6,633.3 L 155.6,635.2 L 153.6,637.2 L 151.6,639.2 L 147.7,643.1 L 143.7,645.1 L 133.9,649.1 L 131.9,651.0 L 129.9,653.0 L 129.9,655.0 L 127.9,657.0 L 124.0,658.9 L 122.0,658.9 L 120.0,655.0 L 120.0,653.0 L 120.0,651.0 L 122.0,651.0 L 120.0,649.1 L 122.0,649.1 L 120.0,649.1 L 122.0,647.1 L 120.0,645.1 L 120.0,643.1 L 120.0,639.2 L 120.0,637.2 L 120.0,635.2 L 120.0,631.3 L 120.0,629.3 L 120.0,627.3 L 120.0,623.4 L 120.0,619.5 L 122.0,619.5 L 122.0,617.5 L 124.0,615.5 L 122.0,615.5 L 122.0,613.5 L 122.0,611.6 L 120.0,611.6 L 122.0,611.6 L 122.0,609.6 L 122.0,607.6 L 120.0,607.6 L 122.0,605.6 L 124.0,603.7 L 122.0,601.7 L 122.0,599.7 L 122.0,595.8 L 120.0,593.8 L 120.0,591.8 L 120.0,589.8 L 122.0,587.9 L 122.0,581.9 L 120.0,581.9 L 120.0,580.0 L 120.0,578.0 L 124.0,578.0 L 124.0,580.0 L 126.0,578.0 L 127.9,578.0 L 129.9,576.0 L 131.9,576.0 L 131.9,574.1 L 133.9,574.1 L 133.9,576.0 L 135.8,578.0 L 135.8,580.0 L 137.8,580.0 L 139.8,578.0 L 137.8,576.0 L 139.8,576.0 L 139.8,574.1 L 141.8,572.1 L 139.8,570.1 L 137.8,568.1 L 135.8,568.1 L 133.9,566.2 L 133.9,564.2 L 135.8,564.2 L 137.8,566.2 L 139.8,564.2 L 141.8,562.2 L 143.7,558.3 L 141.8,554.3 L 143.7,554.3 L 145.7,554.3 L 145.7,552.3 L 147.7,554.3 L 147.7,552.3 L 149.6,552.3 L 151.6,550.4 L 151.6,548.4 Z"/>
</svg>
